<svg xmlns="http://www.w3.org/2000/svg" viewBox="0 0 531.85 431.21"><defs><style>.cls-1,.cls-4{fill:#ebebeb;}.cls-2{fill:#e0e0e0;}.cls-3,.cls-5{fill:#f5f5f5;}.cls-3,.cls-4{fill-rule:evenodd;}.cls-6{fill:#263238;}.cls-7{fill:#5a6bff;}.cls-8{opacity:0.3;}.cls-9{fill:#fafafa;}.cls-10,.cls-11{opacity:0.4;}.cls-12{fill:#455a64;}.cls-13{fill:#ffbe9d;}.cls-14,.cls-19{fill:#fff;}.cls-15{fill:#eb996e;}.cls-16{fill:#aa6550;}.cls-17{fill:#b78876;}.cls-18,.cls-19{opacity:0.6;}</style></defs><title>Character 1</title><g id="Camada_2" data-name="Camada 2"><g id="Character_1" data-name="Character 1"><path class="cls-1" d="M457,31.59S448.35,26,438,46.66s-14.21,32.6-14.21,32.6-2.74,4.34-5.73,1.55S411,70,405.94,71.52c-5.22,1.54-6.89,7.39-5.82,16s2.72,27.41,2.86,29.12-.8,4.15-3.14,2.57-15.86-16.38-22.5-9.55.26,30.2,1,32.77.21,3.68-1,4.32S372,142,368,137.89s-9.39-8-12.89-3.78-4.48,21.85,12.48,50.26L376.3,197l15.4-1c32.84-4.12,46.09-15.72,47.3-21.1s-5.25-7.15-10.91-7.83-12.44-.55-12.68-1.91.33-2.43,2.79-3.46,25.12-10,26.42-19.41-18.69-11-21.37-11.85-1.31-3.14.09-4.06,17.31-11.24,24.71-15.66,11-9.35,9-14.41c-1.93-4.87-10.75-3.22-14.8-3.86S439.94,87,439.94,87s7-10.39,17-31.27-.08-24.27-.08-24.27"/><path class="cls-2" d="M447.73,50.1s-.06.16-.19.45l-.59,1.3c-.54,1.15-1.31,2.82-2.31,4.95-2,4.31-5,10.51-8.66,18.16-7.36,15.3-17.71,36.36-29.23,59.57S384.83,178.78,377.38,194l-8.8,18.08-2.4,4.91c-.27.55-.48,1-.64,1.27a4.49,4.49,0,0,1-.23.43,4.57,4.57,0,0,1,.18-.45c.15-.31.34-.74.59-1.29.54-1.16,1.32-2.82,2.31-5,2-4.3,5-10.5,8.66-18.15,7.37-15.31,17.72-36.36,29.24-59.58s21.91-44.24,29.36-59.5l8.81-18.08,2.4-4.92.63-1.27C447.64,50.24,447.73,50.1,447.73,50.1Z"/><path class="cls-2" d="M411.26,82.9a4.24,4.24,0,0,1,.41,1c.23.68.53,1.66.89,2.89.72,2.45,1.63,5.86,2.56,9.64s1.71,7.09,2.33,9.69c.29,1.15.53,2.13.72,2.93a3.94,3.94,0,0,1,.22,1.09,4.84,4.84,0,0,1-.41-1c-.23-.68-.53-1.67-.88-2.9-.7-2.46-1.56-5.88-2.49-9.66s-1.76-7.07-2.4-9.66L411.47,84A4.82,4.82,0,0,1,411.26,82.9Z"/><path class="cls-2" d="M419.81,110.44c-.05-.14,6.9-2.32,15.51-4.87s15.62-4.51,15.66-4.37-6.91,2.32-15.51,4.87S419.85,110.58,419.81,110.44Z"/><path class="cls-2" d="M400.52,145.3a4.39,4.39,0,0,1,1.13-.07l3.08,0c2.61,0,6.2-.07,10.16-.25s7.55-.46,10.15-.69l3.07-.26a4.08,4.08,0,0,1,1.13,0,5.48,5.48,0,0,1-1.11.23c-.72.12-1.76.27-3.06.43-2.58.32-6.17.66-10.15.84s-7.58.17-10.19.09c-1.3,0-2.36-.09-3.09-.14A5.2,5.2,0,0,1,400.52,145.3Z"/><path class="cls-2" d="M387.31,122.09a4.05,4.05,0,0,1,.61.85c.37.57.89,1.39,1.52,2.42,1.25,2,3,4.9,4.82,8.07s3.51,6,4.69,8.15c.59,1,1.05,1.91,1.37,2.5a4.29,4.29,0,0,1,.44,1,4.71,4.71,0,0,1-.62-.85c-.36-.57-.88-1.39-1.51-2.42-1.26-2.05-3-4.91-4.82-8.08s-3.52-6-4.69-8.15c-.59-1.05-1.06-1.9-1.37-2.5A3.64,3.64,0,0,1,387.31,122.09Z"/><path class="cls-2" d="M366.37,150.7a6.63,6.63,0,0,1,.77,1.1l1.95,3.09c1.63,2.62,3.84,6.26,6.26,10.3s4.59,7.7,6.13,10.38l1.81,3.17a6.45,6.45,0,0,1,.6,1.2,6.76,6.76,0,0,1-.77-1.09l-1.95-3.1c-1.63-2.62-3.84-6.26-6.26-10.3s-4.59-7.7-6.13-10.37L367,151.9A6.45,6.45,0,0,1,366.37,150.7Z"/><path class="cls-2" d="M383.67,179.12a9.28,9.28,0,0,1,1.43-.12l3.91-.16c3.3-.15,7.86-.36,12.88-.73s9.56-.81,12.85-1.16l3.89-.4a7.37,7.37,0,0,1,1.44-.09,9.53,9.53,0,0,1-1.41.29c-.92.15-2.24.35-3.88.57-3.27.43-7.82.94-12.85,1.31s-9.6.53-12.91.57c-1.65,0-3,0-3.91,0A6.55,6.55,0,0,1,383.67,179.12Z"/><path class="cls-2" d="M418.69,111.6a5.1,5.1,0,0,1,2.24-.26l.76,0-.25.24c0-.87.14-1.49.25-1.49s.21.62.24,1.49v.24h-1A5.1,5.1,0,0,1,418.69,111.6Z"/><path class="cls-2" d="M412.69,111.6c0-.14.67-.26,1.5-.26s1.5.12,1.5.26-.67.26-1.5.26S412.69,111.74,412.69,111.6Z"/><path class="cls-2" d="M406.69,111.6c0-.14.67-.26,1.5-.26s1.5.12,1.5.26-.67.26-1.5.26S406.69,111.74,406.69,111.6Z"/><path class="cls-2" d="M400.69,111.6c0-.14.67-.26,1.5-.26s1.5.12,1.5.26-.67.26-1.5.26S400.69,111.74,400.69,111.6Z"/><path class="cls-2" d="M394.69,111.6c0-.14.67-.26,1.5-.26s1.5.12,1.5.26-.67.26-1.5.26S394.69,111.74,394.69,111.6Z"/><path class="cls-2" d="M388.69,111.6c0-.14.67-.26,1.5-.26s1.5.12,1.5.26-.67.26-1.5.26S388.69,111.74,388.69,111.6Z"/><path class="cls-2" d="M382.69,111.6c0-.14.67-.26,1.5-.26s1.5.12,1.5.26-.67.26-1.5.26S382.69,111.74,382.69,111.6Z"/><path class="cls-2" d="M376.69,111.6c0-.14.67-.26,1.5-.26s1.5.12,1.5.26-.67.26-1.5.26S376.69,111.74,376.69,111.6Z"/><path class="cls-2" d="M370.69,111.6c0-.14.67-.26,1.5-.26s1.5.12,1.5.26-.67.26-1.5.26S370.69,111.74,370.69,111.6Z"/><path class="cls-2" d="M364.69,111.6c0-.14.67-.26,1.5-.26s1.5.12,1.5.26-.67.26-1.5.26S364.69,111.74,364.69,111.6Z"/><path class="cls-2" d="M358.69,111.6c0-.14.67-.26,1.5-.26s1.5.12,1.5.26-.67.26-1.5.26S358.69,111.74,358.69,111.6Z"/><path class="cls-2" d="M352.69,111.6c0-.14.67-.26,1.5-.26s1.5.12,1.5.26-.67.26-1.5.26S352.69,111.74,352.69,111.6Z"/><path class="cls-2" d="M346.69,111.6c0-.14.67-.26,1.5-.26s1.5.12,1.5.26-.67.26-1.5.26S346.69,111.74,346.69,111.6Z"/><path class="cls-2" d="M340.69,111.6c0-.14.67-.26,1.5-.26s1.5.12,1.5.26-.67.26-1.5.26S340.69,111.74,340.69,111.6Z"/><path class="cls-2" d="M334.69,111.6c0-.14.67-.26,1.5-.26s1.5.12,1.5.26-.67.26-1.5.26S334.69,111.74,334.69,111.6Z"/><path class="cls-2" d="M328.69,111.6c0-.14.67-.26,1.5-.26s1.5.12,1.5.26-.67.26-1.5.26S328.69,111.74,328.69,111.6Z"/><path class="cls-2" d="M322.69,111.6c0-.14.67-.26,1.5-.26s1.5.12,1.5.26-.67.26-1.5.26S322.69,111.74,322.69,111.6Z"/><path class="cls-2" d="M316.69,111.6c0-.14.67-.26,1.5-.26s1.5.12,1.5.26-.67.26-1.5.26S316.69,111.74,316.69,111.6Z"/><path class="cls-2" d="M314.82,107.47c.14,0,.26.67.26,1.5s-.12,1.5-.26,1.5-.26-.67-.26-1.5S314.67,107.47,314.82,107.47Z"/><path class="cls-2" d="M314.82,101.47c.14,0,.26.67.26,1.5s-.12,1.5-.26,1.5-.26-.67-.26-1.5S314.67,101.47,314.82,101.47Z"/><path class="cls-2" d="M314.82,95.47c.14,0,.26.67.26,1.5s-.12,1.5-.26,1.5-.26-.67-.26-1.5S314.67,95.47,314.82,95.47Z"/><path class="cls-2" d="M314.82,89.47c.14,0,.26.67.26,1.5s-.12,1.5-.26,1.5-.26-.67-.26-1.5S314.67,89.47,314.82,89.47Z"/><path class="cls-2" d="M314.82,83.47c.14,0,.26.67.26,1.5s-.12,1.5-.26,1.5-.26-.67-.26-1.5S314.67,83.47,314.82,83.47Z"/><path class="cls-2" d="M314.82,77.47c.14,0,.26.67.26,1.5s-.12,1.5-.26,1.5-.26-.67-.26-1.5S314.67,77.47,314.82,77.47Z"/><path class="cls-2" d="M314.82,71.47c.14,0,.26.67.26,1.5s-.12,1.5-.26,1.5-.26-.67-.26-1.5S314.67,71.47,314.82,71.47Z"/><path class="cls-2" d="M314.82,65.47c.14,0,.26.67.26,1.5s-.12,1.5-.26,1.5-.26-.67-.26-1.5S314.67,65.47,314.82,65.47Z"/><path class="cls-2" d="M314.82,59.47c.14,0,.26.67.26,1.5s-.12,1.5-.26,1.5-.26-.67-.26-1.5S314.67,59.47,314.82,59.47Z"/><path class="cls-2" d="M314.82,53.47c.14,0,.26.67.26,1.5s-.12,1.5-.26,1.5-.26-.67-.26-1.5S314.67,53.47,314.82,53.47Z"/><path class="cls-2" d="M314.82,47.47c.14,0,.26.67.26,1.5s-.12,1.5-.26,1.5-.26-.67-.26-1.5S314.67,47.47,314.82,47.47Z"/><path class="cls-2" d="M314.82,41.47c.14,0,.26.67.26,1.5s-.12,1.5-.26,1.5-.26-.67-.26-1.5S314.67,41.47,314.82,41.47Z"/><path class="cls-2" d="M314.82,35.47c.14,0,.26.67.26,1.5s-.12,1.5-.26,1.5-.26-.67-.26-1.5S314.67,35.47,314.82,35.47Z"/><path class="cls-2" d="M314.82,29.47c.14,0,.26.67.26,1.5s-.12,1.5-.26,1.5-.26-.67-.26-1.5S314.67,29.47,314.82,29.47Z"/><path class="cls-2" d="M314.82,23.47c.14,0,.26.67.26,1.5s-.12,1.5-.26,1.5-.26-.67-.26-1.5S314.67,23.47,314.82,23.47Z"/><path class="cls-2" d="M314.82,17.47c.14,0,.26.67.26,1.5s-.12,1.5-.26,1.5-.26-.67-.26-1.5S314.67,17.47,314.82,17.47Z"/><path class="cls-2" d="M314.82,11.47c.14,0,.26.67.26,1.5s-.12,1.5-.26,1.5-.26-.67-.26-1.5S314.67,11.47,314.82,11.47Z"/><path class="cls-2" d="M314.82,5.47c.14,0,.26.67.26,1.5s-.12,1.5-.26,1.5-.26-.67-.26-1.5S314.67,5.47,314.82,5.47Z"/><path class="cls-2" d="M320.07,4.73c0,.14-.67.26-1.5.26s-1.5-.12-1.5-.26.67-.26,1.5-.26S320.07,4.58,320.07,4.73Z"/><path class="cls-2" d="M326.07,4.73c0,.14-.67.26-1.5.26s-1.5-.12-1.5-.26.67-.26,1.5-.26S326.07,4.58,326.07,4.73Z"/><path class="cls-2" d="M332.07,4.73c0,.14-.67.26-1.5.26s-1.5-.12-1.5-.26.67-.26,1.5-.26S332.07,4.58,332.07,4.73Z"/><path class="cls-2" d="M338.07,4.73c0,.14-.67.26-1.5.26s-1.5-.12-1.5-.26.67-.26,1.5-.26S338.07,4.58,338.07,4.73Z"/><path class="cls-2" d="M344.07,4.73c0,.14-.67.26-1.5.26s-1.5-.12-1.5-.26.67-.26,1.5-.26S344.07,4.58,344.07,4.73Z"/><path class="cls-2" d="M350.07,4.73c0,.14-.67.26-1.5.26s-1.5-.12-1.5-.26.67-.26,1.5-.26S350.07,4.58,350.07,4.73Z"/><path class="cls-2" d="M356.07,4.73c0,.14-.67.26-1.5.26s-1.5-.12-1.5-.26.67-.26,1.5-.26S356.07,4.58,356.07,4.73Z"/><path class="cls-2" d="M362.07,4.73c0,.14-.67.26-1.5.26s-1.5-.12-1.5-.26.67-.26,1.5-.26S362.07,4.58,362.07,4.73Z"/><path class="cls-2" d="M368.07,4.73c0,.14-.67.26-1.5.26s-1.5-.12-1.5-.26.67-.26,1.5-.26S368.07,4.58,368.07,4.73Z"/><path class="cls-2" d="M374.07,4.73c0,.14-.67.26-1.5.26s-1.5-.12-1.5-.26.67-.26,1.5-.26S374.07,4.58,374.07,4.73Z"/><path class="cls-2" d="M380.07,4.73c0,.14-.67.26-1.5.26s-1.5-.12-1.5-.26.67-.26,1.5-.26S380.07,4.58,380.07,4.73Z"/><path class="cls-2" d="M386.07,4.73c0,.14-.67.26-1.5.26s-1.5-.12-1.5-.26.67-.26,1.5-.26S386.07,4.58,386.07,4.73Z"/><path class="cls-2" d="M392.07,4.73c0,.14-.67.26-1.5.26s-1.5-.12-1.5-.26.67-.26,1.5-.26S392.07,4.58,392.07,4.73Z"/><path class="cls-2" d="M398.07,4.73c0,.14-.67.26-1.5.26s-1.5-.12-1.5-.26.67-.26,1.5-.26S398.07,4.58,398.07,4.73Z"/><path class="cls-2" d="M404.07,4.73c0,.14-.67.26-1.5.26s-1.5-.12-1.5-.26.67-.26,1.5-.26S404.07,4.58,404.07,4.73Z"/><path class="cls-2" d="M410.07,4.73c0,.14-.67.26-1.5.26s-1.5-.12-1.5-.26.67-.26,1.5-.26S410.07,4.58,410.07,4.73Z"/><path class="cls-2" d="M416.07,4.73c0,.14-.67.26-1.5.26s-1.5-.12-1.5-.26.67-.26,1.5-.26S416.07,4.58,416.07,4.73Z"/><path class="cls-2" d="M421.69,5.11c-.07,0-.13-.14-.17-.38l.17.17a6.47,6.47,0,0,1-1.12.09c-.83,0-1.5-.12-1.5-.26s.67-.26,1.5-.26a5.61,5.61,0,0,1,1.12.09l.2,0,0,.14C421.82,5,421.76,5.11,421.69,5.11Z"/><path class="cls-2" d="M421.69,11.11c-.14,0-.26-.67-.26-1.5s.12-1.5.26-1.5.26.67.26,1.5S421.83,11.11,421.69,11.11Z"/><path class="cls-2" d="M421.69,17.11c-.14,0-.26-.67-.26-1.5s.12-1.5.26-1.5.26.67.26,1.5S421.83,17.11,421.69,17.11Z"/><path class="cls-2" d="M421.69,23.11c-.14,0-.26-.67-.26-1.5s.12-1.5.26-1.5.26.67.26,1.5S421.83,23.11,421.69,23.11Z"/><path class="cls-2" d="M421.69,29.11c-.14,0-.26-.67-.26-1.5s.12-1.5.26-1.5.26.67.26,1.5S421.83,29.11,421.69,29.11Z"/><path class="cls-2" d="M421.69,35.11c-.14,0-.26-.67-.26-1.5s.12-1.5.26-1.5.26.67.26,1.5S421.83,35.11,421.69,35.11Z"/><path class="cls-2" d="M421.69,41.11c-.14,0-.26-.67-.26-1.5s.12-1.5.26-1.5.26.67.26,1.5S421.83,41.11,421.69,41.11Z"/><path class="cls-2" d="M421.69,47.11c-.14,0-.26-.67-.26-1.5s.12-1.5.26-1.5.26.67.26,1.5S421.83,47.11,421.69,47.11Z"/><path class="cls-2" d="M421.69,53.11c-.14,0-.26-.67-.26-1.5s.12-1.5.26-1.5.26.67.26,1.5S421.83,53.11,421.69,53.11Z"/><path class="cls-2" d="M421.69,59.11c-.14,0-.26-.67-.26-1.5s.12-1.5.26-1.5.26.67.26,1.5S421.83,59.11,421.69,59.11Z"/><path class="cls-2" d="M421.69,65.11c-.14,0-.26-.67-.26-1.5s.12-1.5.26-1.5.26.67.26,1.5S421.83,65.11,421.69,65.11Z"/><path class="cls-2" d="M421.69,71.11c-.14,0-.26-.67-.26-1.5s.12-1.5.26-1.5.26.67.26,1.5S421.83,71.11,421.69,71.11Z"/><path class="cls-2" d="M421.69,77.11c-.14,0-.26-.67-.26-1.5s.12-1.5.26-1.5.26.67.26,1.5S421.83,77.11,421.69,77.11Z"/><path class="cls-2" d="M421.69,83.11c-.14,0-.26-.67-.26-1.5s.12-1.5.26-1.5.26.67.26,1.5S421.83,83.11,421.69,83.11Z"/><path class="cls-2" d="M421.69,89.11c-.14,0-.26-.67-.26-1.5s.12-1.5.26-1.5.26.67.26,1.5S421.83,89.11,421.69,89.11Z"/><path class="cls-2" d="M421.69,95.11c-.14,0-.26-.67-.26-1.5s.12-1.5.26-1.5.26.67.26,1.5S421.83,95.11,421.69,95.11Z"/><path class="cls-2" d="M421.69,101.11c-.14,0-.26-.67-.26-1.5s.12-1.5.26-1.5.26.67.26,1.5S421.83,101.11,421.69,101.11Z"/><path class="cls-2" d="M421.69,107.11c-.14,0-.26-.67-.26-1.5s.12-1.5.26-1.5.26.67.26,1.5S421.83,107.11,421.69,107.11Z"/><rect class="cls-2" x="417.73" y="106.56" width="7.92" height="7.92"/><rect class="cls-2" x="310.86" y="107.64" width="7.92" height="7.92"/><rect class="cls-2" x="417.73" width="7.92" height="7.92"/><rect class="cls-2" x="310.86" y="0.77" width="7.92" height="7.92"/><path class="cls-3" d="M46.18,62.44A12.78,12.78,0,0,1,48.59,60L48,56.83l4.86-2.07,1.88,2.59a12.77,12.77,0,0,1,3.44,0L60,54.68l4.91,2-.51,3.16a12.49,12.49,0,0,1,2.46,2.41L70,61.64l2.08,4.86-2.59,1.87a13.27,13.27,0,0,1,0,3.45l2.62,1.81-2,4.9L67,78a13.07,13.07,0,0,1-2.41,2.46l.57,3.14L60.33,85.7l-1.87-2.58a12.77,12.77,0,0,1-3.44,0L53.2,85.78l-4.9-2,.51-3.15a12.78,12.78,0,0,1-2.46-2.41l-3.14.57L41.13,74l2.59-1.87a13.19,13.19,0,0,1,0-3.44l-2.62-1.82,2-4.9,3.15.51Zm5.26,5.46a5.66,5.66,0,1,0,7.37-3.15A5.67,5.67,0,0,0,51.44,67.9Z"/><path class="cls-4" d="M80.27,95.54a45.23,45.23,0,0,1,8.46-8.63l-2-11,17.05-7.27,6.57,9.07a45.62,45.62,0,0,1,12.08-.13l6.37-9.21L146,75.26,144.2,86.32a45.48,45.48,0,0,1,8.63,8.45l11-2,7.28,17-9.08,6.56a45.27,45.27,0,0,1,.13,12.09l9.22,6.36L164.49,152l-11.06-1.77a45.23,45.23,0,0,1-8.46,8.63l2,11-17.05,7.27-6.57-9.07a45.62,45.62,0,0,1-12.08.13l-6.37,9.21-17.2-6.91,1.78-11.06A45.48,45.48,0,0,1,80.87,151l-11,2L62.57,136l9.08-6.56a45.2,45.2,0,0,1-.13-12.08L62.3,111l6.91-17.2,11.06,1.77ZM98.71,114.7a19.88,19.88,0,1,0,25.87-11A19.88,19.88,0,0,0,98.71,114.7Z"/><path class="cls-2" d="M9.54,128.79a22.06,22.06,0,0,1,4.16-4.25l-1-5.43,8.39-3.58L24.33,120a22.77,22.77,0,0,1,6-.07l3.13-4.53,8.47,3.4L41,124.24a22.4,22.4,0,0,1,4.25,4.17l5.42-1,3.58,8.39L49.79,139a22.34,22.34,0,0,1,.07,6l4.53,3.13L51,156.59l-5.44-.88A22.35,22.35,0,0,1,41.39,160l1,5.43L34,169l-3.24-4.47a22.27,22.27,0,0,1-5.94.06l-3.14,4.54-8.46-3.4.87-5.44a22.4,22.4,0,0,1-4.25-4.17l-5.42,1L.83,148.69l4.46-3.23a22.35,22.35,0,0,1-.06-6L.69,136.38l3.41-8.47,5.44.88Zm9.08,9.43a9.78,9.78,0,1,0,12.73-5.44A9.78,9.78,0,0,0,18.62,138.22Z"/><path class="cls-2" d="M18.62,138.22a7.28,7.28,0,0,1,1.08-2.17,9.91,9.91,0,0,1,10-4,10,10,0,0,1,4.74,2.35,10,10,0,0,1,3,5,10,10,0,0,1-4.43,11,9.52,9.52,0,0,1-2.77,1.19,9.76,9.76,0,0,1-2.87.31,10.12,10.12,0,0,1-5.05-1.59A9.93,9.93,0,0,1,19.13,147a9.73,9.73,0,0,1-1.23-6.45,7.41,7.41,0,0,1,.72-2.31,20.72,20.72,0,0,0-.5,2.34,9.75,9.75,0,0,0,1.35,6.21,9.53,9.53,0,0,0,7.9,4.61,9.55,9.55,0,0,0,5.34-1.44A9.48,9.48,0,0,0,36.9,139.5a8.84,8.84,0,0,0-1.11-2.62,9,9,0,0,0-1.74-2.11,9.65,9.65,0,0,0-4.49-2.27,9.52,9.52,0,0,0-4.4.13,9.69,9.69,0,0,0-5.28,3.55A21.31,21.31,0,0,0,18.62,138.22Z"/><path class="cls-2" d="M9.54,128.79l-.34,0-1-.14L4.08,128l.1,0L.83,136.43l-.06-.17,4.55,3.12.08.05v.1a22.12,22.12,0,0,0,.09,5.9v.11l-.09.07L.94,148.85l.07-.24c1.13,2.64,2.34,5.44,3.6,8.39l-.24-.13,5.42-1,.14,0L10,156a22.55,22.55,0,0,0,4.21,4.11l.12.09,0,.14c-.27,1.69-.57,3.55-.87,5.45l-.15-.27,8.47,3.39-.31.09,3.13-4.54.09-.13.16,0a21.85,21.85,0,0,0,5.87-.07l.17,0,.09.13,3.24,4.47-.33-.1,8.39-3.58-.17.31c-.31-1.72-.65-3.57-1-5.43l0-.16.13-.11a21.8,21.8,0,0,0,4.11-4.19h0l.11-.13.16,0,5.45.87-.31.17L54.14,148l.09.33-4.53-3.14-.14-.09,0-.17a22.16,22.16,0,0,0-.07-5.87l0-.16.13-.1,4.47-3.23-.08.32c-1.22-2.86-2.42-5.66-3.58-8.39l.29.15-5.43,1-.15,0-.09-.12a22.11,22.11,0,0,0-4.2-4.12l-.12-.09,0-.15q.45-2.79.88-5.44l.14.26-8.45-3.42.25-.08-3.14,4.53-.07.1-.12,0a22.3,22.3,0,0,0-5.9.05l-.11,0-.07-.09L21,115.63l.2.05-8.41,3.55.07-.14c.38,2.17.7,4,1,5.43v.06l0,0a23.5,23.5,0,0,0-3.27,3c-.3.37-.54.65-.71.85s-.24.28-.24.28a1.79,1.79,0,0,1,.2-.31c.15-.2.37-.49.68-.88a22.06,22.06,0,0,1,3.22-3.13l0,.08-1-5.42,0-.09.09,0L21,115.38l.12,0,.08.1,3.24,4.46-.17-.07a22.55,22.55,0,0,1,6-.09l-.2.09,3.13-4.54.1-.14.16.06L42,118.58l.17.07,0,.19q-.42,2.66-.86,5.44l-.1-.23a22.18,22.18,0,0,1,4.3,4.2l-.24-.09,5.42-1,.21,0,.08.19c1.17,2.73,2.36,5.53,3.59,8.39l.08.2-.17.12L50,139.26l.11-.26a22.45,22.45,0,0,1,.07,6l-.12-.26,4.54,3.13.18.13-.08.2-3.4,8.47-.08.21-.22,0L45.5,156l.27-.11h0a22.86,22.86,0,0,1-4.21,4.29l.1-.27c.34,1.86.68,3.71,1,5.43l0,.22-.2.08-8.4,3.58-.2.09-.13-.18c-1.11-1.54-2.21-3.07-3.23-4.47l.26.11a23,23,0,0,1-6,.06l.26-.11c-1.09,1.57-2.17,3.12-3.14,4.53l-.12.17-.2-.08-8.46-3.41-.18-.08,0-.19c.31-1.9.61-3.76.88-5.44l.1.23a22.58,22.58,0,0,1-4.29-4.21l.22.08-5.42,1-.18,0-.07-.16-3.56-8.4-.06-.15.13-.09,4.48-3.22-.08.18a22.37,22.37,0,0,1,0-6l.06.16L.61,136.49l-.09-.06,0-.11L4,127.88l0-.07h.07l4,.7,1,.19A1.72,1.72,0,0,1,9.54,128.79Z"/><path class="cls-1" d="M320.91,352.92c-.29.88,10,40,10,40l7.06-1.47-9.7-38.53Z"/><polygon class="cls-5" points="375.62 347.33 361.5 392.92 369.74 392.92 383.27 350.56 375.62 347.33"/><polygon class="cls-1" points="388.56 340.27 372.38 392.92 380.62 392.92 396.21 343.5 388.56 340.27"/><polygon class="cls-2" points="325.91 389.68 334.15 418.21 375.62 418.21 383.27 389.68 325.91 389.68"/><path class="cls-2" d="M347.31,389.68a1.08,1.08,0,0,1-.1-.29c0-.22-.12-.51-.22-.87-.19-.8-.45-1.93-.79-3.37l-2.85-12.46C341,362.1,337.7,347.47,334,331.14l.25.2H327l.26-.31c3.68,16.34,7,31,9.36,41.58l2.76,12.5c.3,1.44.55,2.58.72,3.39.07.36.13.65.17.88s.05.3.05.3a1.08,1.08,0,0,1-.1-.29c-.05-.22-.13-.51-.22-.87-.19-.8-.47-1.93-.81-3.37-.7-3-1.69-7.21-2.92-12.46-2.42-10.58-5.78-25.21-9.52-41.55l-.07-.32h7.79l.05.21c3.59,16.34,6.82,31,9.15,41.58l2.69,12.5c.3,1.44.54,2.58.7,3.39.07.36.13.65.17.88S347.31,389.68,347.31,389.68Z"/><path class="cls-6" d="M531.85,418.26c0,.15-119.07.26-265.91.26S0,418.41,0,418.26,119,418,265.94,418,531.85,418.12,531.85,418.26Z"/><path class="cls-7" d="M248.07,388.94a18.05,18.05,0,0,0-11.22-1.29,9.32,9.32,0,0,0-5.53,2.51c-1.37,1.54-1.62,4.23,0,5.53a5.29,5.29,0,0,0,3.5.87c3-.06,6.25-.6,8.63,1.17,1.36,1,2.27,2.69,3.89,3.18a3.82,3.82,0,0,0,4.19-1.89,6.51,6.51,0,0,0,.44-4.83A7.34,7.34,0,0,0,248.07,388.94Z"/><g class="cls-8"><path class="cls-7" d="M248.07,388.94a18.05,18.05,0,0,0-11.22-1.29,9.32,9.32,0,0,0-5.53,2.51c-1.37,1.54-1.62,4.23,0,5.53a5.29,5.29,0,0,0,3.5.87c3-.06,6.25-.6,8.63,1.17,1.36,1,2.27,2.69,3.89,3.18a3.82,3.82,0,0,0,4.19-1.89,6.51,6.51,0,0,0,.44-4.83A7.34,7.34,0,0,0,248.07,388.94Z"/></g><path class="cls-7" d="M255.79,373.8c-2.07,3-6.13,2-8,.23s-2.7-4.44-3.44-6.95c-1.69-5.73-3.4-11.74-2.21-17.6a9.8,9.8,0,0,1,2.22-4.8,5.13,5.13,0,0,1,4.84-1.65c2,.53,3.33,2.53,4.26,4.42a42.05,42.05,0,0,1,4.26,18c0,2.9-.29,5.95-1.91,8.35"/><g class="cls-8"><path class="cls-7" d="M255.79,373.8c-2.07,3-6.13,2-8,.23s-2.7-4.44-3.44-6.95c-1.69-5.73-3.4-11.74-2.21-17.6a9.8,9.8,0,0,1,2.22-4.8,5.13,5.13,0,0,1,4.84-1.65c2,.53,3.33,2.53,4.26,4.42a42.05,42.05,0,0,1,4.26,18c0,2.9-.29,5.95-1.91,8.35"/></g><path class="cls-7" d="M261.55,378a10.83,10.83,0,0,1-1.76-10,19.2,19.2,0,0,1,5.86-8.61,31.83,31.83,0,0,1,10.54-6.32,11.42,11.42,0,0,1,4.75-.84,5,5,0,0,1,4,2.39c1.13,2.12.08,4.7-1.07,6.81A79.75,79.75,0,0,1,277,372.14c-2.06,2.7-4.43,5.36-7.6,6.6s-6.46,1.11-8.16-1.08"/><path class="cls-6" d="M256.22,418.74a6.35,6.35,0,0,1-.19-1.35c-.11-1-.24-2.22-.39-3.69a54,54,0,0,0-.86-5.41,42.82,42.82,0,0,0-2-6.39,23.29,23.29,0,0,0-3.3-5.76,12.17,12.17,0,0,0-4.15-3.41,11.76,11.76,0,0,0-3.49-1.06,5.85,5.85,0,0,1-1.34-.19,8,8,0,0,1,1.37,0,10.75,10.75,0,0,1,3.63.92,12.23,12.23,0,0,1,4.38,3.44,23.13,23.13,0,0,1,3.42,5.88,39.12,39.12,0,0,1,2,6.49,48.07,48.07,0,0,1,.76,5.48c.12,1.57.18,2.84.2,3.72A5.71,5.71,0,0,1,256.22,418.74Z"/><path class="cls-6" d="M256,415.9a2.69,2.69,0,0,1,0-.62c0-.48,0-1.07,0-1.8,0-1.56,0-3.82-.12-6.6-.17-5.57-.7-13.26-1.69-21.71s-2.27-16.05-3.43-21.5c-.28-1.36-.56-2.59-.82-3.67s-.46-2-.66-2.76-.32-1.29-.43-1.74a2.62,2.62,0,0,1-.11-.62,3.19,3.19,0,0,1,.22.59l.53,1.71c.24.75.48,1.67.76,2.75s.59,2.29.89,3.66a202.22,202.22,0,0,1,3.61,21.52c1,8.46,1.45,16.17,1.52,21.76.06,2.79,0,5.05-.05,6.61,0,.73-.07,1.33-.1,1.8A2.74,2.74,0,0,1,256,415.9Z"/><path class="cls-6" d="M255.82,401a11.32,11.32,0,0,1,0-1.88,50.29,50.29,0,0,1,.54-5.09,66.52,66.52,0,0,1,1.6-7.42,67.21,67.21,0,0,1,3-8.78,46.56,46.56,0,0,1,9-14.22,22.55,22.55,0,0,1,2.13-2c.32-.28.61-.56.9-.78l.83-.57a14,14,0,0,1,1.57-1,58.7,58.7,0,0,0-5.14,4.66,49.17,49.17,0,0,0-8.78,14.17,71.28,71.28,0,0,0-3.06,8.7c-.79,2.73-1.32,5.24-1.71,7.35s-.59,3.84-.72,5A14.13,14.13,0,0,1,255.82,401Z"/><rect class="cls-9" x="141.21" y="33.59" width="237.88" height="250.18"/><path class="cls-6" d="M379.09,283.78c0-1.95-.09-100.45-.23-250.19l.23.23-237.85,0h0l.26-.26c0,91.87,0,177.79,0,250.19l-.23-.23,237.88.23L141.21,284H141v-.22c0-72.4,0-158.32,0-250.19v-.26h.29l237.85,0h.23v.22C379.18,183.33,379.09,281.83,379.09,283.78Z"/><path class="cls-6" d="M240.5,211.77a6.34,6.34,0,0,1-2.5.18,6.41,6.41,0,0,1-2.49-.34,5.93,5.93,0,0,1,2.5-.18A6.19,6.19,0,0,1,240.5,211.77Z"/><path class="cls-6" d="M250.5,212.09a12.15,12.15,0,0,1-5-.16,12.15,12.15,0,0,1,5,.16Z"/><path class="cls-6" d="M260.49,212.42a6.34,6.34,0,0,1-2.5.18,6.48,6.48,0,0,1-2.5-.34,6,6,0,0,1,2.51-.18A6.19,6.19,0,0,1,260.49,212.42Z"/><path class="cls-6" d="M270.49,212.74a12.15,12.15,0,0,1-5-.16,12.15,12.15,0,0,1,5,.16Z"/><path class="cls-6" d="M280.48,213.07a12.15,12.15,0,0,1-5-.16,12.15,12.15,0,0,1,5,.16Z"/><path class="cls-6" d="M289.26,211.91c.11,0,.1.62,0,1.47l0,.2H289c-.32,0-.67,0-1,0a6.19,6.19,0,0,1-2.49-.34,6.37,6.37,0,0,1,2.5-.18c.38,0,.73,0,1,.06l-.24.2C289,212.46,289.16,211.89,289.26,211.91Z"/><path class="cls-6" d="M291.57,202.19a12.29,12.29,0,0,1-1.26,4.84,12.18,12.18,0,0,1,1.26-4.84Z"/><path class="cls-6" d="M294.6,192.66a6.38,6.38,0,0,1-.55,2.46A6.09,6.09,0,0,1,293,197.4a12.05,12.05,0,0,1,1.6-4.74Z"/><path class="cls-6" d="M298.26,183.36a6.26,6.26,0,0,1-.72,2.41,6.07,6.07,0,0,1-1.19,2.21,11.94,11.94,0,0,1,1.91-4.62Z"/><path class="cls-6" d="M302.53,174.33a6.15,6.15,0,0,1-.87,2.35,6.25,6.25,0,0,1-1.34,2.13,6.23,6.23,0,0,1,.87-2.36C301.8,175.21,302.4,174.26,302.53,174.33Z"/><path class="cls-6" d="M307.42,165.61a12.36,12.36,0,0,1-2.52,4.32,6.16,6.16,0,0,1,1-2.29C306.63,166.44,307.3,165.53,307.42,165.61Z"/><path class="cls-6" d="M312.73,157.13a6.29,6.29,0,0,1-1.1,2.26c-.72,1.18-1.41,2.07-1.53,2a6.36,6.36,0,0,1,1.09-2.26C311.92,158,312.6,157.06,312.73,157.13Z"/><path class="cls-6" d="M317.38,148.28a6.23,6.23,0,0,1-.87,2.36,6.36,6.36,0,0,1-1.34,2.12,6.15,6.15,0,0,1,.87-2.35A6.25,6.25,0,0,1,317.38,148.28Z"/><path class="cls-6" d="M321,139a6.26,6.26,0,0,1-.6,2.44,6,6,0,0,1-1.09,2.27,6.45,6.45,0,0,1,.6-2.44A6.16,6.16,0,0,1,321,139Z"/><path class="cls-6" d="M323.4,129.26a5.91,5.91,0,0,1-.24,2.5,6.15,6.15,0,0,1-.76,2.4,6.21,6.21,0,0,1,.25-2.5A6.29,6.29,0,0,1,323.4,129.26Z"/><path class="cls-6" d="M324.17,119.3a6.3,6.3,0,0,1,.18,2.5,6.43,6.43,0,0,1-.34,2.5,6.08,6.08,0,0,1-.18-2.51A6.28,6.28,0,0,1,324.17,119.3Z"/><path class="cls-6" d="M323.05,109.37a6.15,6.15,0,0,1,.66,2.43,6.16,6.16,0,0,1,.15,2.51,6.37,6.37,0,0,1-.66-2.43A6.17,6.17,0,0,1,323.05,109.37Z"/><path class="cls-6" d="M320,99.87a6.35,6.35,0,0,1,1.12,2.25,6.44,6.44,0,0,1,.63,2.43,6.1,6.1,0,0,1-1.12-2.25A6.29,6.29,0,0,1,320,99.87Z"/><path class="cls-6" d="M315.49,91A6.35,6.35,0,0,1,316.92,93a6.16,6.16,0,0,1,1,2.32,6.4,6.4,0,0,1-1.44-2.06A6.11,6.11,0,0,1,315.49,91Z"/><path class="cls-6" d="M309.64,82.86c.11-.1.89.71,1.75,1.8s1.46,2,1.34,2.12-.9-.72-1.75-1.8A6.29,6.29,0,0,1,309.64,82.86Z"/><path class="cls-6" d="M302.46,75.92a6.31,6.31,0,0,1,2,1.46c1.05.91,1.81,1.74,1.71,1.84s-1-.55-2-1.45S302.37,76,302.46,75.92Z"/><path class="cls-6" d="M294.1,70.45a6.29,6.29,0,0,1,2.29,1c1.2.7,2.1,1.37,2,1.49a11.86,11.86,0,0,1-4.31-2.54Z"/><path class="cls-6" d="M284.88,66.63a6.25,6.25,0,0,1,2.44.61,6.32,6.32,0,0,1,2.26,1.09,11.88,11.88,0,0,1-4.7-1.7Z"/><path class="cls-6" d="M275.13,64.43a6.32,6.32,0,0,1,2.51.2,6.18,6.18,0,0,1,2.41.71,12.17,12.17,0,0,1-4.92-.91Z"/><path class="cls-6" d="M265.17,63.67a6.28,6.28,0,0,1,2.51-.15,6,6,0,0,1,2.48.37,6.34,6.34,0,0,1-2.51.15A6.11,6.11,0,0,1,265.17,63.67Z"/><path class="cls-6" d="M255.19,64.14a6.37,6.37,0,0,1,2.47-.47,6.27,6.27,0,0,1,2.51,0,6.12,6.12,0,0,1-2.47.48A6.46,6.46,0,0,1,255.19,64.14Z"/><path class="cls-6" d="M245.38,66a6.28,6.28,0,0,1,2.38-.81,6.17,6.17,0,0,1,2.5-.3,6.45,6.45,0,0,1-2.38.81A6.37,6.37,0,0,1,245.38,66Z"/><path class="cls-6" d="M236,69.3a6.1,6.1,0,0,1,2.23-1.15,6,6,0,0,1,2.42-.67A12.2,12.2,0,0,1,236,69.3Z"/><path class="cls-6" d="M227.19,74.09c-.08-.12.81-.8,2-1.52a6.26,6.26,0,0,1,2.27-1.07c.07.13-.83.81-2,1.52A6.24,6.24,0,0,1,227.19,74.09Z"/><path class="cls-6" d="M219.48,80.44c-.1-.1.65-.94,1.68-1.88s1.93-1.6,2-1.49-.66,1-1.67,1.88S219.59,80.54,219.48,80.44Z"/><path class="cls-6" d="M213.2,88.2A6.08,6.08,0,0,1,214.46,86c.82-1.13,1.57-2,1.69-1.87a6.41,6.41,0,0,1-1.27,2.17C214.08,87.44,213.32,88.28,213.2,88.2Z"/><path class="cls-6" d="M208.55,97a5.58,5.58,0,0,1,.8-2.39c.6-1.25,1.19-2.21,1.32-2.14a6.07,6.07,0,0,1-.85,2.36C209.2,96.1,208.69,97.1,208.55,97Z"/><path class="cls-6" d="M205.16,106.44a6.13,6.13,0,0,1,.53-2.45,6.32,6.32,0,0,1,1-2.3,6.13,6.13,0,0,1-.53,2.46A6.05,6.05,0,0,1,205.16,106.44Z"/><path class="cls-7" d="M258.37,211.65a52.82,52.82,0,0,1-6.91-9.61,17.42,17.42,0,0,1-1.93-11.46c.84-3.87,3.76-7.4,7.63-8.24,3-.64,6.32.25,8.92-1.31a8.06,8.06,0,0,0,3.32-5.46c.43-2.15.41-4.37.81-6.52,1.47-7.91,8.86-14,16.83-15S303.17,156.38,309,162c0,0-18.09,33.47-19.94,51.39Z"/><path class="cls-6" d="M270.38,211.13s-.05-.29-.12-.84-.16-1.41-.28-2.47c-.23-2.21-.56-5.4-1-9.51-.78-8.25-2-20.21-2.44-35.06-.1-3.71-.17-7.6-.12-11.65s.09-8.27.54-12.64a35.38,35.38,0,0,1,3.62-13.07,20,20,0,0,1,10.57-9.61,13.51,13.51,0,0,1,14.25,3.44,10,10,0,0,1,2.73,7.38,12.87,12.87,0,0,1-3.06,7.44,17.33,17.33,0,0,1-6.61,4.83,33.79,33.79,0,0,1-8,2.23,95.23,95.23,0,0,1-16.78,1.13A96.81,96.81,0,0,1,247,141.1a31.45,31.45,0,0,1-7.84-2.68,20.4,20.4,0,0,1-6.43-5.06,15.5,15.5,0,0,1-3.5-7.25,12,12,0,0,1,1.32-7.78,10.72,10.72,0,0,1,5.79-5.12,9.56,9.56,0,0,1,7.51.72,14.26,14.26,0,0,1,5.38,5,19.63,19.63,0,0,1,2.49,6.72c.86,4.65.61,9.2.68,13.55,0,8.72.06,16.84.09,24.26,0,14.81,0,26.81.07,35.14,0,4.12,0,7.33,0,9.55,0,1.07,0,1.89,0,2.49s0,.84,0,.84,0-.28,0-.84,0-1.42-.06-2.49c0-2.22-.07-5.43-.13-9.55-.08-8.33-.19-20.32-.33-35.13-.06-7.42-.12-15.55-.19-24.27-.09-4.35.14-8.89-.71-13.41a18.73,18.73,0,0,0-2.41-6.46,13.45,13.45,0,0,0-5.1-4.77,8.77,8.77,0,0,0-6.91-.65,9.84,9.84,0,0,0-5.34,4.75A11.11,11.11,0,0,0,230,126a14.7,14.7,0,0,0,3.32,6.87c3.37,4.08,8.52,6.37,13.83,7.46a97.48,97.48,0,0,0,16.59,1.61,94.31,94.31,0,0,0,16.62-1.12,33.26,33.26,0,0,0,7.79-2.16,16.46,16.46,0,0,0,6.31-4.6,12.12,12.12,0,0,0,2.9-7,9.24,9.24,0,0,0-2.52-6.81A12.73,12.73,0,0,0,281.41,117a19.28,19.28,0,0,0-10.18,9.23A34.48,34.48,0,0,0,267.65,139c-.46,4.31-.5,8.53-.58,12.57s0,7.92.06,11.63c.39,14.82,1.49,26.78,2.18,35,.36,4.1.64,7.3.83,9.51.09,1.07.15,1.89.2,2.48S270.38,211.13,270.38,211.13Z"/><path class="cls-6" d="M235.52,210.83s0,.2,0,.58,0,1,0,1.69c0,1.51,0,3.68-.06,6.42-.08,5.58-.19,13.51-.33,23.07l0-.13,16.65,21.47-.2-.1,9.94,0,10.68,0-.19.08,16.33-18-.06.14c.26-10.16.48-18.63.63-24.59.09-3,.16-5.27.21-6.89l.07-1.81,0-.47c0-.1,0-.15,0-.15s0,0,0,.15v2.28c0,1.63-.05,4-.09,6.89-.11,6-.26,14.44-.44,24.6v.09l0,.06-16.28,18-.07.08h-.12l-10.67.05-9.95,0h-.13l-.08-.1-16.59-21.53-.05-.06v-.07c.22-9.57.39-17.5.52-23.07.07-2.75.13-4.91.17-6.42,0-.72.05-1.28.07-1.69A5.3,5.3,0,0,1,235.52,210.83Z"/><path class="cls-6" d="M287.17,243.17a11.06,11.06,0,0,1-1.91-.92c-1.21-.62-3-1.47-5.24-2.37a52,52,0,0,0-37-.66,57.17,57.17,0,0,0-5.32,2.18,11,11,0,0,1-1.94.85,9.06,9.06,0,0,1,1.79-1.13,44.52,44.52,0,0,1,5.26-2.45,49.44,49.44,0,0,1,37.43.68,42.89,42.89,0,0,1,5.17,2.62A10,10,0,0,1,287.17,243.17Z"/><path class="cls-6" d="M287.56,234.94a11.06,11.06,0,0,1-1.91-.92c-1.21-.62-3-1.47-5.24-2.37a52,52,0,0,0-37-.66,57.17,57.17,0,0,0-5.32,2.18,11,11,0,0,1-1.94.85,9.24,9.24,0,0,1,1.8-1.14,45.34,45.34,0,0,1,5.25-2.44,49.5,49.5,0,0,1,37.43.67,44.2,44.2,0,0,1,5.17,2.63A10,10,0,0,1,287.56,234.94Z"/><path class="cls-6" d="M287.45,227.09a10.81,10.81,0,0,1-1.91-.91,57.51,57.51,0,0,0-5.24-2.38,52,52,0,0,0-37-.66c-2.28.81-4.09,1.6-5.32,2.18a11,11,0,0,1-1.94.85,9.4,9.4,0,0,1,1.8-1.13,43,43,0,0,1,5.26-2.45,49.44,49.44,0,0,1,37.43.68,41.27,41.27,0,0,1,5.17,2.63A9.49,9.49,0,0,1,287.45,227.09Z"/><path class="cls-6" d="M272.9,264.67a21.58,21.58,0,0,0-2.44-2.78,12.16,12.16,0,0,0-16.22-.26,21.5,21.5,0,0,0-2.53,2.71,2.85,2.85,0,0,1,.48-.9,10.63,10.63,0,0,1,1.81-2.09,12.12,12.12,0,0,1,16.71.26,10.78,10.78,0,0,1,1.74,2.15A3,3,0,0,1,272.9,264.67Z"/><path class="cls-1" d="M162.25,19.79,123.71,54.71l4.91,1.68.27,5.48s7,.64,6.16.7c-.67,0,.41,6.28.41,6.28l39.66-38.51-6-.36V24.71l-6.26-.07Z"/><polygon class="cls-2" points="141.21 63.27 171.76 33.59 181.16 33.59 141.21 63.27"/><path class="cls-1" d="M388.14,62,353.45,21.33l-1.68,5.17-5.44.29s-.63,7.41-.7,6.5c-.05-.71-6.24.43-6.24.43l38.27,41.81L378,69.2h5.23l.07-6.6Z"/><polygon class="cls-2" points="363.6 33.59 379.09 51.39 379.09 44.32 363.6 33.59"/><path class="cls-7" d="M483.21,409.57l1.7,7.16s11.71,15.2,15.32,14.46c2.36-.49-.55-4.46-5-16l-.93-4.77Z"/><path class="cls-6" d="M500.7,428.94a.67.67,0,0,1-.09.22,1.28,1.28,0,0,1-.49.45,1.91,1.91,0,0,1-1,.23,2.8,2.8,0,0,1-1.33-.48,57,57,0,0,1-5.9-5.5,75.36,75.36,0,0,1-5.23-6.13c-.62-.82-1.11-1.5-1.44-2l-.37-.55c-.09-.13-.13-.2-.12-.2s.06.05.15.17l.41.52,1.5,1.93c1.28,1.61,3.1,3.8,5.27,6.07a65.06,65.06,0,0,0,5.82,5.52,2.18,2.18,0,0,0,2.24.32A1.48,1.48,0,0,0,500.7,428.94Z"/><path class="cls-6" d="M499,424.05s-.37,0-.94.05a5.64,5.64,0,0,0-2.11.8,4.38,4.38,0,0,0-1.58,1.58c-.28.51-.35.87-.39.86a2,2,0,0,1,.25-.94,4.09,4.09,0,0,1,1.6-1.7,5.11,5.11,0,0,1,2.21-.76A1.89,1.89,0,0,1,499,424.05Z"/><path class="cls-6" d="M488,420.49s.13-.52.22-1.35a5.51,5.51,0,0,0-.59-3.13,5.11,5.11,0,0,0-2.24-2.26,7.63,7.63,0,0,0-1.26-.46s.13,0,.37,0a3.76,3.76,0,0,1,1,.29,5.05,5.05,0,0,1,2.38,2.3,5.33,5.33,0,0,1,.54,3.26,6.89,6.89,0,0,1-.23,1A1.08,1.08,0,0,1,488,420.49Z"/><path class="cls-6" d="M484,410.78a7.37,7.37,0,0,1,.65,2.25c.21,1.26.44,2.27.39,2.29a7.66,7.66,0,0,1-.62-2.25C484.16,411.8,483.89,410.8,484,410.78Z"/><path class="cls-6" d="M495.44,416.19c0,.07-.67.05-1.45.24s-1.37.48-1.41.42a3.45,3.45,0,0,1,2.86-.66Z"/><path class="cls-6" d="M495.68,417.42c0,.07-.56,0-1.21.17s-1.13.45-1.16.39a1.77,1.77,0,0,1,1.1-.62A1.74,1.74,0,0,1,495.68,417.42Z"/><path class="cls-6" d="M496.61,419a5.68,5.68,0,0,0-1.26,0,5.82,5.82,0,0,0-1.15.51,1.87,1.87,0,0,1,2.41-.55Z"/><path class="cls-6" d="M494.63,415.68a1.62,1.62,0,0,1-.39,0,9.47,9.47,0,0,1-1-.28,9.66,9.66,0,0,1-1.45-.65,8.88,8.88,0,0,1-.81-.5,1.17,1.17,0,0,1-.58-.9.69.69,0,0,1,.89-.56,1.86,1.86,0,0,1,.82.55c.42.42.78.82,1.07,1.17a10.22,10.22,0,0,1,.64.86,1.45,1.45,0,0,1,.2.34s-.36-.43-1-1.09c-.3-.34-.67-.72-1.1-1.13a1.64,1.64,0,0,0-.72-.48c-.27-.07-.61.08-.61.35s.25.53.48.71.53.35.78.49a9.85,9.85,0,0,0,1.41.68C494.09,415.53,494.64,415.64,494.63,415.68Z"/><path class="cls-6" d="M494,415.53s0-.13,0-.36a8.38,8.38,0,0,1,.07-1,4.77,4.77,0,0,1,.37-1.41,2.71,2.71,0,0,1,.46-.75.78.78,0,0,1,.93-.3.89.89,0,0,1,.33.93,3.24,3.24,0,0,1-.26.85,4.43,4.43,0,0,1-.83,1.2,5.4,5.4,0,0,1-.75.63c-.19.14-.3.19-.31.18s.4-.32.94-.92a4.71,4.71,0,0,0,.76-1.18,3.33,3.33,0,0,0,.22-.78c0-.27,0-.59-.21-.71s-.48.05-.65.25a2.53,2.53,0,0,0-.44.69,5.34,5.34,0,0,0-.4,1.35A9.82,9.82,0,0,1,494,415.53Z"/><g class="cls-10"><path d="M484.91,416.73l-.82-3.44s2.86.53,3.61,2.67a9.13,9.13,0,0,1,.56,3.68l6.23,6.71s1.57-3.05,4.4-2.32c0,0,2.23,4.9,2.16,6.13s-1.5,1.08-2,.85a25.25,25.25,0,0,1-5.58-4.4C490.16,423.18,486.51,418.83,484.91,416.73Z"/></g><path class="cls-7" d="M425,413.19l-.06-9.55,17.88-.22.23,14-1.11.08c-4.93.34-25.09,1.35-28.4.39C409.87,416.79,425,413.19,425,413.19Z"/><g class="cls-10"><path d="M436.58,417.33a6.18,6.18,0,0,1,2.24-3.84,6,6,0,0,1,4.16-1.35l.07,5Z"/></g><path class="cls-11" d="M417.62,415.21s-5.31,1.6-4.63,2.47,21.08.61,30.08-.29l0-.4-23.81.5S418.66,415.24,417.62,415.21Z"/><path class="cls-6" d="M443.32,417l-.31,0-.88.07-3.25.18c-2.74.13-6.54.26-10.73.32s-8,0-10.73,0l-3.25-.1-.89,0-.3,0h1.19l3.25,0c2.75,0,6.54,0,10.73,0s8-.17,10.72-.27l3.25-.11.89,0A2.46,2.46,0,0,1,443.32,417Z"/><path class="cls-6" d="M419.24,417.77a7.84,7.84,0,0,0-.63-1.54,7.26,7.26,0,0,0-1.12-1.23,2.35,2.35,0,0,1,1.3,1.11A2.42,2.42,0,0,1,419.24,417.77Z"/><path class="cls-6" d="M424.48,415c-.05,0-.31-.27-.58-.68s-.44-.76-.39-.8.31.27.58.68S424.53,415,424.48,415Z"/><path class="cls-6" d="M425.91,414.24c0,.05-.32-.14-.63-.41s-.53-.53-.49-.57.32.14.63.41S426,414.2,425.91,414.24Z"/><path class="cls-6" d="M426.81,412.55a2.27,2.27,0,0,1-.93.13,2.11,2.11,0,0,1-.94-.09,2.09,2.09,0,0,1,.93-.13A2.11,2.11,0,0,1,426.81,412.55Z"/><path class="cls-6" d="M427.11,411.35a1.81,1.81,0,0,1-1,.32,2,2,0,0,1-1.08-.13,113.72,113.72,0,0,0,2.12-.19Z"/><path class="cls-6" d="M423.85,413.48a3.49,3.49,0,0,1-1.15,0,5.88,5.88,0,0,1-1.22-.25,3.36,3.36,0,0,1-.71-.28.64.64,0,0,1-.29-.35.44.44,0,0,1,.17-.46,2.14,2.14,0,0,1,3,1.34c.05.2.05.31,0,.31a3.23,3.23,0,0,0-.53-1,2.07,2.07,0,0,0-1-.63,1.81,1.81,0,0,0-1.37.11c-.18.14-.11.35.1.47a3.42,3.42,0,0,0,.65.27,7.44,7.44,0,0,0,1.18.29C423.41,413.45,423.85,413.44,423.85,413.48Z"/><path class="cls-6" d="M423.55,413.54a1.18,1.18,0,0,1-.14-.8,2.09,2.09,0,0,1,.3-.84,1.17,1.17,0,0,1,1-.6.45.45,0,0,1,.36.53,1.15,1.15,0,0,1-.18.51,3.21,3.21,0,0,1-.54.7,1.68,1.68,0,0,1-.65.48s.23-.21.54-.58a4.57,4.57,0,0,0,.47-.69c.16-.25.26-.69,0-.74s-.58.27-.75.5a1.85,1.85,0,0,0-.32.75A4.79,4.79,0,0,0,423.55,413.54Z"/><path class="cls-6" d="M442.89,412.09s-.51,0-1.32.06a5.59,5.59,0,0,0-4.64,3.79c-.26.77-.28,1.29-.32,1.28a1.12,1.12,0,0,1,0-.36,4.07,4.07,0,0,1,.18-1,5.44,5.44,0,0,1,4.76-3.9,4.46,4.46,0,0,1,1,0C442.77,412,442.89,412.07,442.89,412.09Z"/><path class="cls-6" d="M440.94,404.67a31,31,0,0,1,.2,3.67,32.5,32.5,0,0,1,0,3.68,31.23,31.23,0,0,1-.2-3.67A29.84,29.84,0,0,1,440.94,404.67Z"/><path class="cls-6" d="M434.31,415.61a9.9,9.9,0,0,1-2.6.29,10.31,10.31,0,0,1-2.62-.17c0-.07,1.17,0,2.61,0S434.3,415.55,434.31,415.61Z"/><path class="cls-6" d="M437.82,415.56s-.1.25-.21.52-.18.51-.24.5-.1-.28,0-.59S437.78,415.52,437.82,415.56Z"/><path class="cls-6" d="M439.12,413.9s-.07.23-.26.42-.36.31-.41.27.07-.23.26-.42S439.07,413.86,439.12,413.9Z"/><path class="cls-6" d="M441,413.13c0,.06-.25.06-.51.15s-.45.24-.5.2.1-.29.42-.4S441,413.07,441,413.13Z"/><path class="cls-6" d="M442.34,412.75c0,.06-.08.15-.23.21s-.29.07-.31,0,.08-.15.23-.21S442.31,412.7,442.34,412.75Z"/><polyline class="cls-12" points="415.39 229.66 421.2 409.07 449.04 409.66 444.41 254.4 475.73 410.84 502.2 410.84 466.85 223.62"/><polygon class="cls-6" points="474.35 408.32 474.99 411.06 502.2 411.43 501.79 407.14 474.35 408.32"/><path class="cls-6" d="M444.23,408c.16,0,.31.36.33.81s-.08.84-.24.84-.31-.35-.33-.81S444.07,408.05,444.23,408Z"/><path class="cls-6" d="M444,401.33c.16,0,.31.74.35,1.67s-.07,1.68-.23,1.69-.31-.74-.35-1.67S443.8,401.33,444,401.33Z"/><path class="cls-6" d="M443.76,394.61c.16,0,.31.74.33,1.67S444,398,443.85,398s-.31-.75-.33-1.68S443.6,394.61,443.76,394.61Z"/><path class="cls-6" d="M443.59,387.88c.16,0,.31.75.33,1.68s-.09,1.68-.25,1.69-.3-.75-.32-1.68S443.43,387.89,443.59,387.88Z"/><path class="cls-6" d="M443.43,381.16c.16,0,.31.74.33,1.67s-.09,1.69-.25,1.69-.3-.74-.33-1.67S443.27,381.16,443.43,381.16Z"/><path class="cls-6" d="M443.24,374.43c.16,0,.31.74.34,1.67s-.08,1.69-.24,1.69-.31-.74-.34-1.67S443.08,374.44,443.24,374.43Z"/><path class="cls-6" d="M443,367.71c.16,0,.32.74.36,1.67s-.06,1.68-.22,1.69-.32-.74-.35-1.67S442.82,367.72,443,367.71Z"/><path class="cls-6" d="M442.71,361c.16,0,.32.74.35,1.67s-.06,1.68-.22,1.69-.32-.74-.35-1.67S442.55,361,442.71,361Z"/><path class="cls-6" d="M442.46,354.27c.16,0,.32.74.35,1.67s-.07,1.69-.23,1.69-.31-.74-.34-1.67S442.31,354.28,442.46,354.27Z"/><path class="cls-6" d="M442.25,347.55c.16,0,.31.74.34,1.67s-.08,1.69-.24,1.69-.31-.74-.33-1.67S442.09,347.55,442.25,347.55Z"/><path class="cls-6" d="M442.07,340.83c.16,0,.31.75.33,1.67s-.08,1.69-.24,1.69-.31-.74-.33-1.67S441.91,340.83,442.07,340.83Z"/><path class="cls-6" d="M441.92,334.11c.16,0,.31.74.33,1.67s-.1,1.69-.26,1.69-.3-.75-.32-1.68S441.77,334.11,441.92,334.11Z"/><path class="cls-6" d="M441.81,327.38c.16,0,.3.75.32,1.68s-.11,1.68-.27,1.69-.3-.75-.31-1.68S441.65,327.39,441.81,327.38Z"/><path class="cls-6" d="M441.73,320.66c.16,0,.3.75.31,1.68s-.11,1.68-.27,1.68-.3-.75-.31-1.67S441.58,320.66,441.73,320.66Z"/><path class="cls-6" d="M441.69,313.94c.16,0,.29.75.3,1.68s-.12,1.68-.28,1.68-.29-.75-.3-1.68S441.53,313.94,441.69,313.94Z"/><path class="cls-6" d="M441.69,307.21c.16,0,.29.76.28,1.68s-.13,1.69-.28,1.69-.29-.76-.29-1.69S441.53,307.21,441.69,307.21Z"/><path class="cls-6" d="M441.72,300.49c.16,0,.28.75.28,1.68s-.14,1.68-.3,1.68-.28-.75-.28-1.68S441.56,300.49,441.72,300.49Z"/><path class="cls-6" d="M441.79,293.77c.16,0,.28.75.27,1.68s-.15,1.68-.31,1.68-.28-.76-.27-1.69S441.63,293.76,441.79,293.77Z"/><path class="cls-6" d="M441.89,287c.16,0,.28.76.26,1.69s-.15,1.68-.31,1.67-.28-.75-.26-1.68S441.73,287,441.89,287Z"/><path class="cls-6" d="M442,280.32c.16,0,.27.76.25,1.69s-.16,1.68-.32,1.67-.27-.76-.25-1.69S441.87,280.31,442,280.32Z"/><path class="cls-6" d="M442.24,273.59c.16,0,.26.76.23,1.69s-.19,1.68-.35,1.67-.26-.76-.23-1.69S442.08,273.58,442.24,273.59Z"/><path class="cls-6" d="M442.59,266.87c.16,0,.25.77.19,1.7s-.23,1.67-.39,1.66-.24-.77-.18-1.7S442.44,266.86,442.59,266.87Z"/><path class="cls-6" d="M443.18,260.17c.16,0,.22.78.13,1.7s-.3,1.66-.46,1.65-.21-.78-.12-1.7S443,260.15,443.18,260.17Z"/><path class="cls-6" d="M443.82,255.2c.16,0,.24.41.17.86s-.24.8-.4.78-.23-.41-.17-.86S443.67,255.17,443.82,255.2Z"/><polygon class="cls-6" points="420.47 409.97 449.91 410.45 449.68 405.55 420.47 405.7 420.47 409.97"/><path class="cls-6" d="M496.65,405.63c.16,0,.35.32.42.78s0,.83-.15.86-.35-.32-.42-.77S496.5,405.66,496.65,405.63Z"/><path class="cls-6" d="M495.6,399.19c.16,0,.4.67.55,1.56s.13,1.63,0,1.66-.41-.67-.55-1.56S495.44,399.21,495.6,399.19Z"/><path class="cls-6" d="M494.53,392.74c.16,0,.41.68.56,1.57s.13,1.63,0,1.66-.41-.68-.55-1.57S494.38,392.77,494.53,392.74Z"/><path class="cls-6" d="M493.46,386.3c.16,0,.41.67.55,1.56s.15,1.64,0,1.66-.41-.67-.55-1.56S493.3,386.33,493.46,386.3Z"/><path class="cls-6" d="M492.38,379.86c.15,0,.4.67.55,1.56s.15,1.63,0,1.66-.4-.67-.55-1.56S492.22,379.89,492.38,379.86Z"/><path class="cls-6" d="M491.28,373.42c.16,0,.41.67.56,1.56s.15,1.63,0,1.66-.4-.67-.56-1.56S491.13,373.45,491.28,373.42Z"/><path class="cls-6" d="M490.18,367c.16,0,.41.67.56,1.56s.15,1.63,0,1.66-.4-.67-.56-1.56S490,367,490.18,367Z"/><path class="cls-6" d="M489.07,360.55c.15,0,.4.67.56,1.56s.15,1.63,0,1.65-.4-.67-.56-1.56S488.91,360.57,489.07,360.55Z"/><path class="cls-6" d="M487.94,354.11c.16,0,.41.67.57,1.56s.15,1.63,0,1.66-.41-.67-.56-1.56S487.78,354.14,487.94,354.11Z"/><path class="cls-6" d="M486.81,347.68c.15,0,.41.67.56,1.56s.16,1.63,0,1.66-.42-.67-.57-1.56S486.65,347.71,486.81,347.68Z"/><path class="cls-6" d="M485.66,341.25c.16,0,.41.67.57,1.56s.16,1.63,0,1.66-.42-.67-.57-1.56S485.51,341.28,485.66,341.25Z"/><path class="cls-6" d="M484.51,334.82c.16,0,.41.67.57,1.56s.16,1.63,0,1.66-.42-.67-.58-1.56S484.35,334.85,484.51,334.82Z"/><path class="cls-6" d="M483.34,328.39c.16,0,.42.67.58,1.56s.16,1.63,0,1.66-.42-.67-.58-1.56S483.19,328.42,483.34,328.39Z"/><path class="cls-6" d="M482.17,322c.16,0,.41.67.58,1.55s.16,1.63,0,1.66-.42-.67-.58-1.55S482,322,482.17,322Z"/><path class="cls-6" d="M481,315.55c.15,0,.41.66.58,1.55s.17,1.63,0,1.66-.42-.67-.58-1.56S480.83,315.57,481,315.55Z"/><path class="cls-6" d="M479.79,309.12c.16,0,.42.67.58,1.56s.18,1.63,0,1.65-.42-.66-.58-1.55S479.64,309.15,479.79,309.12Z"/><path class="cls-6" d="M478.59,302.7c.15,0,.42.67.58,1.56s.18,1.62,0,1.65-.42-.66-.58-1.55S478.43,302.73,478.59,302.7Z"/><path class="cls-6" d="M477.37,296.29c.16,0,.42.66.59,1.55s.18,1.63,0,1.66-.42-.67-.59-1.56S477.22,296.32,477.37,296.29Z"/><path class="cls-6" d="M476.15,289.87c.15,0,.42.66.59,1.55s.18,1.63,0,1.66-.42-.67-.59-1.55S476,289.9,476.15,289.87Z"/><path class="cls-6" d="M474.91,283.46c.16,0,.42.66.6,1.55s.18,1.62,0,1.65-.42-.66-.59-1.55S474.76,283.49,474.91,283.46Z"/><path class="cls-6" d="M473.67,277.05c.16,0,.42.66.59,1.54s.19,1.63,0,1.66-.42-.66-.59-1.55S473.51,277.08,473.67,277.05Z"/><path class="cls-6" d="M472.42,270.64c.15,0,.42.66.59,1.54s.19,1.63,0,1.66-.42-.66-.59-1.55S472.26,270.67,472.42,270.64Z"/><path class="cls-6" d="M471.15,264.23c.16,0,.42.66.6,1.54s.19,1.63,0,1.66-.42-.66-.59-1.54S471,264.26,471.15,264.23Z"/><path class="cls-6" d="M469.88,257.82c.15,0,.42.66.6,1.55s.19,1.62,0,1.65-.42-.66-.6-1.54S469.72,257.85,469.88,257.82Z"/><path class="cls-6" d="M468.59,251.42c.16,0,.43.66.61,1.54s.19,1.63,0,1.66-.43-.66-.61-1.54S468.44,251.45,468.59,251.42Z"/><path class="cls-6" d="M467.3,245c.15,0,.42.65.6,1.54s.2,1.62.05,1.66-.43-.66-.61-1.55S467.14,245.05,467.3,245Z"/><path class="cls-6" d="M466.31,240.19c.16,0,.36.31.45.75s0,.84-.11.87-.36-.3-.45-.75S466.16,240.22,466.31,240.19Z"/><path class="cls-13" d="M358.56,196s16.9,22.21,27.23,17.2,28.85-22,28.85-22l-13-13.06-17.23,19.23-22-10.66Z"/><path class="cls-13" d="M452.1,154.05l-17.19-1.37c-.1-2,0-9.77,0-9.77s-7.15-1.11-7.24-8.26,1.15-23.57,1.15-23.57h0a24.83,24.83,0,0,1,25,3.14l1.06.81Z"/><path class="cls-6" d="M430.51,123.37a1,1,0,1,0-1.47-.07A1.05,1.05,0,0,0,430.51,123.37Z"/><path class="cls-6" d="M428.77,121.73c.11.13.82-.41,1.8-.42s1.7.51,1.81.38-.06-.28-.37-.52a2.44,2.44,0,0,0-2.88,0C428.82,121.45,428.72,121.68,428.77,121.73Z"/><path class="cls-6" d="M440.12,122.59a1,1,0,1,0,1.43.34A1,1,0,0,0,440.12,122.59Z"/><path class="cls-6" d="M439.47,122.6c.11.13.81-.41,1.8-.42s1.7.51,1.81.38-.06-.28-.37-.52a2.45,2.45,0,0,0-1.45-.45,2.3,2.3,0,0,0-1.43.49C439.52,122.32,439.42,122.55,439.47,122.6Z"/><path class="cls-6" d="M435.52,130.73a4.68,4.68,0,0,0-1.59-.34c-.26,0-.46-.09-.48-.23a1.34,1.34,0,0,1,.18-.73c.26-.65.51-1.31.78-2a28,28,0,0,0,1.69-5.26,26.31,26.31,0,0,0-2.21,5.06c-.26.69-.5,1.36-.74,2a1.72,1.72,0,0,0-.14,1.08.68.68,0,0,0,.44.41,1.48,1.48,0,0,0,.44.05A5.06,5.06,0,0,0,435.52,130.73Z"/><path class="cls-14" d="M438.72,131.82a18.77,18.77,0,0,1-4.83,1.4,2.71,2.71,0,0,0,3.21,1.08C439.24,133.52,438.72,131.82,438.72,131.82Z"/><path class="cls-15" d="M434.94,142.81a16.59,16.59,0,0,0,9.32-2.65s-2.2,5.14-9.34,4.5Z"/><path class="cls-6" d="M428.71,112.88s4.19,2.42,10,0c3.84-1.58,8.23-2.16,9.13-1.35s.81,4.65,4.4,6c0,0-.79,7.27,2.13,7.22s1.95-11.46,1.95-11.46l-6.85-4-7.65-2-7.38.49-5.77,1.13Z"/><path class="cls-13" d="M454,122.44c.12,0,4.91-1.45,4.76,3.43s-5,3.73-5,3.59S454,122.44,454,122.44Z"/><path class="cls-15" d="M455.28,127.65s.09.07.23.14a.82.82,0,0,0,.63,0,2.09,2.09,0,0,0,1-1.86,2.75,2.75,0,0,0-.2-1.23,1,1,0,0,0-.62-.67.43.43,0,0,0-.51.22c-.07.13,0,.23-.07.24s-.1-.09,0-.29a.53.53,0,0,1,.2-.3.66.66,0,0,1,.47-.11,1.21,1.21,0,0,1,.87.79,2.89,2.89,0,0,1,.25,1.37,2.21,2.21,0,0,1-1.31,2.07.89.89,0,0,1-.77-.15C455.29,127.77,455.27,127.66,455.28,127.65Z"/><path class="cls-6" d="M433.56,120.13c-.16.28-1.09.05-2.21,0s-2.08.09-2.21-.21.83-1,2.26-.94S433.73,119.87,433.56,120.13Z"/><path class="cls-6" d="M444.53,120.13c-.16.28-1.09.05-2.21,0s-2.08.09-2.21-.21.83-1,2.26-.94S444.7,119.87,444.53,120.13Z"/><path class="cls-6" d="M449.67,112.58a17.19,17.19,0,0,0,2.84,3.29,5.67,5.67,0,0,0,4,1.41,3.45,3.45,0,0,0,3.09-2.63,2.5,2.5,0,0,0-2.43-2.9,1.52,1.52,0,1,0-.53-2.81c1.25-.07,1.64-2,.77-2.9a3.67,3.67,0,0,0-3.54-.6,21.44,21.44,0,0,1-3.62,1c-2,.17-3.82-.88-5.38-2.08a23,23,0,0,0-4.82-3.37,11,11,0,0,0-7.11-.16,11.38,11.38,0,0,0-5.21,2.86,6.67,6.67,0,0,0-2,5.46,4.76,4.76,0,0,0,3.84,4.07A13,13,0,0,0,438,112c4-2.23,11.61-.88,11.61-.88Z"/><path class="cls-12" d="M457.13,107.83a1,1,0,0,1-.31.18,8.63,8.63,0,0,1-.94.42,15.7,15.7,0,0,1-3.66.94,16.87,16.87,0,0,1-5.6-.2,41.22,41.22,0,0,1-6.47-2.24,14.19,14.19,0,0,0-6.52-1.22,6.37,6.37,0,0,0-4.61,2.46,4.77,4.77,0,0,0-.81,3.45,8.49,8.49,0,0,0,.39,1.3s-.09-.09-.22-.29a3.38,3.38,0,0,1-.37-1,4.83,4.83,0,0,1,.71-3.7,6.67,6.67,0,0,1,4.86-2.73,14.3,14.3,0,0,1,6.76,1.21,42.79,42.79,0,0,0,6.38,2.26,17.4,17.4,0,0,0,5.46.3A25,25,0,0,0,457.13,107.83Z"/><path class="cls-12" d="M458.33,115.57c.05,0-.17.49-.77,1a5.09,5.09,0,0,1-2.84,1.2,5,5,0,0,1-3-.71c-.68-.43-1-.84-.93-.88s.43.24,1.1.55a5.57,5.57,0,0,0,2.79.52,5.7,5.7,0,0,0,2.66-1C458,115.88,458.26,115.52,458.33,115.57Z"/><path class="cls-12" d="M457.13,113c.12.07-.37.9-1.38,1.42s-2,.44-2,.31.83-.3,1.73-.77S457,112.89,457.13,113Z"/><path class="cls-6" d="M425.92,115.79c-.06,0-.17-.25-.15-.69a2.71,2.71,0,0,1,.64-1.56,2.57,2.57,0,0,1,1.45-.88c.42-.09.69,0,.7,0s-1,.29-1.75,1.17S426.07,115.79,425.92,115.79Z"/><path class="cls-12" d="M424.32,108.54a19.94,19.94,0,0,0,1.64,2.53,18.27,18.27,0,0,0,2.36,1.87,3.9,3.9,0,0,1-2.74-1.52A4,4,0,0,1,424.32,108.54Z"/><path class="cls-7" d="M471.56,241.5l-57.48-3.13c-.14-5.93,2.69-50.87,2.69-50.87l-3,5.58L398.34,179.3l13.5-18.25a26.8,26.8,0,0,1,17.89-10.58c2.1-.28,3.69-.42,4.73-.55a30.38,30.38,0,0,0,18.32,0h0a25.09,25.09,0,0,1,7.59,1.45,31.25,31.25,0,0,1,12.11,7.84h0l16.17,27.17L469,198.71l-2.83-8.55Z"/><path class="cls-6" d="M465.09,155.2a4.55,4.55,0,0,0-1.06.8,4.76,4.76,0,0,0-1.1,3.34c.11,3.1.47,7.43.86,12.18s.87,9,1.2,12.16c.16,1.48.29,2.72.39,3.69a7.62,7.62,0,0,1,.09,1.36,6.33,6.33,0,0,1-.29-1.33c-.14-.87-.34-2.12-.55-3.67-.43-3.11-.94-7.4-1.35-12.17s-.7-9.07-.72-12.23a4.84,4.84,0,0,1,1.32-3.47,2.67,2.67,0,0,1,.86-.57A.77.77,0,0,1,465.09,155.2Z"/><path class="cls-6" d="M416.93,166.6a21.24,21.24,0,0,1,.1,3.26c0,2,0,4.77-.13,7.83s-.18,5.83-.27,7.84a20.43,20.43,0,0,1-.27,3.24,19.49,19.49,0,0,1-.1-3.24c0-2,0-4.79.12-7.85s.18-5.83.28-7.84A20.43,20.43,0,0,1,416.93,166.6Z"/><path class="cls-9" d="M453.21,171.3a6.59,6.59,0,0,1-.94.88l-2.65,2.26c-2.24,1.92-5.3,4.59-8.59,7.65s-6.18,5.92-8.25,8l-2.45,2.48a5.71,5.71,0,0,1-.94.87,6.46,6.46,0,0,1,.79-1c.54-.62,1.34-1.51,2.34-2.59,2-2.17,4.86-5.08,8.16-8.14s6.4-5.7,8.7-7.55c1.16-.92,2.1-1.65,2.76-2.14A5.8,5.8,0,0,1,453.21,171.3Z"/><path class="cls-9" d="M455.52,190.53a6,6,0,0,1-1.17-.45c-.74-.32-1.79-.81-3.08-1.45-2.58-1.26-6.1-3.12-9.86-5.38s-7.06-4.49-9.39-6.17c-1.17-.84-2.1-1.54-2.73-2a5.48,5.48,0,0,1-.94-.82,5.33,5.33,0,0,1,1.06.65l2.82,1.9c2.38,1.61,5.7,3.78,9.45,6s7.22,4.16,9.76,5.51l3,1.59A5.85,5.85,0,0,1,455.52,190.53Z"/><path class="cls-12" d="M342,155.7c2.58-4.63,1.44-10.73-1.91-14.84s-8.51-6.4-13.73-7.29c-3.21-.55-6.5-.63-9.65-1.46s-6.26-2.58-7.71-5.49a15.61,15.61,0,0,0,1.45,10.5,14.72,14.72,0,0,1-5.12-2.14c0,6.49,1.63,13.1,5.42,18.36s9.93,9,16.42,9.08,13.05-3.95,15.18-10.08"/><path class="cls-7" d="M305.34,132.43c-.25,3.14.14,9.23,1.34,12.14a8.35,8.35,0,0,0,1.93,3,3.92,3.92,0,0,0,3.33,1.08c1.86-.38,3.08-2.42,5-2.67,2.25-.3,4.09,2.08,6.37,2.14,1.85.05,3.42-1.51,4.11-3.23a23.86,23.86,0,0,0,1-5.47,7.53,7.53,0,0,1,2.26-5,53.69,53.69,0,0,0-12.07-2.88c-6.87-.83-9.61-7-9.61-7s-2.06,7.41,1.51,12.49Z"/><path class="cls-6" d="M340.13,169.9,496,283.9a10,10,0,0,0,13.85-2.07h0a10,10,0,0,0-2.12-14L351.26,154.11Z"/><path class="cls-13" d="M486.43,187.77l-16,10.06,2.59,6.8-35.8,14.73-9.8.45-7.23-1.34s-.64.84.58,2.13a10.35,10.35,0,0,0,3.8,1.79l-5.4,4.89,7,8.89,24-5.8c13.29-2.26,44.94-8.6,45.06-17.84C495.35,204.19,486.43,187.77,486.43,187.77Z"/><path class="cls-13" d="M358,171.42c.37-1.1,1.27-1.88,2.25-1.36h0a1.73,1.73,0,0,1,.33,1.68L357.44,182h0l3-7.22c.37-1.09,1.36-1.75,2-1.15a1.83,1.83,0,0,1,.24,1.65L360,183.71l2.2-5.29c.46-1.21,1-1.54,1.62-1.27s.63,1.16.48,1.63L362.42,185c.4,1.2,1.79,5,.46,7.11-.07.11.13.46.13.58l.63.72-4.07,3.84c-2.11-1.87-4.05-9.73-4.66-12.71a9.45,9.45,0,0,1,.22-5.1Z"/><polygon class="cls-5" points="351.26 154.11 342.89 147.47 331.93 163.47 340.13 169.9 351.26 154.11"/><path class="cls-12" d="M209.81,124l-4.05-11.89.4-6.73,5.22,5.13,7.87,22.13a2.83,2.83,0,0,1-1.84,3.64h0A2.81,2.81,0,0,1,214,134.6Z"/><path class="cls-6" d="M216.77,133.36a22.2,22.2,0,0,1-1.33-3.2c-.79-2.13-1.79-4.83-2.89-7.82l-2.88-7.83c-.34-.91-.64-1.69-.9-2.36a4.61,4.61,0,0,1-.33-.87,12.6,12.6,0,0,1,1.58,3.09c.83,2,1.9,4.73,3,7.79s2.08,5.85,2.75,7.88A22.34,22.34,0,0,1,216.77,133.36Z"/><polygon class="cls-6" points="206.16 105.37 205.9 109.67 209.22 108.37 206.16 105.37"/><path class="cls-6" d="M211.13,110.45a8.11,8.11,0,0,1-2.61,1.08,7.63,7.63,0,0,1-2.77.59,15.52,15.52,0,0,1,5.38-1.67Z"/><path class="cls-16" d="M218.36,125.06l1-3.51a1.48,1.48,0,0,0-1.11-1.86l-3.78-.83a1.64,1.64,0,0,0-.25,1.55c.38.7,3,1.34,3,1.34l-.31,3.54Z"/><path class="cls-13" d="M132.54,176.14h0a9,9,0,0,0,9.68-8.62c.19-4.9.35-9.85.35-9.85s7.42-.7,8-8,.29-24.3.29-24.3h0A25.6,25.6,0,0,0,125,127l-1.14.77.42,39.5A9,9,0,0,0,132.54,176.14Z"/><polygon class="cls-17" points="145.6 310.03 167.57 411.39 184.15 411 169.72 314.07 145.6 310.03"/><polygon class="cls-17" points="105.02 306.6 99.68 405.58 116 409.52 128.23 308.69 105.02 306.6"/><polygon class="cls-6" points="172.07 314.29 163.11 238.1 110.27 237.13 104.08 308.02 172.07 314.29"/><path class="cls-12" d="M155.23,257.2c0,.14-8.52,1.27-19.06,2.52s-19.12,2.15-19.14,2,8.52-1.27,19.08-2.52S155.22,257.06,155.23,257.2Z"/><path class="cls-7" d="M186.42,412.7l-.07-1.85-18.78.54.16,6.11,1.17,0c5.16.13,26.27.31,29.69-.75C202.4,415.6,186.42,412.7,186.42,412.7Z"/><g class="cls-18"><path class="cls-14" d="M174.51,417.18a6,6,0,0,0-2.5-3.64,6.67,6.67,0,0,0-4.41-1.14l.15,4.85Z"/></g><g class="cls-18"><path class="cls-14" d="M194.24,414.38s5.61,1.34,4.94,2.21-22,1.43-31.45.91l0-.39,24.9-.45S193.15,414.45,194.24,414.38Z"/></g><path class="cls-6" d="M167.46,417.11l.32,0,.93,0,3.4,0c2.87,0,6.84,0,11.22-.11s8.35-.3,11.21-.46l3.4-.23.92-.07.32,0h-.33l-.92,0-3.4.16c-2.86.13-6.83.28-11.21.4s-8.34.15-11.21.17l-3.4,0h-.93Z"/><path class="cls-6" d="M192.65,416.93a6.79,6.79,0,0,1,.59-1.53,8.78,8.78,0,0,1,1.12-1.24,2.51,2.51,0,0,0-1.31,1.14A2.27,2.27,0,0,0,192.65,416.93Z"/><path class="cls-6" d="M187.06,414.47c.05,0,.31-.28.57-.68s.43-.76.37-.79-.3.27-.57.68S187,414.44,187.06,414.47Z"/><path class="cls-6" d="M185.52,413.77s.34-.15.65-.43.53-.54.49-.58-.33.15-.65.43S185.48,413.72,185.52,413.77Z"/><path class="cls-6" d="M184.52,412.15a2.3,2.3,0,0,0,1,.09,2.32,2.32,0,0,0,1-.12,2.3,2.3,0,0,0-1-.09A2.32,2.32,0,0,0,184.52,412.15Z"/><path class="cls-6" d="M184.15,411a2,2,0,0,0,1.1.27,2,2,0,0,0,1.12-.17,6.68,6.68,0,0,0-1.11,0A6,6,0,0,0,184.15,411Z"/><path class="cls-6" d="M187.65,412.94a4,4,0,0,0,1.2,0,6.73,6.73,0,0,0,1.27-.3,3.07,3.07,0,0,0,.72-.3.57.57,0,0,0,.29-.35.43.43,0,0,0-.2-.44,2.29,2.29,0,0,0-2.7.67,1.83,1.83,0,0,0-.37.75c0,.2,0,.3,0,.31a2.93,2.93,0,0,1,.52-1,2.18,2.18,0,0,1,1-.65,2,2,0,0,1,1.44.06c.19.12.12.33-.08.46a4,4,0,0,1-.67.28,8.48,8.48,0,0,1-1.23.33C188.11,412.89,187.65,412.9,187.65,412.94Z"/><path class="cls-6" d="M188,413a1,1,0,0,0,.12-.78,1.8,1.8,0,0,0-.36-.81,1.2,1.2,0,0,0-1-.54.44.44,0,0,0-.36.52,1.17,1.17,0,0,0,.22.49,3.65,3.65,0,0,0,.59.67,1.81,1.81,0,0,0,.7.43s-.25-.19-.59-.54a3.8,3.8,0,0,1-.52-.66c-.17-.23-.3-.65,0-.71a1.11,1.11,0,0,1,.81.46,1.77,1.77,0,0,1,.36.71A4.28,4.28,0,0,1,188,413Z"/><path class="cls-6" d="M167.7,412.35s.53-.07,1.38,0a6.24,6.24,0,0,1,3,1.07,5.6,5.6,0,0,1,2,2.42c.31.74.35,1.24.4,1.24a1.36,1.36,0,0,0,0-.35,4.6,4.6,0,0,0-.24-.94,5.37,5.37,0,0,0-2-2.54,6,6,0,0,0-3.17-1.05,5,5,0,0,0-1,.05C167.82,412.3,167.69,412.33,167.7,412.35Z"/><path class="cls-6" d="M176.81,415.43a11.54,11.54,0,0,0,2.73.18,11.22,11.22,0,0,0,2.73-.28c0-.06-1.22,0-2.73.07S176.81,415.37,176.81,415.43Z"/><path class="cls-6" d="M173.14,415.52s.11.24.24.49.21.49.28.49.08-.28-.07-.58S173.18,415.48,173.14,415.52Z"/><path class="cls-6" d="M171.72,414c-.05,0,.08.22.28.4s.39.28.44.24-.09-.22-.29-.4S171.76,413.92,171.72,414Z"/><path class="cls-6" d="M169.72,413.28c0,.06.26.05.54.13s.48.22.52.18-.11-.28-.46-.38S169.7,413.23,169.72,413.28Z"/><path class="cls-6" d="M168.3,413c0,.06.09.14.25.2s.3.05.32,0-.09-.14-.25-.19S168.32,412.92,168.3,413Z"/><polygon class="cls-7" points="99.19 404.74 96.41 416.96 115.19 416.96 116 409 99.19 404.74"/><path class="cls-6" d="M115.58,415.19a13,13,0,0,1-2.74.15c-1.69,0-4,0-6.6-.12l-6.59-.28a14.67,14.67,0,0,1-2.73-.22,13.94,13.94,0,0,1,2.74-.15c1.69,0,4,0,6.6.13l6.59.27A14.67,14.67,0,0,1,115.58,415.19Z"/><path class="cls-6" d="M107.62,407.12a30.61,30.61,0,0,1-.53,7.88,30.61,30.61,0,0,1,.53-7.88Z"/><polyline class="cls-19" points="96.41 416.96 115.19 416.96 115.37 415.19 96.75 414.72 96.41 416.75"/><path class="cls-17" d="M218.8,121.26l-9,3.35c-.1-2.74-2-5.6-2-4.23s-.64,8.45-.64,8.45l-14.29,24.86c-2,4-5.57,6.26-8.14,6.67L173,162.87l3.29,15.49,16.33-4a13.78,13.78,0,0,0,9.4-8.07l13.59-32.56a52.39,52.39,0,0,0,2.29-6.45A39.35,39.35,0,0,0,218.8,121.26Z"/><path class="cls-12" d="M92.13,198s13.61-27.75,14.65-28.61c6.5-5.34,14.8-4.81,14.8-4.81l22.7.19s17.87-2.24,28.29-4l4.54,21.36-20,4.82-1.89,24.21,4.43,18.47a51,51,0,0,1,2.49,6.78l.61,2.15-52.58.54C110,233,117,217.74,117,217.74l-3.83-23.88L111.33,203Z"/><path class="cls-9" d="M156.29,192.87a6.19,6.19,0,0,0-2.76,0,9.28,9.28,0,0,0-3,1.35,41,41,0,0,0-3.41,2.73,10.9,10.9,0,0,1-4.7,2.56,10.75,10.75,0,0,1-6.11-.61,19,19,0,0,1-5.77-3.59c-1.78-1.54-3.43-3.32-5.23-5a23.64,23.64,0,0,0-5.76-4.2,19.73,19.73,0,0,0-6.35-1.92,19.3,19.3,0,0,0-11,1.8,20.66,20.66,0,0,0-6.1,4.52c-.61.67-1,1.22-1.34,1.6a3.25,3.25,0,0,1-.46.57,4.66,4.66,0,0,1,.38-.63A17.67,17.67,0,0,1,96,190.37a19.88,19.88,0,0,1,6.09-4.72,19.44,19.44,0,0,1,11.2-1.94,19.88,19.88,0,0,1,6.51,1.93,23.93,23.93,0,0,1,5.9,4.28c1.81,1.71,3.46,3.48,5.21,5a18.52,18.52,0,0,0,5.6,3.52,10.34,10.34,0,0,0,5.85.64,10.7,10.7,0,0,0,4.56-2.42,39.86,39.86,0,0,1,3.48-2.69,9.13,9.13,0,0,1,3.07-1.3,5.34,5.34,0,0,1,2.11,0A2.35,2.35,0,0,1,156.29,192.87Z"/><path class="cls-9" d="M155.31,214.91c0,.06-.6.06-1.65.3a14.5,14.5,0,0,0-4.14,1.85c-1.65,1-3.45,2.46-5.62,3.87a20.92,20.92,0,0,1-7.85,3,23.19,23.19,0,0,1-8.4-.24,21.54,21.54,0,0,1-6.4-2.46,23,23,0,0,1-2.21-1.45c-.59-.5-1.11-.93-1.51-1.3a11,11,0,0,1-1.13-1.26,26.75,26.75,0,0,0,5,3.69,22,22,0,0,0,6.32,2.31,23.11,23.11,0,0,0,8.21.19,20.79,20.79,0,0,0,7.68-2.87c2.15-1.36,4-2.8,5.69-3.77a13.06,13.06,0,0,1,4.29-1.73,7,7,0,0,1,1.25-.13A1.49,1.49,0,0,1,155.31,214.91Z"/><path class="cls-9" d="M162.87,167.87a5,5,0,0,1,1.88-.53,11.58,11.58,0,0,1,4.7.38A11.31,11.31,0,0,1,173.6,170a4.78,4.78,0,0,1,1.28,1.47,17.06,17.06,0,0,1-1.51-1.18,13,13,0,0,0-8.58-2.54A15.3,15.3,0,0,1,162.87,167.87Z"/><path class="cls-9" d="M130.13,237.13a23.29,23.29,0,0,0,4.19-1,28.41,28.41,0,0,0,4.23-2l5-2.93a27.76,27.76,0,0,1,5.32-2.39,18.72,18.72,0,0,1,4.71-.76,17.18,17.18,0,0,1,3.2.19,4.19,4.19,0,0,1,1.14.28,38.69,38.69,0,0,0-4.33-.11,19.75,19.75,0,0,0-4.58.86,29.37,29.37,0,0,0-5.21,2.38c-1.78,1-3.44,2-5,2.9a25.54,25.54,0,0,1-4.34,1.95,17,17,0,0,1-1.76.48c-.54.09-1,.16-1.37.2A6,6,0,0,1,130.13,237.13Z"/><path class="cls-17" d="M218.8,121.26V119a1.38,1.38,0,0,0-.93-1.3l-4.23-1.45a1.62,1.62,0,0,0-.25,1.54c.38.7,3,1.35,3,1.35l-.32,3.53Z"/><path class="cls-17" d="M94.4,198.58s-8,14.63-2.27,20.19c5.4,5.25,24.47-3.72,24.47-3.72l-1.9-11.85-9.55,3.42,2.2-4.67Z"/><path class="cls-6" d="M147.79,118.45c13.1,2.44,6.48,19.32,9.32,24.86,1,2,2.94,3.68,4.41,5.53s2.53,4.2,1.63,6.3c-.77,1.82-2.94,3.32-2.61,5.24a7.28,7.28,0,0,0,1.66,2.7,7.92,7.92,0,0,1,.89,7.3,14.28,14.28,0,0,1-4.87,6.22c-6.4,5-16.24,6.45-24.26,3.67-2.37-.82-4.79-2-7.32-1.65a23.32,23.32,0,0,0-4.37,1.52c-5.66,2-12.69-.86-15.3-5.56S105.8,164,109.69,160c2.79-2.87,6.92-5.35,7.2-9.06s-3.46-7.31-1.76-10.68c1.11-2.17,4.15-3.29,5.24-5.47s-.21-4.83-.28-7.3c-.09-3.33,2.16-6.38,4.7-8.92,3.19-3.2,7.29-6.11,12.2-6.61s10.48,2.3,10.8,6.49"/><path class="cls-12" d="M140.82,182a11.45,11.45,0,0,0,2.9-.59,8.75,8.75,0,0,0,2.91-1.81,8.23,8.23,0,0,0,2.3-3.85,8.56,8.56,0,0,0-.28-5.4c-.33-.94-.77-1.89-1.17-2.9a10.19,10.19,0,0,1-.81-3.28,5.37,5.37,0,0,1,1.07-3.42,13.74,13.74,0,0,1,2.67-2.55,15.87,15.87,0,0,0,2.74-2.5,4.53,4.53,0,0,0,1.15-3.38,6.69,6.69,0,0,0-1.65-3.29c-.79-1-1.67-1.9-2.39-2.94a6.72,6.72,0,0,1-1.3-3.49,10.55,10.55,0,0,1,.48-3.53c.67-2.2,1.53-4.17,2-6.12a16.52,16.52,0,0,0,.54-5.51,9.52,9.52,0,0,0-3.62-6.88,8.33,8.33,0,0,0-2.66-1.25s.07,0,.19,0a3.07,3.07,0,0,1,.57.12,6.35,6.35,0,0,1,2,1,9.61,9.61,0,0,1,3.87,7,16.87,16.87,0,0,1-.49,5.64c-.44,2-1.3,4-1.94,6.16a9.93,9.93,0,0,0-.44,3.35,6.22,6.22,0,0,0,1.22,3.24c.69,1,1.56,1.9,2.37,2.9a7.11,7.11,0,0,1,1.77,3.56,5.09,5.09,0,0,1-1.27,3.77,15.86,15.86,0,0,1-2.83,2.57,14,14,0,0,0-2.58,2.45,4.81,4.81,0,0,0-1,3.1c.11,2.21,1.27,4.13,1.91,6.06a8.93,8.93,0,0,1,.23,5.64,8.59,8.59,0,0,1-2.46,4,8.77,8.77,0,0,1-3.05,1.78,8.24,8.24,0,0,1-2.18.42,3.64,3.64,0,0,1-.58,0C140.89,182.05,140.82,182,140.82,182Z"/><path class="cls-12" d="M120.81,133a7.75,7.75,0,0,1-.12-1.52,25.06,25.06,0,0,1,.18-4.16,14.34,14.34,0,0,1,2-5.85,15.18,15.18,0,0,1,5.61-5.09c4.81-2.59,10.2-2.53,13.4-.93A6.71,6.71,0,0,1,145,118.2a4.14,4.14,0,0,1,.41,1.07c.05.25.07.39.05.39a13.77,13.77,0,0,0-.63-1.36,6.91,6.91,0,0,0-3.08-2.56c-3.1-1.45-8.34-1.45-13,1.06a15,15,0,0,0-5.46,4.89,14.45,14.45,0,0,0-2.07,5.64,33.1,33.1,0,0,0-.34,4.11A9.66,9.66,0,0,1,120.81,133Z"/><path class="cls-12" d="M143,122.14a5.71,5.71,0,0,0-2.57.06,7.44,7.44,0,0,0-4.81,4.75,15.48,15.48,0,0,0-.79,4.81c-.07,1.76,0,3.66-.05,5.68a13.82,13.82,0,0,1-1.52,6.15c-1.09,2-3.19,3.26-4,5.33a5.52,5.52,0,0,0-.11,3.22c.24,1.07.63,2.11.94,3.16a9.43,9.43,0,0,1,.51,3.24,7.35,7.35,0,0,1-.87,3,36.6,36.6,0,0,1-3.28,4.68,10.2,10.2,0,0,0-2.09,4.33,7.13,7.13,0,0,0,.49,3.91,15.5,15.5,0,0,0,1.42,2.7c.46.71.84,1.24,1.09,1.61a4.31,4.31,0,0,1,.37.57,2.73,2.73,0,0,1-.45-.51c-.29-.35-.69-.86-1.18-1.56a14.83,14.83,0,0,1-1.52-2.7,7.53,7.53,0,0,1-.59-4.08,10.67,10.67,0,0,1,2.11-4.53,36.79,36.79,0,0,0,3.2-4.64,6.64,6.64,0,0,0,.8-2.83,9,9,0,0,0-.5-3.07c-.31-1-.7-2.07-1-3.2a6,6,0,0,1,.13-3.51,9.1,9.1,0,0,1,2-2.86,13.7,13.7,0,0,0,2-2.54,13.54,13.54,0,0,0,1.48-5.93c.11-2,0-3.88.09-5.67a15.89,15.89,0,0,1,.88-4.91,7.58,7.58,0,0,1,5.11-4.83,4.77,4.77,0,0,1,2-.06,3,3,0,0,1,.49.13C142.92,122.11,143,122.13,143,122.14Z"/><polygon class="cls-16" points="104.94 308.1 104.83 310.03 127.3 316.38 128.05 310.23 104.94 308.1"/><polygon class="cls-16" points="146.08 312.24 146.73 315.25 170.48 319.22 169.72 314.07 146.08 312.24"/></g></g></svg>