<svg xmlns="http://www.w3.org/2000/svg" viewBox="0 0 355.85 436.66"><defs><style>.cls-1{fill:#e0e0e0;}.cls-2{fill:#ebebeb;}.cls-3{fill:#f5f5f5;}.cls-4{fill:#5a6bff;}.cls-5{opacity:0.8;}.cls-11,.cls-6{fill:#fff;}.cls-7{fill:#263238;}.cls-8{opacity:0.4;}.cls-9{fill:#ffbe9d;}.cls-10,.cls-11{opacity:0.6;}.cls-12{fill:#455a64;}.cls-13{fill:#eb996e;}.cls-14{opacity:0.2;}</style></defs><title>Pencil</title><g id="Camada_2" data-name="Camada 2"><g id="Pencil"><path class="cls-1" d="M251.4,55h65.75s-5.81-10.58-22.74-9c-16.16,1.47-17-5.21-25.2-6S254.14,45.39,251.4,55Z"/><path class="cls-2" d="M79.54,228.8s-6.59,3.56,3,17.32,15.83,20.36,15.83,20.36,1.81,3.25-1,4.18-9.33.8-10.13,4.51,2.31,6.95,8.14,9.24,18.4,7.79,19.53,8.29,2.37,1.94.55,2.89-15.94,4.41-13.89,11,19.32,10.32,21.2,10.76,2.41,1.14,2.4,2.14-4.86,1.72-8.84,2.87-8.38,3.19-6.88,6.89,12.36,10.44,36.33,9.5l11.09-1.16,4.71-10.15c8.78-22.34,6-34.8,3-37.44s-6.38.86-8.78,4.23-4.67,7.73-5.61,7.41-1.44-1-1.24-3,2.37-19.46-3.19-23.56-13.47,8.08-15,9.49-2.46-.25-2.55-1.47-1.15-14.92-1.4-21.17-2.14-10.24-6-10.72S115,257,113.2,259.33s-4.28-.43-4.28-.43-4.19-8.06-14-21.64-15.48-8.38-15.48-8.38"/><path class="cls-1" d="M157.79,340.11c-7.18-10-19.65-28-30.44-43.38s-20.57-29.31-27.7-39.35c-3.57-5-6.46-9.06-8.46-11.88l-2.3-3.23c-.26-.36-.45-.64-.59-.84l-.19-.3s.08.09.22.28l.61.82,2.36,3.19c2,2.78,5,6.82,8.55,11.82,7.18,10,17,23.9,27.78,39.29S150.86,329.93,158,340"/><path class="cls-1" d="M96.34,275.73a4.23,4.23,0,0,1,.8.11c.51.09,1.24.24,2.14.44,1.81.39,4.3,1,7,1.72l7,1.87,2.12.55a3.85,3.85,0,0,1,.77.24,4.53,4.53,0,0,1-.8-.1c-.51-.09-1.25-.25-2.15-.45-1.81-.41-4.28-1.05-7-1.78l-7-1.82L97.11,276A3,3,0,0,1,96.34,275.73Z"/><path class="cls-1" d="M116.83,279.85c-.09,0,.94-5.2,2.3-11.56s2.54-11.52,2.64-11.5-.94,5.2-2.3,11.57S116.93,279.87,116.83,279.85Z"/><path class="cls-1" d="M132.33,304.23a3.81,3.81,0,0,1,.36-.74l1.06-2c.89-1.67,2.12-4,3.37-6.56s2.33-5,3.08-6.7l.9-2a3.62,3.62,0,0,1,.36-.74,3,3,0,0,1-.24.79c-.17.49-.44,1.21-.79,2.09-.7,1.76-1.73,4.16-3,6.75s-2.52,4.89-3.47,6.53c-.47.81-.87,1.47-1.15,1.91A3.4,3.4,0,0,1,132.33,304.23Z"/><path class="cls-1" d="M113,304.59a2.82,2.82,0,0,1,.76-.1l2.06-.12c1.75-.08,4.16-.18,6.82-.26s5.07-.14,6.82-.16h2.06a3.26,3.26,0,0,1,.76,0,2.6,2.6,0,0,1-.75.09l-2.07.12c-1.74.09-4.15.18-6.81.27s-5.07.14-6.82.16h-2.07A4.27,4.27,0,0,1,113,304.59Z"/><path class="cls-1" d="M123.92,327.85a4.94,4.94,0,0,1,1-.11l2.65-.16c2.23-.13,5.32-.27,8.73-.41s6.5-.25,8.73-.31l2.65-.05a4.86,4.86,0,0,1,1,0,5.67,5.67,0,0,1-1,.11l-2.65.16c-2.23.12-5.32.27-8.73.41s-6.5.24-8.73.3l-2.65.05A5.75,5.75,0,0,1,123.92,327.85Z"/><path class="cls-1" d="M148,326.7a6,6,0,0,1,.42-1c.33-.65.75-1.51,1.26-2.54,1-2.15,2.5-5.12,4-8.45s2.8-6.38,3.72-8.59l1.08-2.62a6.62,6.62,0,0,1,.44-1,6.21,6.21,0,0,1-.31,1c-.22.63-.55,1.54-1,2.66-.86,2.24-2.11,5.31-3.63,8.64s-3,6.3-4.11,8.42c-.55,1.06-1,1.91-1.35,2.5A6.8,6.8,0,0,1,148,326.7Z"/><path class="cls-3" d="M241,179.12c-11.9-13.35-10.76-32.62-6.25-49.11.75-2.76,1.14-5.76,3-7.88s5.38-3.06,7.58-1.3c1.84,1.46,2.17,4.07,2.85,6.33a16.74,16.74,0,0,0,5,7.76c1.55,1.33,3.6,2.41,5.58,1.86,2.7-.75,3.77-4,4.41-6.76q1.77-7.73,3.56-15.46a26.3,26.3,0,0,1,2.77-8c1.48-2.42,4-4.4,6.76-4.52s5.69,2.17,5.6,5a25.83,25.83,0,0,1-.73,3.45,3,3,0,0,0,1,3.14c1,.59,2.31.06,3.33-.55,3.51-2.11,6.29-5.24,8.95-8.39s5.27-6.38,8.58-8.81,7.45-4,11.46-3.28,7.64,4.15,7.72,8.27S319.18,108.42,316,111a63.37,63.37,0,0,1-15.73,9.19,5.25,5.25,0,0,0-2.7,1.8c-1,1.7.28,3.94,1.95,5,1.9,1.17,4.18,1.48,6.27,2.25s4.2,2.26,4.54,4.49c.46,3.09-2.6,5.49-5.38,6.88a54.43,54.43,0,0,1-17.76,5.32c-2.21.26-4.5.4-6.48,1.44s-3.55,3.29-3,5.47,2.92,3.4,5.14,3.51,4.4-.59,6.61-.88c4.13-.53,9,.89,10.62,4.75a8.94,8.94,0,0,1-.9,7.94,20.68,20.68,0,0,1-5.8,5.84,54.63,54.63,0,0,1-26.44,10.56c-9.53,1-17.88-.14-25.87-5.41"/><path class="cls-1" d="M243.43,180.72c2.17-6.44-.1-3.21,4.35-11a255,255,0,0,1,16.13-24.31l4.56-6.16c1.5-2,3-4,4.56-5.88a126.82,126.82,0,0,1,9.67-10.2c3.23-3.1,6.41-5.92,9.4-8.54s5.85-5,8.53-7.05A100.91,100.91,0,0,1,314,98.8c1.65-.91,3-1.57,3.85-2l1-.49a1.5,1.5,0,0,1,.36-.15,1.93,1.93,0,0,1-.33.2l-1,.54c-.87.46-2.16,1.15-3.8,2.09a107.48,107.48,0,0,0-13.24,8.88c-2.66,2.08-5.48,4.47-8.46,7.09s-6.15,5.46-9.36,8.56a125.84,125.84,0,0,0-9.61,10.18c-1.56,1.86-3,3.85-4.54,5.87l-4.55,6.15A262.18,262.18,0,0,0,248.2,170c-4.46,7.77-2.22,4.48-4.42,10.89"/><path class="cls-1" d="M273.18,133.38a6.36,6.36,0,0,1,0-1.25c0-.79.13-1.95.26-3.37.26-2.84.75-6.75,1.31-11.06s1-8.22,1.22-11.06c.11-1.42.19-2.57.24-3.36a5.46,5.46,0,0,1,.13-1.24,6.09,6.09,0,0,1,.07,1.24c0,.8,0,2-.07,3.38-.13,2.86-.51,6.79-1.07,11.1s-1.07,8.1-1.46,11c-.17,1.33-.31,2.45-.43,3.35A5.47,5.47,0,0,1,273.18,133.38Z"/><path class="cls-1" d="M310.25,135.15a7.65,7.65,0,0,1-1.45-.17c-.93-.13-2.28-.33-3.95-.53-3.33-.42-8-.84-13.08-1.07s-9.78-.24-13.14-.15c-1.68,0-3,.1-4,.13a8.3,8.3,0,0,1-1.47,0,7,7,0,0,1,1.45-.22c.94-.1,2.3-.22,4-.3,3.37-.19,8-.24,13.17,0a127.82,127.82,0,0,1,13.11,1.23c1.67.25,3,.5,3.93.7A7,7,0,0,1,310.25,135.15Z"/><path class="cls-1" d="M248.38,169.16a1.88,1.88,0,0,1-.15-.49l-.3-1.43c-.26-1.24-.58-3.05-1-5.28-.75-4.47-1.59-10.69-2.43-17.55s-1.62-13.08-2.27-17.56c-.33-2.18-.59-4-.79-5.31-.09-.57-.15-1.05-.21-1.44a2,2,0,0,1,0-.51,1.56,1.56,0,0,1,.14.49c.08.39.18.86.31,1.43.25,1.24.58,3,.95,5.28.75,4.47,1.59,10.68,2.43,17.55s1.62,13.08,2.27,17.56c.33,2.18.59,4,.79,5.3.08.58.15,1.06.21,1.45A2.77,2.77,0,0,1,248.38,169.16Z"/><path class="cls-1" d="M299.15,165.13a1.71,1.71,0,0,1-.52.08l-1.47.14-5.44.44c-4.6.37-10.93,1-17.94,1.62s-13.35,1.19-17.95,1.46c-2.3.14-4.16.24-5.45.28l-1.49,0a1.56,1.56,0,0,1-.51,0,1.59,1.59,0,0,1,.51-.08l1.48-.14,5.44-.44c4.59-.37,10.93-1,17.93-1.62s13.35-1.19,17.95-1.47c2.3-.14,4.17-.23,5.45-.27l1.49,0A1.61,1.61,0,0,1,299.15,165.13Z"/><path class="cls-1" d="M338.53,266.9a3.7,3.7,0,0,1-.17.47l-.54,1.33-2.14,5L328,291.55l-.05.11-.12,0-24.22,4L295.48,297l-.37.06.09-.36c2-7.79,3.79-15,5.33-21.06l.12.24-14.24-6.36-3.92-1.79-1-.49-.34-.18a1.43,1.43,0,0,1,.37.13l1.05.43,4,1.69,14.3,6.2.16.07-.05.16c-1.52,6.1-3.3,13.28-5.25,21.08l-.27-.3,8.11-1.34,24.23-3.94-.16.13,7.87-17.76,2.24-5,.61-1.31A3.31,3.31,0,0,1,338.53,266.9Z"/><polygon class="cls-1" points="298.31 294.15 297.65 295.89 298.71 297.43 296.85 297.33 295.72 298.82 295.23 297.02 293.47 296.4 295.03 295.38 295.07 293.52 296.53 294.69 298.31 294.15"/><polygon class="cls-1" points="281.68 265.9 281.35 266.76 281.88 267.53 280.96 267.48 280.39 268.22 280.15 267.32 279.27 267.02 280.05 266.51 280.07 265.58 280.8 266.16 281.68 265.9"/><polygon class="cls-1" points="328.65 290.46 328.32 291.33 328.85 292.09 327.93 292.05 327.36 292.79 327.12 291.89 326.25 291.58 327.02 291.08 327.04 290.15 327.77 290.73 328.65 290.46"/><polygon class="cls-1" points="301.55 274.87 301.22 275.73 301.75 276.5 300.82 276.45 300.26 277.19 300.02 276.29 299.14 275.99 299.92 275.48 299.94 274.55 300.66 275.13 301.55 274.87"/><polygon class="cls-1" points="339.66 266.03 339.33 266.9 339.86 267.66 338.93 267.62 338.37 268.36 338.13 267.46 337.25 267.15 338.02 266.64 338.05 265.72 338.77 266.3 339.66 266.03"/><path class="cls-1" d="M36.56,338.8H88.91s-4.63-8.42-18.1-7.19c-12.87,1.17-13.53-4.15-20.07-4.8S38.74,331.17,36.56,338.8Z"/><path class="cls-3" d="M47,132.69H99.31s-4.63-8.42-18.11-7.2c-12.87,1.17-13.52-4.14-20.07-4.8S49.14,125.06,47,132.69Z"/><path class="cls-3" d="M312.84,169.1h43S352,162.17,341,163.18c-10.57,1-11.11-3.4-16.48-3.94S314.63,162.82,312.84,169.1Z"/><path class="cls-4" d="M227,254c2.14-16.12-9.2-29.41-23.36-37.4S173,205.92,157.37,201.48C142.62,197.29,128,191.17,117,180.41s-17.47-26.93-13.55-41.75c1-3.73,2.75-7.46,6-9.61s8.07-2.09,10.46.93c5.07,6.44-4.82,18,1.37,23.34,1.43,1.23,3.38,1.69,4.85,2.86,3.92,3.12,2.65,9.2,3.21,14.18,1.09,9.85,10.32,16.69,19.4,20.68,12.14,5.34,25.3,7.85,38.19,11s25.88,7.16,36.62,15,20,20,20,33.28c0,3.71-.49,8.27-2.82,11.16s-5.29,3.49-8.65,1.91-5.7-4-5.08-9.38"/><g class="cls-5"><path class="cls-6" d="M227,254c2.14-16.12-9.2-29.41-23.36-37.4S173,205.92,157.37,201.48C142.62,197.29,128,191.17,117,180.41s-17.47-26.93-13.55-41.75c1-3.73,2.75-7.46,6-9.61s8.07-2.09,10.46.93c5.07,6.44-4.82,18,1.37,23.34,1.43,1.23,3.38,1.69,4.85,2.86,3.92,3.12,2.65,9.2,3.21,14.18,1.09,9.85,10.32,16.69,19.4,20.68,12.14,5.34,25.3,7.85,38.19,11s25.88,7.16,36.62,15,20,20,20,33.28c0,3.71-.49,8.27-2.82,11.16s-5.29,3.49-8.65,1.91-5.7-4-5.08-9.38"/></g><path class="cls-4" d="M158.45,125.87c-.51-6,3.93-11.17,9-14s10.85-3.91,16.07-6.39c13-6.13,21.18-20.58,21.79-35.4s-5.82-29.62-15.87-40.5c-4.08-4.43-9.1-9.06-9.16-15.09-.07-6.3,6-11.26,12.14-11.18s11.72,4.16,15.37,9.3,5.67,11.26,7.64,17.26c-1.41-2.51,1.47-5.62,4.24-5.35s5,2.58,6.67,4.88a52,52,0,0,1,10,34.84,49,49,0,0,1-15.5,32c-9.86,9-22.92,13.21-35.57,17.2l-26.42,8.34"/><g class="cls-5"><path class="cls-6" d="M158.45,125.87c-.51-6,3.93-11.17,9-14s10.85-3.91,16.07-6.39c13-6.13,21.18-20.58,21.79-35.4s-5.82-29.62-15.87-40.5c-4.08-4.43-9.1-9.06-9.16-15.09-.07-6.3,6-11.26,12.14-11.18s11.72,4.16,15.37,9.3,5.67,11.26,7.64,17.26c-1.41-2.51,1.47-5.62,4.24-5.35s5,2.58,6.67,4.88a52,52,0,0,1,10,34.84,49,49,0,0,1-15.5,32c-9.86,9-22.92,13.21-35.57,17.2l-26.42,8.34"/></g><path class="cls-4" d="M151.1.42A5.8,5.8,0,0,0,148,7.52a5.81,5.81,0,0,0,7,3.38,5.81,5.81,0,0,0,3.68-6.81,5.81,5.81,0,0,0-6.64-4"/><g class="cls-5"><path class="cls-6" d="M151.1.42A5.8,5.8,0,0,0,148,7.52a5.81,5.81,0,0,0,7,3.38,5.81,5.81,0,0,0,3.68-6.81,5.81,5.81,0,0,0-6.64-4"/></g><path class="cls-4" d="M183.67,385.74c-3.24-6.71-.42-15.08,4.74-20.46s12.21-8.45,19-11.46c15.05-6.63,31-14.53,38.65-29.09,2.58-4.91,4-10.31,5.5-15.67,2.81-10.36,5.45-22.13-.2-31.26-1.63-2.63-4.07-5-7.12-5.51-3.46-.61-7,1.3-9.15,4.09s-3.05,6.34-3.49,9.83c-.84,6.63-.15,13.38-.85,20s-3.13,13.61-8.62,17.43c-6.66,4.65-16.17,3.61-22.64,8.52-5.23,4-7.22,10.83-11.31,16-3.43,4.32-8.24,7.26-12.64,10.58s-8.67,7.36-10.16,12.67A15,15,0,0,0,186.3,389"/><g class="cls-5"><path class="cls-6" d="M183.67,385.74c-3.24-6.71-.42-15.08,4.74-20.46s12.21-8.45,19-11.46c15.05-6.63,31-14.53,38.65-29.09,2.58-4.91,4-10.31,5.5-15.67,2.81-10.36,5.45-22.13-.2-31.26-1.63-2.63-4.07-5-7.12-5.51-3.46-.61-7,1.3-9.15,4.09s-3.05,6.34-3.49,9.83c-.84,6.63-.15,13.38-.85,20s-3.13,13.61-8.62,17.43c-6.66,4.65-16.17,3.61-22.64,8.52-5.23,4-7.22,10.83-11.31,16-3.43,4.32-8.24,7.26-12.64,10.58s-8.67,7.36-10.16,12.67A15,15,0,0,0,186.3,389"/></g><polygon class="cls-7" points="190.7 371.62 246.54 374 247.88 377.26 211.29 436.66 145.23 434.73 190.7 371.62"/><polygon class="cls-1" points="142.72 428.94 209.18 432.74 243.9 378.87 219.52 380.85 157.83 402.57 142.72 428.94"/><path class="cls-2" d="M133.39,424.94l61,1c-2.54-7.81,3.44-18.81,11.65-22.5,5.43-2.46,15.67-5.63,21-8.34,10-5.15,19.1-14.89,18.3-23.26l-25.06-.8-32-1.23c-2.68,7.93-8.4,13.13-17.1,16.26-7.78,2.8-16.64,2.79-24.24,6-12.22,5.12-18.09,21.71-13.54,32.93"/><path class="cls-7" d="M133.39,424.94s-.06-.13-.15-.39l-.42-1.18a12.47,12.47,0,0,1-.52-2,20.55,20.55,0,0,1-.42-2.78,27.78,27.78,0,0,1,.48-7.76,28.88,28.88,0,0,1,3.92-9.69,23,23,0,0,1,1.75-2.45c.33-.4.64-.82,1-1.21l1.13-1.14a9.78,9.78,0,0,1,1.22-1.09c.43-.35.85-.72,1.31-1a20.84,20.84,0,0,1,3-1.78c4.23-2.13,9.28-3,14.54-4,2.64-.48,5.35-1,8.08-1.73a37.71,37.71,0,0,0,8-3.24,27,27,0,0,0,3.76-2.46,23,23,0,0,0,3.33-3.15,24.07,24.07,0,0,0,4.64-8.19l0-.16h.18l26.65,1c9.24.36,18.82.61,28.61.94l1.79.05h.22l0,.22a13.46,13.46,0,0,1-.81,5.64,21.38,21.38,0,0,1-1.11,2.6c-.48.81-.92,1.64-1.46,2.4a37.09,37.09,0,0,1-7.56,8,44.46,44.46,0,0,1-9.13,5.64c-3.22,1.45-6.48,2.63-9.67,3.81s-6.35,2.3-9.35,3.6a18.7,18.7,0,0,0-4.1,2.49c-.65.47-1.19,1.05-1.78,1.57a23.53,23.53,0,0,0-1.57,1.76,22.58,22.58,0,0,0-4.27,8,14.86,14.86,0,0,0-.15,8.53l.08.28h-.28L150,425.32l-12.31-.25-3.23-.08c-.73,0-1.1-.05-1.1-.05h1.11l3.22,0,12.31.14,44.39.61-.19.27a15.28,15.28,0,0,1,.12-8.78,22.87,22.87,0,0,1,4.34-8.18c.47-.65,1.06-1.19,1.59-1.79a23.25,23.25,0,0,1,1.82-1.61,18.65,18.65,0,0,1,4.2-2.56c3-1.32,6.18-2.44,9.37-3.62s6.44-2.37,9.63-3.81a44.13,44.13,0,0,0,9-5.58,36.59,36.59,0,0,0,7.46-7.89c.54-.74,1-1.55,1.43-2.35a22.68,22.68,0,0,0,1.09-2.53,13.23,13.23,0,0,0,.78-5.43l.24.22-1.79-.06c-9.8-.32-19.37-.58-28.62-.95l-26.65-1,.22-.16a24.49,24.49,0,0,1-4.73,8.33,23.33,23.33,0,0,1-3.4,3.2,27.16,27.16,0,0,1-3.82,2.49,38.25,38.25,0,0,1-8.14,3.26c-2.75.75-5.48,1.24-8.12,1.72-5.27.93-10.29,1.82-14.46,3.9a22.52,22.52,0,0,0-2.94,1.74c-.45.32-.86.69-1.29,1a10.39,10.39,0,0,0-1.21,1.07l-1.12,1.13c-.35.38-.66.79-1,1.18a24.2,24.2,0,0,0-1.75,2.42,29,29,0,0,0-3.94,9.58,28.11,28.11,0,0,0-.54,7.71,19,19,0,0,0,.38,2.76,14.43,14.43,0,0,0,.48,2c.17.51.29.91.38,1.19A3.83,3.83,0,0,1,133.39,424.94Z"/><path class="cls-7" d="M205.41,370.77s.08-.39.14-1.09a6.21,6.21,0,0,0-.48-2.89,6,6,0,0,0-2.89-3.09,6.64,6.64,0,0,0-5.14-.18,6.71,6.71,0,0,0-3.71,3.57,7.32,7.32,0,0,0,.45,7c.38.6.66.88.63.91a2.85,2.85,0,0,1-.79-.8,7,7,0,0,1-1.23-2.79,7.59,7.59,0,0,1,.52-4.5,7.12,7.12,0,0,1,4-3.86,7,7,0,0,1,5.51.24,6.19,6.19,0,0,1,3,3.37,5.88,5.88,0,0,1,.34,3,4.29,4.29,0,0,1-.2.81C205.47,370.68,205.43,370.77,205.41,370.77Z"/><path class="cls-7" d="M215,370.77s.08-.39.13-1.09a6.08,6.08,0,0,0-.48-2.89,5.93,5.93,0,0,0-2.88-3.09,6.64,6.64,0,0,0-5.14-.18,6.73,6.73,0,0,0-3.72,3.57,7.49,7.49,0,0,0-.59,4.25,7.16,7.16,0,0,0,1,2.75c.38.6.66.88.63.91a2.85,2.85,0,0,1-.79-.8,6.69,6.69,0,0,1-1.23-2.79,7.5,7.5,0,0,1,.51-4.5,7.12,7.12,0,0,1,4-3.86,7,7,0,0,1,5.52.24,6.17,6.17,0,0,1,3,3.37,6,6,0,0,1,.35,3,4.16,4.16,0,0,1-.21.81A1.28,1.28,0,0,1,215,370.77Z"/><path class="cls-7" d="M222.24,371.26s.06-.39.08-1.09a6.13,6.13,0,0,0-.65-2.85,5.91,5.91,0,0,0-3-2.93,6.59,6.59,0,0,0-8.65,3.89,7.35,7.35,0,0,0-.35,4.28,7.17,7.17,0,0,0,1.2,2.68c.41.57.71.84.68.87a2.68,2.68,0,0,1-.83-.75,6.83,6.83,0,0,1-1.39-2.72,7.51,7.51,0,0,1,.26-4.52A7,7,0,0,1,218.8,364a6.16,6.16,0,0,1,3.19,3.2,6,6,0,0,1,.52,3,4.37,4.37,0,0,1-.16.82C222.29,371.18,222.26,371.27,222.24,371.26Z"/><path class="cls-7" d="M230,371.71c-.05,0,0-.4,0-1.1a6.24,6.24,0,0,0-.8-2.81,5.88,5.88,0,0,0-3.2-2.76,6.62,6.62,0,0,0-5.13.38,6.69,6.69,0,0,0-3.3,4,7.32,7.32,0,0,0,1.21,6.9c.44.55.76.8.73.83a2.54,2.54,0,0,1-.87-.7,6.68,6.68,0,0,1-1.53-2.64,7.59,7.59,0,0,1,0-4.53,7.1,7.1,0,0,1,3.51-4.27,7,7,0,0,1,5.51-.36,6.16,6.16,0,0,1,3.36,3,5.82,5.82,0,0,1,.68,3,4.16,4.16,0,0,1-.11.82C230.08,371.62,230.05,371.71,230,371.71Z"/><path class="cls-7" d="M237.83,371.52s0-.4,0-1.1a6.13,6.13,0,0,0-.87-2.78,5.93,5.93,0,0,0-3.28-2.67,6.64,6.64,0,0,0-5.12.52,6.73,6.73,0,0,0-3.19,4.05,7.46,7.46,0,0,0,0,4.3,7.32,7.32,0,0,0,1.41,2.57c.46.54.77.78.75.81a2.48,2.48,0,0,1-.89-.68,6.76,6.76,0,0,1-1.6-2.6,7.46,7.46,0,0,1-.11-4.52,7,7,0,0,1,8.89-4.89,6.18,6.18,0,0,1,3.44,2.93,5.86,5.86,0,0,1,.76,3,3.92,3.92,0,0,1-.09.83C237.88,371.43,237.85,371.53,237.83,371.52Z"/><path class="cls-7" d="M244.41,372.4s0-.4,0-1.1a6.24,6.24,0,0,0-.76-2.82,5.94,5.94,0,0,0-3.17-2.8,6.6,6.6,0,0,0-8.49,4.25,7.45,7.45,0,0,0-.17,4.28,7.18,7.18,0,0,0,1.31,2.63c.43.56.74.81.71.84A2.84,2.84,0,0,1,233,377a6.87,6.87,0,0,1-1.49-2.66,7.55,7.55,0,0,1,.07-4.53,7.08,7.08,0,0,1,3.56-4.22,7,7,0,0,1,5.52-.3,6.17,6.17,0,0,1,3.32,3.06,5.85,5.85,0,0,1,.64,3,4.14,4.14,0,0,1-.12.83A.86.86,0,0,1,244.41,372.4Z"/><path class="cls-4" d="M135.84,196.19,161,192.47l-12-17-6.45.38a11.5,11.5,0,0,0-9.88,6.93h0a11.53,11.53,0,0,0-.73,6.74Z"/><path class="cls-8" d="M135.84,196.19,161,192.47l-12-17-6.45.38a11.5,11.5,0,0,0-9.88,6.93h0a11.53,11.53,0,0,0-.73,6.74Z"/><path class="cls-9" d="M243.85,224.06c.26.72.55,1.57.83,2.59a7.66,7.66,0,0,1,.27,2.69,12.23,12.23,0,0,1-.56,3.33c-.42,1,.54,1.92,1.36,1.44s2-3.08,1.94-6.42,3.34.66,4.61,2.1,5.41,5.71,6.17,5.67c1.1-.06,1.24-1.25-.06-2.66s-4.91-5.91-4.12-6.54,7.15,6.79,7.15,6.79,1.1,1.81,2,1.1c1.7-1.26-5.65-8.65-6.37-9.33-.5-.48.34-1.2.85-.66s6.18,7.55,7.92,6.27c1.33-1-6-6.13-6.36-8.23s5.16,4.47,6.39,3.49c.46-.37.76-.71-3-4-1.81-1.61-8.67-6.41-8.67-6.41l-20.63-59.09-15.94,9.13Z"/><path class="cls-9" d="M121,112.3,97.93,84.78h0A15.26,15.26,0,0,0,96.8,82a8.61,8.61,0,0,0-5.44-4.54c-1.47-.32-3.14-.16-4.29-1.13-.51-.43-.85-1-1.39-1.44s-1.43-.47-1.78.1a1.55,1.55,0,0,0,.1,1.37,12.71,12.71,0,0,0,4,5.17c-2.16.66-5.25,1.65-5.25,1.65s-4.88-5.29-7.37-5.27,2,4.72,2,4.72S73.4,79,72.16,80s1.93,3.78,1.93,3.78a5.26,5.26,0,0,0-3.24-.9c-1.13.18-2.1,1.52-1.49,2.49a2.6,2.6,0,0,0,1,.81l6.14,3.42a7.55,7.55,0,0,0,3.28,1.2c3.12.09,5.48-1.83,8.6-1.75,0,0,17.39,36.61,19.15,38.5s40,4.46,40,4.46L169.62,113Z"/><path class="cls-4" d="M190.26,311.72,213.82,322,201.2,351.35c-2.73-1.38-1.84-19-1.84-19L184,326.41Z"/><g class="cls-10"><path class="cls-6" d="M202,322.73a1.31,1.31,0,0,1,1.73-.24,1.27,1.27,0,0,1,.25,1.71,1.38,1.38,0,0,1-1.83.25,1.3,1.3,0,0,1-.06-1.81"/></g><path class="cls-11" d="M213.82,322,211.4,321l-11.19,28.51s0,1.55,1,1.8Z"/><path class="cls-7" d="M199,332.77c.15.06.52-.63,1.28-1.14s1.53-.62,1.53-.78-.92-.3-1.83.34S198.87,332.75,199,332.77Z"/><path class="cls-7" d="M199,336.4c.13.09.64-.42,1.45-.65s1.52-.09,1.58-.24-.72-.58-1.73-.28S198.83,336.34,199,336.4Z"/><path class="cls-7" d="M201.9,339.73c.08-.11-.55-.62-1.49-.59s-1.55.57-1.45.68.69-.12,1.46-.14S201.82,339.87,201.9,339.73Z"/><path class="cls-7" d="M195.66,331c.16,0,.24-.75.64-1.53s.93-1.31.84-1.44-.86.26-1.32,1.19S195.52,331.05,195.66,331Z"/><path class="cls-7" d="M192.48,328.83a3,3,0,0,0,.62-1.47,6.91,6.91,0,0,0,.19-1.74,7.7,7.7,0,0,0-.09-1,1.89,1.89,0,0,0-.15-.59.69.69,0,0,0-.74-.4.85.85,0,0,0-.59.49,2.14,2.14,0,0,0-.17.59,5.35,5.35,0,0,0-.07,1,5.66,5.66,0,0,0,.3,1.74c.34,1,.78,1.42.83,1.38s-.23-.57-.46-1.48a6.18,6.18,0,0,1-.17-1.63,5.4,5.4,0,0,1,.1-1c0-.35.16-.61.33-.63s.09,0,.16.1a1.87,1.87,0,0,1,.11.44,8.31,8.31,0,0,1,.11,1,8.64,8.64,0,0,1-.07,1.66A11.28,11.28,0,0,0,192.48,328.83Z"/><path class="cls-7" d="M192.76,328.73c.05,0-.35-.54-1.25-1a4.88,4.88,0,0,0-1.7-.49,4.59,4.59,0,0,0-1.05,0,1.3,1.3,0,0,0-1.15.62.76.76,0,0,0,.15.79,2.53,2.53,0,0,0,.47.38,3.63,3.63,0,0,0,2.78.45c1-.25,1.44-.77,1.39-.81a9.84,9.84,0,0,1-1.46.43,3.68,3.68,0,0,1-1.58-.13,3,3,0,0,1-.84-.39c-.29-.18-.49-.4-.41-.51a.92.92,0,0,1,.7-.3,5.19,5.19,0,0,1,1,0,6.14,6.14,0,0,1,1.59.35C192.24,328.42,192.71,328.8,192.76,328.73Z"/><path class="cls-4" d="M172.12,352.07l9.75,20.41,3,18.36a2.31,2.31,0,0,0,2.82,1.88h0a2.29,2.29,0,0,0,1.61-1.38c1.79-4.43,8.29-20.78,7.5-22.23-.93-1.69-8.85-22.21-8.85-22.21Z"/><path class="cls-11" d="M187.74,392.72l8.48-25,.39.87a3.49,3.49,0,0,1,.18,2.4c-.62,2.13-2.46,8-7.38,20.32a2.33,2.33,0,0,1-1.67,1.41Z"/><g class="cls-10"><path class="cls-6" d="M189,363a1.38,1.38,0,0,0,.4,1.82,1.34,1.34,0,0,0,1.81-.38,1.47,1.47,0,0,0-.43-1.93,1.41,1.41,0,0,0-1.85.6"/></g><path class="cls-7" d="M188.4,381.59a7.07,7.07,0,0,0-2.53-.79,6.8,6.8,0,0,0-2.58.61s.15-.32.6-.61a3.66,3.66,0,0,1,2-.5,3.63,3.63,0,0,1,2,.64C188.27,381.26,188.44,381.55,188.4,381.59Z"/><path class="cls-7" d="M188.17,385a18.48,18.48,0,0,0-2.22-.07,19.32,19.32,0,0,0-2.14.65,3.25,3.25,0,0,1,4.36-.58Z"/><path class="cls-7" d="M189.54,376.82a23.32,23.32,0,0,0-3.43-.34,22.57,22.57,0,0,0-3.38.67,5.12,5.12,0,0,1,3.36-1.16A5.06,5.06,0,0,1,189.54,376.82Z"/><path class="cls-7" d="M187.1,370.37c0,.14-1.35.18-2.86.79s-2.52,1.5-2.62,1.39a5.73,5.73,0,0,1,5.48-2.18Z"/><path class="cls-7" d="M184.39,364.3a11.72,11.72,0,0,0-3,.75A11,11,0,0,0,179,367c-.06,0,.05-.39.4-.88a5.06,5.06,0,0,1,1.8-1.48,5,5,0,0,1,2.28-.52C184.05,364.11,184.4,364.24,184.39,364.3Z"/><path class="cls-7" d="M180.91,363.88s-.2-.24-.38-.76a6,6,0,0,1-.3-2.33,2.6,2.6,0,0,1,.52-1.61.94.94,0,0,1,1-.24,1.56,1.56,0,0,1,.75.79,3.28,3.28,0,0,1-1.38,3.94,3.81,3.81,0,0,1-4.22-.28,1.31,1.31,0,0,1-.5-1,.89.89,0,0,1,.67-.83,3.2,3.2,0,0,1,1.68.09,6.94,6.94,0,0,1,2.12,1c.46.32.66.55.64.57a10.6,10.6,0,0,0-2.84-1.19,2.94,2.94,0,0,0-1.47,0,.49.49,0,0,0-.37.45.94.94,0,0,0,.37.62,3.39,3.39,0,0,0,3.66.2,2.85,2.85,0,0,0,1.22-3.33,1.11,1.11,0,0,0-.5-.56.51.51,0,0,0-.58.12,2.47,2.47,0,0,0-.46,1.36A8.91,8.91,0,0,0,180.91,363.88Z"/><path class="cls-7" d="M205,314.22l-26.71-18,8.84-86.79-25.3-14.77-23.13-5.36s-9.66,20.09-14,33c-9.14,27.37-15.55,37.17-14.09,57,.47,6.28,23.65,22,38.29,30.71a45.25,45.25,0,0,0,.78,5.19c5,22.62,20.27,52.7,20.27,52.7l23.21-10.79-7.49-25.65,7.8,4.55Zm-57.41-56,3.12-13.91c-.66,8.85-1.26,18.07-1.69,26.92A27.47,27.47,0,0,1,147.54,258.25Z"/><path class="cls-12" d="M169.94,367.89a2.21,2.21,0,0,1-.18-.37c-.11-.27-.27-.63-.48-1.09l-1.79-4.24c-1.54-3.68-3.75-9-6.41-15.64s-5.78-14.54-9-23.43c-.79-2.23-1.56-4.52-2.29-6.89-.32-1.2-.73-2.38-.94-3.65-.06-.31-.13-.63-.18-.94l-.11-.95c-.07-.63-.14-1.27-.22-1.91-.27-2.55-.49-5.16-.66-7.81-.08-1.32-.16-2.66-.21-4s-.11-2.71,0-4.07c.39-10.9,1.31-21.24,2.06-30.65s1.5-17.87,2.09-25,1-12.87,1.21-16.86c.12-2,.19-3.54.24-4.59,0-.5,0-.9.07-1.19s0-.41,0-.41a1.85,1.85,0,0,1,0,.41c0,.29,0,.69,0,1.2,0,1.05-.05,2.6-.15,4.59-.17,4-.52,9.76-1,16.88s-1.23,15.59-2,25-1.63,19.75-2,30.62c-.08,1.36,0,2.7,0,4s.12,2.68.2,4q.25,4,.66,7.79l.21,1.91.11.94c.05.31.12.61.18.92a36.27,36.27,0,0,0,.91,3.59c.72,2.36,1.49,4.65,2.27,6.88,3.14,8.89,6.25,16.8,8.85,23.45s4.77,12,6.26,15.7l1.7,4.27.44,1.11A1.53,1.53,0,0,1,169.94,367.89Z"/><path class="cls-12" d="M152.09,211.27s-.23-.15-.61-.49a6.53,6.53,0,0,1-1.13-1.82,19.69,19.69,0,0,1-1.13-6.88,58.24,58.24,0,0,1,.33-7,15.7,15.7,0,0,1,.4-2.85,16.88,16.88,0,0,1,0,2.88c-.09,1.77-.24,4.22-.19,6.92a22.25,22.25,0,0,0,1,6.76,7.63,7.63,0,0,0,.95,1.82C152,211,152.11,211.24,152.09,211.27Z"/><path class="cls-12" d="M142.1,190.61a5.73,5.73,0,0,1,.2,2.43,11.13,11.13,0,0,1-6.38,9.37,5.82,5.82,0,0,1-2.34.71c0-.08.88-.32,2.18-1A11.79,11.79,0,0,0,142,193C142.13,191.55,142,190.62,142.1,190.61Z"/><path class="cls-12" d="M183.6,241.07a1,1,0,0,1,0,.27c0,.2,0,.45-.07.77-.07.71-.17,1.71-.29,3-.29,2.61-.69,6.32-1.19,10.89-1,9.22-2.48,21.9-4.07,35.91a65.36,65.36,0,0,0,1.32,19.7,68,68,0,0,0,2.42,8.31c.9,2.56,1.73,4.95,2.5,7.14,1.5,4.34,2.73,7.87,3.59,10.35l.95,2.82.23.74a1.17,1.17,0,0,1,.07.25s-.05-.08-.11-.24l-.29-.72-1-2.79c-.89-2.47-2.17-6-3.73-10.3-.79-2.18-1.64-4.56-2.56-7.12a67.37,67.37,0,0,1-2.48-8.34,65,65,0,0,1-1.36-19.84c1.56-14.05,3.11-26.71,4.21-35.9.56-4.56,1-8.27,1.34-10.88.17-1.25.3-2.24.39-3,0-.31.09-.57.12-.77S183.6,241.07,183.6,241.07Z"/><polyline class="cls-9" points="138.65 189.15 142.75 178.68 152.09 192.62 139.63 189.5"/><path class="cls-4" d="M236.47,157.68l-11.09-24.87c-1.33-4-3.82-4.62-5.9-6.94l-27.8-15.67c-20.25-8.3-31.28,19.52-31.28,19.52l-18.41,42c-21.65,7.18-6.32,23.81-6.32,23.81s-5.89-10.24-.1-13.93c6.07-3.87,12.79,6.32,19.25,16,7.63,11.42,32.41,18.84,32.41,18.84,2.89-3.06,2.08-13.75,4.35-19.49.72-1.82,17.88-41.56,17.88-41.56l6.65,16.11s8.53-10,12.66-11.58A47.39,47.39,0,0,1,236.47,157.68Z"/><path class="cls-7" d="M187.23,175.36a4.36,4.36,0,0,1-.85.58,15.1,15.1,0,0,1-2.52,1.2,18.08,18.08,0,0,1-17.56-2.71,16.29,16.29,0,0,1-2.05-1.9,3.82,3.82,0,0,1-.63-.82c.07-.06,1,1.07,2.89,2.44a18.79,18.79,0,0,0,17.23,2.66C186,176.07,187.18,175.27,187.23,175.36Z"/><path class="cls-4" d="M141.17,135.92h0l17.15,1.62,27.44-29L169.62,108l-28.74,2.84A74.36,74.36,0,0,1,141.17,135.92Z"/><path class="cls-7" d="M165,120.64a2.49,2.49,0,0,1-.21.53l-.69,1.48-2.54,5.43c-2.14,4.6-5,11-8,18.1s-5.86,13.53-8,18.14c-1.05,2.3-1.92,4.16-2.55,5.44l-.72,1.46a2.32,2.32,0,0,1-.29.49,2.73,2.73,0,0,1,.2-.53c.16-.4.38-.89.64-1.5.59-1.36,1.4-3.23,2.4-5.51,2-4.7,4.78-11.11,7.83-18.19s5.95-13.48,8.17-18c1.1-2.28,2-4.11,2.69-5.37l.77-1.44A2.1,2.1,0,0,1,165,120.64Z"/><path class="cls-7" d="M217.34,129.07c0,.09-1,.64-2.47,1.87a18.53,18.53,0,0,0-2.32,2.4,20.15,20.15,0,0,0-2.17,3.45,20.39,20.39,0,0,0-1.36,3.84,17.48,17.48,0,0,0-.44,3.3c-.08,1.91.15,3.09,0,3.1a3.09,3.09,0,0,1-.21-.81,7.33,7.33,0,0,1-.13-1,10.47,10.47,0,0,1-.07-1.31,17,17,0,0,1,.35-3.4,19.4,19.4,0,0,1,1.36-4,18.88,18.88,0,0,1,2.27-3.52,15.85,15.85,0,0,1,2.45-2.38,12.9,12.9,0,0,1,1.07-.76,5.79,5.79,0,0,1,.85-.5A2.62,2.62,0,0,1,217.34,129.07Z"/><path class="cls-9" d="M222.13,89.24,206,119.32A10.6,10.6,0,0,1,192.35,124h0a10.61,10.61,0,0,1-5-14.64c1.51-2.87,2.77-5.21,2.77-5.21s-7-4.53-3.72-12.09c2.92-6.74,13.63-25.78,15.91-29.8l13.56,6.06A15.24,15.24,0,0,1,222.13,89.24Z"/><path class="cls-13" d="M190.12,104a19.19,19.19,0,0,0,11,1.6s-4.74,4.37-11.94.34Z"/><path class="cls-7" d="M195.29,80a1.17,1.17,0,0,0,.55,1.55,1.13,1.13,0,0,0,1.54-.48,1.18,1.18,0,0,0-.55-1.54A1.12,1.12,0,0,0,195.29,80Z"/><path class="cls-7" d="M195.35,79c.07.2,1.15,0,2.3.49s1.75,1.47,1.94,1.39.06-.35-.19-.79a3.19,3.19,0,0,0-1.46-1.28,3.08,3.08,0,0,0-1.92-.21C195.54,78.73,195.31,78.93,195.35,79Z"/><path class="cls-7" d="M206.09,85.3a1.17,1.17,0,0,0,.56,1.54,1.12,1.12,0,0,0,1.54-.47,1.18,1.18,0,0,0-.55-1.54A1.13,1.13,0,0,0,206.09,85.3Z"/><path class="cls-7" d="M206.61,84.32c.07.2,1.15,0,2.3.48s1.75,1.48,1.93,1.39.07-.34-.18-.78a3.2,3.2,0,0,0-1.46-1.29,3.13,3.13,0,0,0-1.92-.2C206.8,84,206.57,84.23,206.61,84.32Z"/><path class="cls-7" d="M198.58,91a8.44,8.44,0,0,0-1.72-1.18c-.29-.16-.54-.34-.5-.57s.29-.5.59-.78l1.88-1.86a42.49,42.49,0,0,0,4.59-5,43.35,43.35,0,0,0-5,4.62l-1.85,1.89a1.87,1.87,0,0,0-.67,1.09.78.78,0,0,0,.29.64,2.15,2.15,0,0,0,.47.3A7.66,7.66,0,0,0,198.58,91Z"/><path class="cls-7" d="M201.62,93.33c-.18-.09-.74,1.16-2.22,1.57s-2.74-.33-2.83-.15.19.37.75.64a3.39,3.39,0,0,0,2.33.2,2.94,2.94,0,0,0,1.78-1.35C201.71,93.74,201.71,93.36,201.62,93.33Z"/><path class="cls-7" d="M208.33,79.66c0,.37,1.2.73,2.48,1.5s2.21,1.63,2.52,1.43c.14-.1.08-.48-.22-1a5,5,0,0,0-1.65-1.56,4.83,4.83,0,0,0-2.16-.67C208.71,79.35,208.35,79.49,208.33,79.66Z"/><path class="cls-7" d="M197.27,75.87c.08.35,1,.44,2,.85s1.69,1,2,.78c.14-.1.13-.42-.11-.82a3.09,3.09,0,0,0-3.19-1.32C197.47,75.48,197.24,75.7,197.27,75.87Z"/><path class="cls-9" d="M217.07,93.75c.15,0,5.85.78,3.39,5.85s-7.05,1.54-7,1.39S217.07,93.75,217.07,93.75Z"/><path class="cls-13" d="M216,99.83s.06.1.17.24a1,1,0,0,0,.65.34,2.45,2.45,0,0,0,2-1.47,3.26,3.26,0,0,0,.36-1.38,1.11,1.11,0,0,0-.33-1,.48.48,0,0,0-.64,0c-.13.1-.15.22-.18.22s-.07-.14.07-.33a.64.64,0,0,1,.36-.22.75.75,0,0,1,.55.11,1.39,1.39,0,0,1,.54,1.23,3.48,3.48,0,0,1-.38,1.56,2.54,2.54,0,0,1-2.36,1.56,1.07,1.07,0,0,1-.74-.52C215.91,100,215.93,99.83,216,99.83Z"/><path class="cls-7" d="M220,94.85a3,3,0,0,0-3,.16c-.67.59-1.11,1.39-1.77,2a2,2,0,0,1-2.42.38,1.73,1.73,0,0,1-.54-1.65A4.68,4.68,0,0,1,213,94c1.38-2.26,2.95-4.42,4.13-6.79a13.51,13.51,0,0,0,1.61-7.67,7.4,7.4,0,0,0-4.5-6.07c-1.66-.59-3.49-.41-5.18-.9a6.87,6.87,0,0,1-4.44-4.07,12,12,0,0,0-.66-1.14c.06-.12.65-1.14,1.25-1.35,4.45-1.5,10.49.23,14.18,3.13a16.46,16.46,0,0,1,6.32,12.29c.05,4.7-2.91,9.88-5.66,13.38"/><path class="cls-7" d="M220.06,94.35c1.4-2.4,3.69-4.13,5.43-6.29s2.94-5.21,1.7-7.69c-.42-.85-1.1-1.56-1.46-2.44a12.63,12.63,0,0,1-.49-2.81,9.77,9.77,0,0,0-4.84-7c-1.78-1-3.84-1.4-5.64-2.35-2.86-1.5-4.95-4.29-7.95-5.47a3.8,3.8,0,0,0-3.11-.1,1.86,1.86,0,0,0-.77,2.69,1.63,1.63,0,0,0-2.25-1.08,2.45,2.45,0,0,0-1.27,2.41,5.35,5.35,0,0,0,1.09,2.64,13.45,13.45,0,0,0,7.7,5.3l6.9-.53,5.66,4.19L225,82.46l-7.59,9.86Z"/><path class="cls-4" d="M352.15,228.49a25.93,25.93,0,1,0-42.24,11.78L308,246.56l21.74,6.62s1.21-3.49,2.21-6.63A26,26,0,0,0,352.15,228.49Z"/><path class="cls-7" d="M321.9,250.68a2.78,2.78,0,0,1,.12-.3l.37-.87c.34-.76.83-1.88,1.51-3.31s1.52-3.16,2.64-5.12a39.27,39.27,0,0,1,4.36-6.25,25.4,25.4,0,0,1,3.18-3.11,4.7,4.7,0,0,1,2.16-1,2.67,2.67,0,0,1,2.33.79,1.77,1.77,0,0,1,.48,1.23,1.8,1.8,0,0,1-.49,1.25,3.65,3.65,0,0,1-2.42,1.07,7.08,7.08,0,0,1-5.05-1.93,7.23,7.23,0,0,1-2.23-5.23,5.52,5.52,0,0,1,.73-2.92,2.33,2.33,0,0,1,2.78-1.05,1.67,1.67,0,0,1,1,1.27,2.42,2.42,0,0,1-.26,1.6,5.15,5.15,0,0,1-2.5,1.94,7.73,7.73,0,0,1-6.3-.07,6.78,6.78,0,0,1-3.7-5.06,4,4,0,0,1,.75-3.07,2,2,0,0,1,1.43-.77,1.94,1.94,0,0,1,1.48.61,2.57,2.57,0,0,1,.71,1.41,4,4,0,0,1-.05,1.55,7.56,7.56,0,0,1-1.25,2.73,7.7,7.7,0,0,1-4.77,3.12,7.87,7.87,0,0,1-5.35-.85,4.18,4.18,0,0,1-1.87-1.87,2,2,0,0,1,.6-2.45,1.7,1.7,0,0,1,1.28-.21,2.46,2.46,0,0,1,1.11.6,3.72,3.72,0,0,1,1,2.17c.21,1.54.31,3,.43,4.42.46,5.62.6,10.19.67,13.35,0,1.58,0,2.8,0,3.63v.95c0,.21,0,.32,0,.32a2,2,0,0,1,0-.32c0-.23,0-.54,0-.95,0-.84-.06-2.06-.1-3.63-.11-3.15-.29-7.72-.77-13.33-.13-1.4-.24-2.89-.45-4.4a3.57,3.57,0,0,0-.93-2,1.56,1.56,0,0,0-2.57,1.76,3.93,3.93,0,0,0,1.76,1.73,7.56,7.56,0,0,0,5.16.81,7.45,7.45,0,0,0,4.57-3,7.24,7.24,0,0,0,1.19-2.62,2.83,2.83,0,0,0-.57-2.68,1.65,1.65,0,0,0-1.25-.52,1.68,1.68,0,0,0-1.19.66,3.59,3.59,0,0,0-.68,2.83,6.42,6.42,0,0,0,3.52,4.81,7.43,7.43,0,0,0,6,.07,4.83,4.83,0,0,0,2.34-1.81,2,2,0,0,0,.24-1.38,1.38,1.38,0,0,0-.81-1,1.83,1.83,0,0,0-1.36,0,2.22,2.22,0,0,0-1,.9,5.14,5.14,0,0,0-.69,2.75,6.89,6.89,0,0,0,2.14,5,6.75,6.75,0,0,0,4.82,1.87,3.41,3.41,0,0,0,2.24-1,1.55,1.55,0,0,0,0-2.12,2.42,2.42,0,0,0-2.1-.72,4.62,4.62,0,0,0-2,1,24.78,24.78,0,0,0-3.15,3.06,39.39,39.39,0,0,0-4.38,6.19c-1.12,1.94-2,3.67-2.68,5.09l-1.56,3.28c-.17.37-.31.65-.4.86Z"/><path class="cls-7" d="M326.82,256.72,308.16,251a1.47,1.47,0,0,1-1-1.83h0a1.47,1.47,0,0,1,1.83-1l18.66,5.69a1.47,1.47,0,0,1,1,1.83h0A1.47,1.47,0,0,1,326.82,256.72Z"/><path class="cls-7" d="M326.45,257.94l-18.67-5.68a1.47,1.47,0,0,0-.85,2.81l2.05.63,1.13,6a1.87,1.87,0,0,0,1.3,1.45l6.67,2a1.87,1.87,0,0,0,1.9-.5l4.22-4.37,1.39.42a1.47,1.47,0,0,0,.86-2.82Z"/><g class="cls-14"><path class="cls-6" d="M316.25,200.2a19,19,0,0,1,6-1.81,13.89,13.89,0,0,1,4.16.05c1,.19,1.47.44,1.46.66,0,.48-2.12.58-5.17,1.51A22.47,22.47,0,0,0,312.44,207a22.75,22.75,0,0,0-5.19,10.92c-.58,3.14-.45,5.23-.92,5.32-.21,0-.52-.44-.81-1.39a13.63,13.63,0,0,1-.51-4.15,19.51,19.51,0,0,1,1.13-6.16,20.56,20.56,0,0,1,3.93-6.68"/></g><g class="cls-14"><path class="cls-6" d="M333.49,202c-1.57-.5-2.83-1.35-2.73-2.24.05-.43.48-.79,1.15-1a4.82,4.82,0,0,1,2.52.14,4.77,4.77,0,0,1,2.16,1.31c.46.53.61,1.06.41,1.45"/></g><path class="cls-12" d="M319.5,265.05s-.44-.32-1.17-.78a11,11,0,0,0-3-1.37,11.11,11.11,0,0,0-3.32-.37c-.86,0-1.38.14-1.4.09a3.9,3.9,0,0,1,1.39-.32,9.46,9.46,0,0,1,3.41.29,9.36,9.36,0,0,1,3.09,1.49A4.27,4.27,0,0,1,319.5,265.05Z"/><path class="cls-12" d="M324.22,260.41c0,.09-3.42-.87-7.58-2.14s-7.52-2.36-7.49-2.45,3.42.88,7.58,2.14S324.25,260.33,324.22,260.41Z"/><path class="cls-12" d="M322.37,262.28a11.69,11.69,0,0,1-1.89-.37c-1.16-.28-2.76-.69-4.5-1.19s-3.32-1-4.45-1.4a11.28,11.28,0,0,1-1.8-.69,11,11,0,0,1,1.87.48l4.47,1.3,4.47,1.28A12.64,12.64,0,0,1,322.37,262.28Z"/><path class="cls-4" d="M30,216.87l4,6.37s17-15.6,33.79-11.19C67.78,212.05,52.66,199.23,30,216.87Z"/><path class="cls-4" d="M67.78,212.05s12.45-13.52,30.7-10.44l5,.75-1.59-2.87S70.12,188.61,67.78,212.05Z"/><path class="cls-3" d="M41.5,166.46S16.56,162.17.21,171l26,48.9s21.26-20.49,41.6-7.87Z"/><path class="cls-7" d="M41.5,166.46a1.53,1.53,0,0,1,.13.2c.1.15.22.36.38.62l1.43,2.43L48.85,179l19.12,33a.23.23,0,0,1-.08.3.24.24,0,0,1-.23,0,27.74,27.74,0,0,0-9.56-3.67,30,30,0,0,0-5.39-.37,33.73,33.73,0,0,0-5.52.69,47.56,47.56,0,0,0-20.63,11l-.21.2a.25.25,0,0,1-.35,0s0,0,0-.05L0,171.12a.21.21,0,0,1,.07-.28h0a50.05,50.05,0,0,1,16.62-4.92,84.45,84.45,0,0,1,13.3-.58c3.68.12,6.56.42,8.5.66,1,.12,1.72.23,2.22.31l.56.11.19,0h-.2l-.56-.07c-.5-.07-1.25-.16-2.22-.26-2-.2-4.82-.46-8.49-.54a85.09,85.09,0,0,0-13.26.67A50,50,0,0,0,.3,171.2l.09-.28c7.36,13.84,16.33,30.7,26,48.88l-.4-.06.23-.21a53.06,53.06,0,0,1,9.94-7,41.89,41.89,0,0,1,10.92-4.15,33.72,33.72,0,0,1,5.61-.69,29.24,29.24,0,0,1,5.48.39,27.81,27.81,0,0,1,9.71,3.75l-.3.3-18.91-33-5.32-9.34L42,167.33l-.36-.64Z"/><path class="cls-3" d="M80.7,156.43s-18.86-12-38.88,10L68.1,212.05s5.36-18.51,36.74-12.07Z"/><path class="cls-7" d="M80.7,156.43a1,1,0,0,1,.13.19l.34.59,1.32,2.32,5,8.84L105,199.87a.22.22,0,0,1-.09.3.22.22,0,0,1-.14,0h0l-4.67-.76a19.31,19.31,0,0,0-2.41-.27l-2.47-.2a20.77,20.77,0,0,0-2.5-.06l-2.54,0c-.86,0-1.71.17-2.57.25a17.48,17.48,0,0,0-2.58.39l-2.58.58L80,201c-.84.3-1.62.76-2.44,1.14a7.63,7.63,0,0,0-1.18.67l-1.15.74c-.76.5-1.44,1.13-2.15,1.7a24.38,24.38,0,0,0-1.9,2,15.93,15.93,0,0,0-2.79,4.8h0a.23.23,0,0,1-.31.15.26.26,0,0,1-.14-.11l-1-1.84c-9.3-16.14-18-31.19-25.19-43.76a.21.21,0,0,1,0-.25,44,44,0,0,1,14.23-10.7,28.3,28.3,0,0,1,13.43-2.52A27,27,0,0,1,77.92,155a19.17,19.17,0,0,1,2.1,1l.52.3a1,1,0,0,1,.16.12l-.18-.09-.53-.27c-.47-.23-1.17-.57-2.12-.93a27.8,27.8,0,0,0-8.55-1.8A28.14,28.14,0,0,0,56,155.93,44,44,0,0,0,42,166.6l0-.24,25.26,43.73,1,1.83-.45.06a16.26,16.26,0,0,1,2.89-5,22.39,22.39,0,0,1,1.94-2.07c.73-.59,1.43-1.23,2.21-1.75l1.17-.75a9,9,0,0,1,1.21-.69c.83-.38,1.63-.85,2.49-1.15l2.57-.89,2.62-.59a17.87,17.87,0,0,1,2.61-.39c.88-.08,1.74-.24,2.6-.26l2.57,0a17.75,17.75,0,0,1,2.53.06l2.48.21a19.42,19.42,0,0,1,2.43.27l4.7.79-.24.32L87.26,168.53c-2.08-3.82-3.73-6.83-4.87-8.91l-1.27-2.36-.32-.62Z"/><path class="cls-3" d="M7.23,147.52l28.12,54.15s22.86-1,32.54,10.14L41.82,166.46S26.54,147.52,7.23,147.52Z"/><path class="cls-7" d="M7.23,147.52l.71,0,2.17.09c.24,0,.5,0,.76,0l.82.14,1.88.31a16.68,16.68,0,0,1,2.16.51c.75.23,1.58.39,2.41.72,6.72,2.23,15.73,7.66,23.84,17v0h0l26.1,45.32A.25.25,0,0,1,68,212a.24.24,0,0,1-.3,0h0l-1.11-1.1a23.83,23.83,0,0,0-7.19-4.76,41.61,41.61,0,0,0-8-2.63,67.28,67.28,0,0,0-16-1.58h0a.23.23,0,0,1-.21-.13L15,162.66,9.24,151.48l-1.51-3-.38-.76a1.25,1.25,0,0,1-.12-.24,1.41,1.41,0,0,1,.15.27l.42.77c.37.7.89,1.7,1.58,3l5.87,11.19c5,9.56,12.06,23,20.31,38.82l-.22-.13A67.76,67.76,0,0,1,51.46,203a42.31,42.31,0,0,1,8.14,2.66,24.39,24.39,0,0,1,7.34,4.86l1.13,1.12-.4.29-26-45.37,0,0a65.91,65.91,0,0,0-12.31-11.14,46.92,46.92,0,0,0-11.29-5.88c-.82-.34-1.64-.5-2.39-.74a16.24,16.24,0,0,0-2.13-.54L11.67,148l-.82-.15c-.25,0-.5,0-.73-.06Z"/></g></g></svg>