<svg xmlns="http://www.w3.org/2000/svg" viewBox="0 0 444.63 442.6"><defs><style>.cls-1{fill:#ebebeb;}.cls-2{fill:#f5f5f5;}.cls-3{fill:#e0e0e0;}.cls-4{fill:#fff;}.cls-5{fill:#fafafa;}.cls-6{fill:#263238;}.cls-7{fill:#455a64;}.cls-8{fill:#5a6bff;}.cls-9{opacity:0.2;}.cls-10{fill:#ffbe9d;}.cls-11{fill:#eb996e;}.cls-12{opacity:0.3;}</style></defs><title>Plant</title><g id="Camada_2" data-name="Camada 2"><g id="Plant"><path class="cls-1" d="M428.14,216.12l-8.84,4.73s4,7.42-3.67,11.67a8.11,8.11,0,0,1-9.37-.86,9,9,0,0,1-3.19-7.49c.17-3.28,2.26-7.28,8.78-9.41l-10.66-19.93-8.74,4.67,6.24,11.67s-10.56,9.72-3.34,23.23c6.91,12.93,20.1,9.73,25.07,7.08C424.21,239.45,436.64,231.63,428.14,216.12Z"/><rect class="cls-1" x="387.35" y="184.24" width="10.06" height="9.39" transform="translate(827.48 170.6) rotate(151.87)"/><path class="cls-1" d="M75.71,36.46l8.2,2.84s2.38-6.89,9.58-4.54a7,7,0,0,1,5,6.46,7.79,7.79,0,0,1-2.88,6.44c-2.18,1.81-5.95,2.84-11.14,0L78,66.11l8.11,2.8,3.74-10.83s12.39,1,16.72-11.54c4.14-12-5.65-18.5-10.25-20.09C92.84,25.24,80.56,22,75.71,36.46Z"/><rect class="cls-1" x="75.14" y="71.11" width="8.71" height="8.13" transform="translate(28.91 -21.84) rotate(19.06)"/><path class="cls-2" d="M33.08,26.3l4.79-1.39a4.24,4.24,0,0,1,3-5.3A4,4,0,0,1,45.33,21a4.47,4.47,0,0,1,.78,4c-.42,1.57-1.85,3.3-5.24,3.67L44,39.45l4.74-1.37L46.9,31.75a9.62,9.62,0,0,0,4-10.95c-2-7-8.77-6.82-11.46-6C37.41,15.36,30.55,17.88,33.08,26.3Z"/><rect class="cls-2" x="45.17" y="40.89" width="5" height="4.67" transform="translate(-10.13 14.95) rotate(-16.13)"/><path class="cls-3" d="M427.7,154.94l-7.65-.21s-.18,6.42-6.86,6.35a6.2,6.2,0,0,1-5.88-4.12,6.86,6.86,0,0,1,.72-6.18c1.35-2.1,4.25-4,9.38-2.91l.48-17.25-7.57-.21-.28,10.1s-10.68,2.45-11,14.14c-.3,11.19,9.66,14.06,14,14.18C416.26,168.92,427.47,168.44,427.7,154.94Z"/><rect class="cls-3" x="410.43" y="119.79" width="7.68" height="7.17" transform="translate(824.97 258.14) rotate(-178.42)"/><polygon class="cls-2" points="289.83 416.98 289.83 442.27 326.81 442.27 367.6 442.27 367.6 416.98 289.83 416.98"/><polygon class="cls-3" points="286.57 409.91 286.57 416.98 370.32 416.98 370.32 409.91 326.81 409.91 286.57 409.91"/><polygon class="cls-3" points="328.45 442.27 367.6 442.27 367.6 416.98 370.32 416.98 370.32 409.91 326.81 409.91 326.81 416.32 328.45 442.27"/><rect class="cls-3" x="300.71" y="421.06" width="15.77" height="3.81"/><rect class="cls-4" x="298.68" y="429.62" width="20.25" height="8.04"/><path class="cls-3" d="M26.62,343a34.85,34.85,0,0,0-14.94-5.14c-2.44-.25-5.11-.18-7.07,1.3a1.43,1.43,0,0,0-.72,1.29,1.52,1.52,0,0,0,.69.88c6.07,4.64,15.27,5.22,22,1.67"/><path class="cls-3" d="M26.23,342.54a72.86,72.86,0,0,1-9.64-8.49,24.37,24.37,0,0,1-6.05-11.19,4.49,4.49,0,0,1,.48-3.74c7.69,6,13.73,13.77,15.21,23.42"/><path class="cls-3" d="M26.54,342.9a34.8,34.8,0,0,1,.18-12.67,17.11,17.11,0,0,1,6.74-10.45c1.33,3.11.76,6.68-.17,9.93a48.18,48.18,0,0,1-6.7,14.09"/><path class="cls-3" d="M34.08,356.41c-4.58.56-8.57,3-12,6.06a22.72,22.72,0,0,0-6.86,11.77c4.49-.28,8.3-3.45,11.06-7S31,359.8,34,356.48"/><path class="cls-3" d="M35.71,358.57a29.55,29.55,0,0,1,3.42-27.95c2.6,9.28,1.65,19.75-3.42,27.95"/><path class="cls-3" d="M45.68,370.43a21.36,21.36,0,0,0-20.43,11.76c-.26.51-.48,1.15-.14,1.6a1.49,1.49,0,0,0,1.35.4c4-.26,7.6-2.68,10.54-5.44s5.51-5.95,8.77-8.33"/><path class="cls-3" d="M45.36,369.79A38.06,38.06,0,0,1,45,348.53c.75-2.73,2-5.61,4.53-6.9a.7.7,0,0,1,1.14.39,12.83,12.83,0,0,1,1.07,6.1,39.18,39.18,0,0,1-1,6.17c-.8,3.77-1.22,7.83-3.29,11.08a22.75,22.75,0,0,0-1.31,2.43c-.4.83-.4,1.12-.76,1.78"/><path class="cls-3" d="M71.73,373.71c-2-7.43.12-16.44,4.8-22.53.34-.45.8-.93,1.36-.87.87.07,1.09,1.22,1,2.09a40.72,40.72,0,0,1-7.21,21.31"/><path class="cls-3" d="M74.1,375.34c9,2.35,19.39.06,26.9-5.47a21.77,21.77,0,0,0-14.56-1.79c-4.86,1.11-9.31,3.29-12.34,7.26"/><path class="cls-3" d="M76.11,370.39c5.06-8.24,14.75-13.62,24.41-14.11-1.12,3.93-4.34,7-8,8.82s-7.7,2.65-11.71,3.43c-1.56.3-3.7.64-4.71,1.86"/><path class="cls-3" d="M72.23,346.38a71.1,71.1,0,0,0,3.12-14.29c.38-4.87-.32-10-2.85-14.14-4.72,9.14-5.2,19.81-.41,28.92"/><path class="cls-3" d="M88.13,338.35c5.52-10,16.79-18.06,28.19-19.19-4.39,11-16.39,19.42-28.19,19.19"/><path class="cls-3" d="M84.66,340.31c8.23,1.26,15.25,6.52,23,9.71a10.31,10.31,0,0,0,5.19,1,4.06,4.06,0,0,0,2.54-7.18,11,11,0,0,0-3.77-2.29c-8.38-3.49-17.37-3.58-26.21-1.46"/><path class="cls-3" d="M79.89,346.09c1.86.53,2.5,1.5,4,2.76a43.07,43.07,0,0,0,17.4,8.94c.67.16,1.54.23,1.87-.37s-.08-1.16-.45-1.63a23.89,23.89,0,0,0-10.51-7.13c-4-1.5-7.5-3.3-12.29-2.92"/><path class="cls-3" d="M74.51,311.2a32.94,32.94,0,0,0,25.25,8.59,1.76,1.76,0,0,0,1.15-.41c.64-.7-.12-1.76-.86-2.34-7.43-5.79-16.42-8.19-25.54-5.84"/><path class="cls-3" d="M80.89,308.86a35.19,35.19,0,0,1,31.51-5.2,25,25,0,0,1-15,6.59,47.3,47.3,0,0,1-16.49-1.39"/><path class="cls-3" d="M78.35,292.83c-.73-7.41-.25-13.26-.77-20.71,0-.59-.17-1.31-.72-1.52-.78-.3-1.42.65-1.68,1.44a23.72,23.72,0,0,0,3.16,20.62"/><path class="cls-3" d="M77.82,293.65A43.75,43.75,0,0,0,90.1,281.71c2.42-3.31,4.46-7.29,3.91-11.36a11.73,11.73,0,0,0-8.85,4.4,24.68,24.68,0,0,0-4.52,9.08c-1,3.26-1.67,6.61-2.82,9.82"/><path class="cls-3" d="M89.88,290.3a99.14,99.14,0,0,0,30.21-17.82c-3.61-1.45-7.74-.58-11.35.87a35.86,35.86,0,0,0-19,16.86"/><path class="cls-3" d="M81.21,297.7c5.58.61,11.24,1,16.78.08s10.57-3.06,15.66-5.2a1.83,1.83,0,0,0,1.06-.81,1.22,1.22,0,0,0-.38-1.34,3.38,3.38,0,0,0-1.34-.63c-5.52-1.54-11.48-.82-16.92,1a78.54,78.54,0,0,0-14.86,6.88"/><path class="cls-3" d="M49.36,311.45c-3.8-7.68-3.55-16.64-.27-24.56,2.32,3.52,2.6,8,2.18,12.21s-1.7,8.51-1.79,12.73"/><path class="cls-3" d="M34.16,303.78A34.24,34.24,0,0,0,8.71,314.63,23.8,23.8,0,0,0,22.65,312a70.86,70.86,0,0,0,11.94-8"/><path class="cls-3" d="M23.94,300.36c-4.64-.37-9.11-.95-13.58.42A16.31,16.31,0,0,0,0,309.56a24.61,24.61,0,0,0,12.74-2.4,73.17,73.17,0,0,0,11.2-6.8"/><path class="cls-3" d="M39.08,300.52c-4.18-2.74-8.48-5.53-13.35-6.66s-10.51-.3-13.9,3.37c3.94,2.31,8.72,2.59,13.29,2.58s10.17-.05,14.48,1.47"/><path class="cls-3" d="M39.1,300.74c-7.15-7-9.86-19.63-7-29.22a44.54,44.54,0,0,1,7,29.22"/><path class="cls-3" d="M58.76,280.86c1.34-3.14,2.29-6.43,3.5-9.62a27.51,27.51,0,0,1,5-8.86,13.16,13.16,0,0,1,8.85-4.59,35.67,35.67,0,0,1-17.18,23.12"/><path class="cls-3" d="M55.2,285c-2.23-3.07-4.81-7.24-7.83-9.53s-7-3.68-10.66-2.8A24.83,24.83,0,0,0,55.2,285"/><path class="cls-3" d="M55.91,281.11a53.53,53.53,0,0,1-3.53-11.42,17.81,17.81,0,0,1,1.79-11.61c3.92,7.42,5.19,15.38,1.94,23.11"/><path class="cls-3" d="M58.79,258.08c2.22-7.35,9-12.77,16.22-15.25a6.23,6.23,0,0,1,2.85-.43,2.49,2.49,0,0,1,2.1,1.75c.26,1.25-.77,2.38-1.74,3.21a55.22,55.22,0,0,1-19.43,10.72"/><path class="cls-3" d="M58.87,252.07c.28-4.74.58-9.55,2.12-14s4.52-8.71,8.84-10.67c.73,4.78-1.38,9.55-3.93,13.67s-5.61,8-7.14,12.6"/><path class="cls-3" d="M58.76,255.33c-1.84-5.36-2-12.16-5.24-16.83-2.24-3.26-5.83-5.49-7.77-8.94a13.63,13.63,0,0,0,.45,10.15,29.57,29.57,0,0,0,5.94,8.49c2.37,2.54,4.41,4.45,6.62,7.13"/><path class="cls-3" d="M58.79,413.13c-.14,0-.27-35.75-.28-79.83s.1-79.84.25-79.84S59,289.2,59,333.3,58.93,413.13,58.79,413.13Z"/><path class="cls-3" d="M90,306.06a8.14,8.14,0,0,1-1.35.5L85,307.81c-3.12,1.06-7.41,2.6-12.06,4.5S64,315.89,61.51,318a8.49,8.49,0,0,0-2.29,3c-.35.84-.42,1.35-.46,1.34s0-.13,0-.37a5.52,5.52,0,0,1,.26-1,8.05,8.05,0,0,1,2.24-3.24,20.1,20.1,0,0,1,5-3.08c2-.92,4.18-1.89,6.51-2.84,4.66-1.92,9-3.4,12.13-4.38,1.58-.49,2.86-.85,3.76-1.09A6.36,6.36,0,0,1,90,306.06Z"/><path class="cls-3" d="M100.27,280.91a2.54,2.54,0,0,1-.38.4l-1.15,1.07-4.28,3.89L80.21,299c-5.56,5-10.37,9.69-13.7,13.25-1.67,1.78-3,3.25-3.88,4.28l-1,1.19c-.24.26-.37.4-.39.39a3,3,0,0,1,.31-.46c.22-.29.53-.71,1-1.25.85-1.07,2.13-2.58,3.77-4.4a180,180,0,0,1,13.63-13.38c5.58-4.94,10.66-9.38,14.35-12.58l4.39-3.77,1.21-1C100.1,281,100.26,280.89,100.27,280.91Z"/><path class="cls-3" d="M74.2,304c-.14-.06,1-2.75,2.18-6.14s1.72-6.26,1.86-6.23A20.68,20.68,0,0,1,76.87,298a44.56,44.56,0,0,1-1.73,4.3A6.42,6.42,0,0,1,74.2,304Z"/><path class="cls-3" d="M58.82,325.64a6.63,6.63,0,0,1-.85-1l-2.2-2.82c-1.84-2.38-4.4-5.67-7.25-9.27s-5.49-6.84-7.39-9.18l-2.25-2.77a7,7,0,0,1-.77-1.06,5.94,5.94,0,0,1,.92.93c.58.62,1.39,1.53,2.38,2.67,2,2.28,4.65,5.48,7.51,9.08s5.37,6.94,7.14,9.38c.89,1.23,1.59,2.22,2.07,2.92A6,6,0,0,1,58.82,325.64Z"/><path class="cls-3" d="M52,316.84a12.54,12.54,0,0,1-2.86-5.37,15.45,15.45,0,0,1-.66-5.41h.23c-.1.42-.17.64-.21.63s0-.24,0-.66l.22,0a24.89,24.89,0,0,0,.92,5.26A40.44,40.44,0,0,0,52,316.84Z"/><path class="cls-3" d="M43.13,305.72a8.74,8.74,0,0,0-2-1.16,13.33,13.33,0,0,0-5.56-.45A34.77,34.77,0,0,0,30,305a17.17,17.17,0,0,1-2.31.55,8,8,0,0,1,2.21-.9,24.8,24.8,0,0,1,5.66-1.07,12.2,12.2,0,0,1,5.74.62A3.51,3.51,0,0,1,43.13,305.72Z"/><path class="cls-3" d="M41,303c0,.08-1.17-.46-3.07-1.11a30.8,30.8,0,0,0-15.47-1.18c-2,.35-3.18.72-3.2.64a2.66,2.66,0,0,1,.81-.35,18.12,18.12,0,0,1,2.32-.65,26.92,26.92,0,0,1,7.92-.55,27.28,27.28,0,0,1,7.74,1.74,18.92,18.92,0,0,1,2.19,1A3.49,3.49,0,0,1,41,303Z"/><path class="cls-3" d="M58.76,291.63a61.87,61.87,0,0,1-2.24-7.78,63.25,63.25,0,0,1-1.74-7.9A62.76,62.76,0,0,1,57,283.72,65,65,0,0,1,58.76,291.63Z"/><path class="cls-3" d="M58.9,291.63A38.79,38.79,0,0,0,56.42,287a20.71,20.71,0,0,0-3.65-3.77,3.5,3.5,0,0,1,1.4.73,11.27,11.27,0,0,1,2.67,2.74A10.38,10.38,0,0,1,58.9,291.63Z"/><path class="cls-3" d="M58.79,394.07s-.16-.86-.56-2.37a34.07,34.07,0,0,0-2.39-6.19c-2.47-5.05-7-11.45-12.67-17.86-2.83-3.23-5.58-6.28-7.91-9.2a64.34,64.34,0,0,1-5.65-8.15,38.26,38.26,0,0,1-2.85-6.05c-.27-.75-.46-1.33-.57-1.73a2.54,2.54,0,0,1-.14-.62s.3.82.89,2.28a45.12,45.12,0,0,0,3,5.93,67.93,67.93,0,0,0,5.71,8c2.34,2.89,5.09,5.92,7.92,9.16,5.73,6.43,10.21,12.91,12.62,18a30.59,30.59,0,0,1,2.25,6.3,16.66,16.66,0,0,1,.32,1.79A2.71,2.71,0,0,1,58.79,394.07Z"/><path class="cls-3" d="M87,362.19a14.63,14.63,0,0,1-1.48.83,33.32,33.32,0,0,0-3.84,2.54,44.38,44.38,0,0,0-5,4.59c-1.77,1.87-3.59,4-5.45,6.37-3.72,4.66-7.19,8.79-9.28,12.09-1,1.63-1.82,3-2.32,4a11.3,11.3,0,0,1-.82,1.49,1.3,1.3,0,0,1,.14-.42c.11-.26.26-.66.5-1.15a36.49,36.49,0,0,1,2.2-4.09c2-3.37,5.47-7.56,9.18-12.22,1.86-2.32,3.71-4.5,5.51-6.36a39.36,39.36,0,0,1,5.16-4.56,27.48,27.48,0,0,1,4-2.43c.49-.24.89-.39,1.15-.51A1.6,1.6,0,0,1,87,362.19Z"/><path class="cls-3" d="M87.57,372.53a19.45,19.45,0,0,1-3.13.46A41.39,41.39,0,0,0,77,374.45a22.28,22.28,0,0,0-6.64,3.48c-1.53,1.19-2.25,2.17-2.33,2.11a2.5,2.5,0,0,1,.47-.72,11.09,11.09,0,0,1,1.63-1.67A20.09,20.09,0,0,1,76.87,374a33.06,33.06,0,0,1,7.54-1.33A17.7,17.7,0,0,1,87.57,372.53Z"/><path class="cls-3" d="M69,378.9c-.17-.09,1.24-2.24,2.34-5.14s1.26-5.48,1.45-5.45a5.23,5.23,0,0,1-.06,1.68,17.46,17.46,0,0,1-.91,3.95A18.64,18.64,0,0,1,70,377.56C69.43,378.43,69,378.94,69,378.9Z"/><path class="cls-3" d="M96.16,334.42a2.16,2.16,0,0,1-.5.27l-1.47.67c-.64.27-1.43.62-2.31,1.09s-1.91.92-3,1.57l-1.71,1c-.59.34-1.18.74-1.8,1.13-1.26.76-2.52,1.7-3.86,2.66a66.25,66.25,0,0,0-14.87,15.39c-.92,1.38-1.81,2.67-2.53,3.95-.37.64-.75,1.24-1.07,1.84s-.62,1.18-.91,1.74c-.61,1.09-1,2.14-1.47,3s-.76,1.69-1,2.34l-.62,1.49a2.2,2.2,0,0,1-.25.51,3.27,3.27,0,0,1,.15-.54c.14-.41.32-.91.53-1.53s.52-1.48.93-2.39.82-2,1.41-3.08c.28-.57.58-1.16.89-1.77s.69-1.22,1-1.86c.71-1.3,1.6-2.61,2.5-4a70.08,70.08,0,0,1,6.84-8.39,68.9,68.9,0,0,1,8.15-7.11c1.36-1,2.64-1.89,3.91-2.64.63-.38,1.23-.78,1.83-1.12l1.73-.94c1.09-.63,2.14-1.08,3-1.51s1.69-.77,2.35-1l1.51-.58A3.75,3.75,0,0,1,96.16,334.42Z"/><path class="cls-3" d="M73.82,349.39a3.54,3.54,0,0,1,1.23-1.83,7.79,7.79,0,0,1,5-1.9,13.69,13.69,0,0,1,5.21,1,7.69,7.69,0,0,1,2,1,12.1,12.1,0,0,1-2.09-.61,15.86,15.86,0,0,0-5.08-.85,8,8,0,0,0-4.72,1.66A13.39,13.39,0,0,0,73.82,349.39Z"/><path class="cls-3" d="M70.48,352.84a13.16,13.16,0,0,0,1.09-9.35,3,3,0,0,1,.58,1.33,9.41,9.41,0,0,1-.8,6.85C70.92,352.46,70.53,352.87,70.48,352.84Z"/><path class="cls-3" d="M34.1,399.2c.77,13.66,4.89,27.55,11.22,41.59H72.86c6-13.9,9.87-27.77,10.55-41.59Z"/><path class="cls-5" d="M78.94,421.3c0,.14-9.06.26-20.24.26s-20.25-.12-20.25-.26S47.51,421,58.7,421,78.94,421.16,78.94,421.3Z"/><path class="cls-5" d="M78.33,426.25c0,.14-8.5.26-19,.26s-19-.12-19-.26,8.49-.26,19-.26S78.33,426.11,78.33,426.25Z"/><path class="cls-5" d="M45.77,408.16a40.23,40.23,0,0,1,.25,6.35,40.15,40.15,0,0,1-.25,6.34,77.55,77.55,0,0,1,0-12.69Z"/><path class="cls-5" d="M60.52,408.16a83.14,83.14,0,0,1,0,13.14,83.14,83.14,0,0,1,0-13.14Z"/><path class="cls-5" d="M74.37,408.05a86.46,86.46,0,0,1,0,13.4,86.46,86.46,0,0,1,0-13.4Z"/><path class="cls-5" d="M82.53,408.16c0,.15-10.63.26-23.74.26S35,408.31,35,408.16s10.63-.25,23.75-.25S82.53,408,82.53,408.16Z"/><rect class="cls-6" x="337.95" y="385.65" width="67.19" height="9.23"/><path class="cls-6" d="M405.25,395H337.83v-9.46h67.42Zm-67.19-.23h67v-9h-67Z"/><polygon class="cls-6" points="344.18 391.8 353.85 439.51 389.63 439.51 398.98 394.88 344.18 391.8"/><polygon class="cls-7" points="344.18 435 349.33 442.09 392.83 442.09 398.98 435 344.18 435"/><path class="cls-6" d="M369,393.2c-.13,0-.3-22.1-.38-49.36s0-49.37.1-49.37.3,22.1.38,49.36S369.15,393.2,369,393.2Z"/><path class="cls-6" d="M384,337.89a1.78,1.78,0,0,1-.18.51c-.15.37-.35.85-.6,1.43-.13.32-.28.66-.43,1l-.45,1.25c-.16.46-.34.94-.52,1.44s-.32,1.07-.5,1.65a69.23,69.23,0,0,0-1.88,8.22c-.48,3.14-.85,6.62-1,10.29a138.53,138.53,0,0,0,.54,18.79c.21,2.4.43,4.34.59,5.67.07.63.12,1.14.17,1.55a2,2,0,0,1,0,.54,4,4,0,0,1-.12-.53c-.07-.4-.15-.91-.26-1.53-.21-1.33-.48-3.27-.74-5.67a123.45,123.45,0,0,1-.67-18.84A91.33,91.33,0,0,1,379,353.35a62.29,62.29,0,0,1,2-8.25c.19-.58.34-1.13.53-1.64s.38-1,.56-1.44l.48-1.25c.17-.37.34-.71.48-1l.69-1.4A2.53,2.53,0,0,1,384,337.89Z"/><path class="cls-6" d="M382.27,320a5.43,5.43,0,0,1-.22.73c-.17.51-.4,1.19-.7,2.05-.15.45-.32.95-.51,1.48s-.35,1.15-.54,1.79c-.39,1.28-.85,2.73-1.25,4.37-.22.81-.44,1.66-.68,2.55s-.41,1.83-.63,2.8c-.47,1.92-.81,4-1.24,6.19-.74,4.39-1.39,9.25-1.84,14.37s-.61,10-.68,14.47,0,8.46.23,11.83c.06,1.68.17,3.2.25,4.54s.17,2.48.25,3.42.12,1.63.16,2.17a3.64,3.64,0,0,1,0,.76,3.89,3.89,0,0,1-.12-.75c-.06-.54-.15-1.26-.26-2.16s-.22-2.09-.32-3.42-.25-2.86-.33-4.54c-.22-3.37-.32-7.39-.33-11.86s.22-9.37.64-14.51,1.12-10,1.89-14.39c.44-2.19.8-4.29,1.28-6.21l.66-2.8c.25-.89.48-1.74.71-2.55.43-1.64.91-3.09,1.32-4.36l.58-1.78.56-1.47c.33-.85.59-1.52.78-2A3.85,3.85,0,0,1,382.27,320Z"/><path class="cls-6" d="M364.77,397.11a1.11,1.11,0,0,1,0-.26c0-.2,0-.45-.06-.76-.05-.71-.12-1.68-.2-2.93-.16-2.58-.39-6.25-.67-10.76-.59-9.09-1.43-21.65-3-35.46-.78-6.9-1.69-13.46-2.63-19.4-.5-3-1-5.8-1.47-8.42s-1-5.08-1.45-7.3-.94-4.24-1.33-6-.77-3.28-1.08-4.51-.53-2.17-.7-2.85c-.07-.31-.13-.55-.17-.74a.74.74,0,0,1,0-.26.91.91,0,0,1,.09.24c.05.19.13.43.21.73.19.68.46,1.63.79,2.83s.74,2.73,1.16,4.5.94,3.75,1.4,6,1,4.67,1.51,7.3,1,5.46,1.51,8.43c1,5.94,1.89,12.51,2.68,19.42,1.53,13.82,2.32,26.39,2.81,35.49.25,4.54.42,8.23.53,10.77,0,1.25.08,2.23.1,2.93,0,.32,0,.57,0,.77A1,1,0,0,1,364.77,397.11Z"/><path class="cls-8" d="M368.47,305.09c-.29-3.13-3.46-5.49-6.6-5.52a10.38,10.38,0,0,0-8,4.34,25.16,25.16,0,0,0-3.85,8.55c-2.12,7.38-3.28,15.13-2.37,22.75s4,15.12,9.46,20.51c.89.87,2.05,1.75,3.27,1.49a4,4,0,0,0,1.72-1.06,51,51,0,0,0,16.52-38.72c-.09-2.9-.47-5.91-2.07-8.33s-5.35-5-8.08-4"/><path class="cls-8" d="M345,280l-4.43,8c-.11.19-.24.4-.45.42s-.41-.2-.54-.4l-11.71-18,2.7-1.53Z"/><g class="cls-9"><path d="M345,280l-4.43,8c-.11.19-.24.4-.45.42s-.41-.2-.54-.4l-11.71-18,2.7-1.53Z"/></g><path class="cls-8" d="M368.74,294.47,328.8,270.9a1.91,1.91,0,0,1-1-1c-.16-.6.29-1.17.71-1.61a27.56,27.56,0,0,1,21.35-8.38,24.38,24.38,0,0,1,19.3,12c3.85,6.89,4,16-.44,22.54"/><path class="cls-6" d="M334.55,263.37a2.46,2.46,0,0,1,.53-.06c.34,0,.85-.08,1.51-.08a30.76,30.76,0,0,1,5.54.44,32.1,32.1,0,0,1,22.68,15.78,32.46,32.46,0,0,1,3.17,7.62,29.71,29.71,0,0,1,1,5.47,9.83,9.83,0,0,1,.06,1.16,1.9,1.9,0,0,1-.31.88,6.4,6.4,0,0,0,.07-2,34.72,34.72,0,0,0-1.13-5.4A32.63,32.63,0,0,0,342.07,264a34.08,34.08,0,0,0-5.49-.59C335.28,263.39,334.55,263.41,334.55,263.37Z"/><path class="cls-6" d="M363.33,278.2a9.67,9.67,0,0,1-2,.92c-1.27.5-3.05,1.14-5,1.77s-3.81,1.14-5.14,1.46a10.39,10.39,0,0,1-2.18.42A10.68,10.68,0,0,1,351,282l5.09-1.59,5.07-1.63A10.33,10.33,0,0,1,363.33,278.2Z"/><path class="cls-6" d="M357,261.3a16.65,16.65,0,0,1,.48,4.46,17,17,0,0,1-.25,4.47,26.78,26.78,0,0,1-.23-4.46A29.18,29.18,0,0,1,357,261.3Z"/><path class="cls-6" d="M328.45,270.45a17.85,17.85,0,0,1,2.9-1c1.81-.56,4.34-1.27,7.16-1.95s5.39-1.2,7.26-1.53a19.32,19.32,0,0,1,3.05-.41,21.67,21.67,0,0,1-3,.75c-1.85.41-4.41,1-7.22,1.66s-5.34,1.33-7.18,1.8A21.91,21.91,0,0,1,328.45,270.45Z"/><path class="cls-8" d="M351.89,298.3c-3.43-2.61-7.07-3.12-11.38-2.95a34.78,34.78,0,0,0-12.45,3.21C321.33,301.51,315,305.86,311,312s-5.42,14.3-2.41,21a3,3,0,0,0,1.36,1.65,3.23,3.23,0,0,0,2.26-.17c7.66-2.5,15.37-5,22.42-8.94s13.45-9.35,17.23-16.47a14.06,14.06,0,0,0,1.82-5.46,6.8,6.8,0,0,0-1.76-5.34"/><path class="cls-6" d="M352,297.49a3.26,3.26,0,0,1-.55.23l-1.61.55-1.16.38c-.42.16-.87.35-1.36.53-1,.4-2.09.79-3.28,1.36l-1.88.86c-.65.3-1.3.67-2,1-1.38.68-2.79,1.55-4.29,2.44a74.89,74.89,0,0,0-9.07,6.72,75.65,75.65,0,0,0-7.83,8.14c-1.06,1.38-2.11,2.66-3,3.95-.44.64-.88,1.24-1.27,1.84l-1.08,1.76c-.73,1.1-1.26,2.17-1.77,3.08-.25.46-.49.88-.7,1.28l-.53,1.1-.75,1.52a3.3,3.3,0,0,1-.29.52,2.13,2.13,0,0,1,.2-.56c.17-.4.4-.92.67-1.56l.5-1.12c.19-.41.42-.84.66-1.31.5-.92,1-2,1.72-3.13.34-.56.69-1.16,1.06-1.78s.82-1.22,1.25-1.87c.85-1.3,1.89-2.6,3-4a65.62,65.62,0,0,1,17-15c1.52-.88,2.94-1.74,4.34-2.41.7-.35,1.36-.71,2-1l1.9-.83c1.2-.56,2.34-.93,3.32-1.3.49-.17.95-.35,1.38-.49l1.17-.35,1.64-.47A3.41,3.41,0,0,1,352,297.49Z"/><path class="cls-6" d="M325.12,312a78.81,78.81,0,0,1-8.36,2.7,79,79,0,0,1-8.49,2.23,79.31,79.31,0,0,1,8.36-2.69A83.67,83.67,0,0,1,325.12,312Z"/><path class="cls-6" d="M324.78,330.46a12.91,12.91,0,0,1-.19-2.6c0-1.61,0-3.83,0-6.29s.2-4.68.33-6.28a14.25,14.25,0,0,1,.33-2.59,14.18,14.18,0,0,1,0,2.61c0,1.76-.12,3.9-.19,6.27s-.12,4.52-.16,6.28A15.8,15.8,0,0,1,324.78,330.46Z"/><path class="cls-6" d="M340.57,322.42c-.13,0-.55-4.52-.94-10.1s-.59-10.12-.46-10.13.56,4.51.94,10.1S340.7,322.41,340.57,322.42Z"/><path class="cls-6" d="M320.91,301.75a14.65,14.65,0,0,1,2.68-.08c1.65,0,3.93.06,6.45.14s4.79.18,6.44.28a14.58,14.58,0,0,1,2.67.26,14.57,14.57,0,0,1-2.68.08c-1.65,0-3.93-.06-6.45-.14s-4.8-.19-6.45-.29A15.07,15.07,0,0,1,320.91,301.75Z"/><path class="cls-6" d="M358.83,356.77a2,2,0,0,1-.06-.54c0-.4,0-.91-.07-1.53-.06-1.34-.07-3.27,0-5.66s.2-5.23.49-8.38.76-6.59,1.41-10.19,1.45-7,2.27-10,1.69-5.78,2.49-8,1.49-4.07,2-5.3l.61-1.42a1.83,1.83,0,0,1,.24-.48,3.24,3.24,0,0,1-.15.51c-.14.38-.31.86-.53,1.45-.47,1.25-1.12,3.07-1.87,5.34s-1.57,5-2.38,8-1.57,6.43-2.23,10-1.11,7-1.44,10.14-.51,6-.59,8.35-.14,4.31-.13,5.64c0,.63,0,1.14,0,1.54A2.9,2.9,0,0,1,358.83,356.77Z"/><path class="cls-6" d="M360.93,330.61a10,10,0,0,1-1.59,1.75c-1,1-2.5,2.42-4.17,3.89s-3.24,2.74-4.4,3.63a11.15,11.15,0,0,1-1.94,1.35,11.8,11.8,0,0,1,1.73-1.61l4.29-3.73,4.26-3.77A13.77,13.77,0,0,1,360.93,330.61Z"/><path class="cls-6" d="M373.58,340.8a18.23,18.23,0,0,1-1.7-2.35l-3.95-5.76-4-5.71a19.74,19.74,0,0,1-1.61-2.4,15.68,15.68,0,0,1,1.89,2.2c1.1,1.41,2.59,3.39,4.15,5.63s2.9,4.33,3.84,5.85A17.23,17.23,0,0,1,373.58,340.8Z"/><path class="cls-6" d="M367,308.77c.07.11-4.13,2.94-9.38,6.31s-9.57,6-9.64,5.92,4.12-2.94,9.38-6.32S366.88,308.66,367,308.77Z"/><path class="cls-6" d="M378.8,321.55a75.9,75.9,0,0,1-6.35-5.87,77.9,77.9,0,0,1-6-6.21,157.85,157.85,0,0,1,12.37,12.08Z"/><path class="cls-8" d="M381.78,321.29l3.6-.29a18,18,0,0,0,7.28-2.23,27.72,27.72,0,0,1,3.4-1.71c4.45-1.79,9.43-1.47,14.22-1.71a58.81,58.81,0,0,0,22.64-5.79,2.07,2.07,0,0,0,1-.89c.75-1.35-.63-2.55-1.81-3.28-6.08-3.74-12.26-7.53-19.15-9.39s-14.71-1.54-20.58,2.5c-6.9,4.75-9.42,14.5-10.58,22.79"/><path class="cls-6" d="M434,308.23a4.79,4.79,0,0,1-.62-.29l-1.7-.89c-1.49-.78-3.62-1.93-6.32-3.23a59,59,0,0,0-9.77-3.76,32.4,32.4,0,0,0-12.66-1,21.6,21.6,0,0,0-11.54,5,25.4,25.4,0,0,0-6,8.44,70.63,70.63,0,0,0-2.62,6.58c-.27.75-.48,1.36-.64,1.82a4.14,4.14,0,0,1-.25.62,3.19,3.19,0,0,1,.16-.65c.14-.47.32-1.09.55-1.85a60.11,60.11,0,0,1,2.49-6.66,25.56,25.56,0,0,1,6-8.63,21.92,21.92,0,0,1,11.78-5.1,32.32,32.32,0,0,1,12.84,1.07,57.09,57.09,0,0,1,9.8,3.89c2.69,1.34,4.8,2.53,6.26,3.36l1.66,1A3.87,3.87,0,0,1,434,308.23Z"/><path class="cls-6" d="M425.33,312.88c-.08.11-4.79-2.94-10.53-6.81s-10.34-7.1-10.27-7.21,4.79,2.94,10.53,6.81S425.4,312.77,425.33,312.88Z"/><path class="cls-6" d="M420.3,298.61a11.74,11.74,0,0,1-3.44.62,11.47,11.47,0,0,1-3.5-.05,23.77,23.77,0,0,1,3.46-.35A22.45,22.45,0,0,1,420.3,298.61Z"/><path class="cls-6" d="M399.66,295.92a9.31,9.31,0,0,1-1.55,2.41,10.43,10.43,0,0,1-2,2.23,9.44,9.44,0,0,1,1.55-2.42A9.93,9.93,0,0,1,399.66,295.92Z"/><path class="cls-6" d="M403.88,315.66a13.38,13.38,0,0,1-2.27-1.23c-1.36-.83-3.2-2-5.17-3.47s-3.7-2.78-4.95-3.77a13.35,13.35,0,0,1-1.95-1.68,14.79,14.79,0,0,1,2.16,1.41l5,3.65c2,1.43,3.76,2.67,5.07,3.57A14.55,14.55,0,0,1,403.88,315.66Z"/><path class="cls-8" d="M387.08,336.61c-3.43-.91-7.53,2.44-8.24,5.92s.6,7.06,2.13,10.27a52.21,52.21,0,0,0,14.22,18.6,35.15,35.15,0,0,0,21.74,8c-1.45-6.75.39-13.81-.42-20.67a26.89,26.89,0,0,0-23.81-23.57c-2.2-.24-4.74-.58-5.62,1.44"/><path class="cls-6" d="M416.93,379.41a3.36,3.36,0,0,1-.49-.23,8.58,8.58,0,0,1-1.28-.86,13.44,13.44,0,0,1-3.4-4.54c-.55-1.07-1.16-2.23-1.76-3.51l-1.85-4.08a40.67,40.67,0,0,0-2.27-4.38,34.83,34.83,0,0,0-3.13-4.25c-2.36-2.77-4.88-5.16-7.07-7.45a48.15,48.15,0,0,1-5.39-6.46,24.31,24.31,0,0,1-2.64-5c-.22-.64-.38-1.13-.46-1.48a3.61,3.61,0,0,1-.11-.53c.05,0,.24.7.75,1.94a25.32,25.32,0,0,0,2.74,4.9,50.57,50.57,0,0,0,5.42,6.36c2.2,2.26,4.74,4.65,7.12,7.44a33.39,33.39,0,0,1,3.17,4.32,40.45,40.45,0,0,1,2.27,4.43l1.81,4.11c.58,1.27,1.17,2.44,1.7,3.51a13.8,13.8,0,0,0,3.22,4.55C416.28,379,417,379.36,416.93,379.41Z"/><path class="cls-6" d="M399.15,373.8a10.22,10.22,0,0,1,.31-2.32c.27-1.41.72-3.36,1.31-5.48s1.24-4,1.75-5.35a10.37,10.37,0,0,1,.94-2.14,14.1,14.1,0,0,1-.62,2.25c-.43,1.37-1,3.26-1.61,5.37s-1.08,4-1.44,5.42A12.39,12.39,0,0,1,399.15,373.8Z"/><path class="cls-6" d="M416.28,357.22a13.65,13.65,0,0,1-2.42-.56c-1.48-.38-3.53-.91-5.81-1.43s-4.35-.91-5.85-1.19a14.17,14.17,0,0,1-2.43-.54,11.85,11.85,0,0,1,2.48.2c1.52.2,3.62.55,5.91,1.07s4.33,1.1,5.79,1.57A11.73,11.73,0,0,1,416.28,357.22Z"/><path class="cls-6" d="M386.39,362a13.33,13.33,0,0,1,.37-2.68c.3-1.64.78-3.9,1.43-6.37s1.32-4.67,1.86-6.25a14,14,0,0,1,1-2.52,17.37,17.37,0,0,1-.66,2.62c-.46,1.61-1.09,3.82-1.73,6.27s-1.17,4.7-1.56,6.32A18.55,18.55,0,0,1,386.39,362Z"/><path class="cls-6" d="M408.39,342.78c0,.13-4.31-.22-9.59-.78s-9.55-1.12-9.54-1.25a96,96,0,0,1,9.59.77A92.73,92.73,0,0,1,408.39,342.78Z"/><path class="cls-7" d="M405.25,394.84c0,.13-15.1.24-33.71.24s-33.7-.11-33.7-.24,15.08-.24,33.7-.24S405.25,394.71,405.25,394.84Z"/><path class="cls-7" d="M394.75,414.26c0,.13-10.17.24-22.71.24s-22.71-.11-22.71-.24S359.49,414,372,414,394.75,414.13,394.75,414.26Z"/><path class="cls-7" d="M394.35,417c0,.13-10,.23-22.31.23s-22.32-.1-22.32-.23,10-.24,22.32-.24S394.35,416.9,394.35,417Z"/><path class="cls-7" d="M395.14,412c0,.13-10.51.24-23.49.24s-23.49-.11-23.49-.24,10.52-.24,23.49-.24S395.14,411.84,395.14,412Z"/><path class="cls-8" d="M322.72,109.26c-3.08-14.86-18.2-63.11-83.46-60.37C206.86,50.26,189,65.6,179.63,78.22a73.12,73.12,0,0,0-12.6,27.4L167,106H130.8v-.5c0-.15,0-14.8,1.58-22.16l1,.21c-1.37,6.49-1.53,18.82-1.55,21.45h34.31A75.18,75.18,0,0,1,178.8,77.67c9.45-12.82,27.6-28.39,60.42-29.78,26.77-1.12,48.17,6.18,63.62,21.72,14,14,19.05,30.73,20.86,39.44Z"/><path class="cls-8" d="M262.73,341H208.62V186.85l.59.1c51.1,9,73.28-13.63,82-27.93,10.25-16.89,12-37.27,4.8-54.51-4.46-10.64-18.51-35.31-52.7-34.74-16.74.28-39.24,5.56-51.36,29.08a69.56,69.56,0,0,0-7.37,28.42v.5h-67.9v-.5c-.06-5.72,0-25.11,0-25.31v-.55l8.37.88v12.5l49-.06A81.6,81.6,0,0,1,186,86c8.86-13.11,25.8-28.65,56.28-28.65h1c22.3.24,40.7,8.08,53.22,22.68C310,95.79,314,116.57,312.09,130.19c0,.26-1.28,31.59-24.83,52.47-16.44,14.57-39.57,20.69-68.77,18.22v47.86h10.09V210.51l.54.05a106.76,106.76,0,0,0,27.24-2.06c13.74-2.82,32.7-9.76,45-26.79,22.05-30.61,22.28-47.93,22.46-60.57,0-1,0-2,.05-3l-.11-2.53h15l0,.46c0,.31,2.4,31.54-23.62,66.56C299,204.47,280,218.5,261.74,222.19l-.2-1c18-3.64,36.76-17.53,52.81-39.13,24.06-32.4,23.63-61.46,23.45-65.43h-13l.07,1.52c0,1,0,2-.05,3-.18,12.77-.42,30.27-22.65,61.14-12.45,17.3-31.67,24.33-45.6,27.18a109.26,109.26,0,0,1-26.95,2.11v38.15H217.49v-50l.55.05c29.16,2.57,52.22-3.46,68.54-17.92,23.23-20.59,24.5-51.51,24.51-51.82C313,116.65,309,96.21,295.71,80.72c-12.32-14.37-30.47-22.09-52.48-22.33-30.65-.33-47.58,15.13-56.4,28.17a79.61,79.61,0,0,0-12,28.74l-.07.42-50.81.07v-12.6l-6.37-.67c0,3.13,0,18.61,0,24.25h65.92A71.21,71.21,0,0,1,191,98.42c6.82-13.23,21.41-29.12,52.25-29.65l1.22,0c33.89,0,47.93,24.67,52.43,35.37,7.36,17.54,5.54,38.25-4.87,55.42C284.6,171.77,267.47,190,231.35,190a128.48,128.48,0,0,1-21.73-2V340h53.11Z"/><path class="cls-8" d="M276.73,340.46h-1v-90l.37-.09A139.53,139.53,0,0,0,323,225.29c21.37-17.31,46.84-49.14,46.84-102.51,0-41.92-17-75.6-49-97.39C294.3,7.39,262.47,1,243.25,1c-28.34,0-96.7,7.22-119.19,74.05A135.56,135.56,0,0,0,120,93.66l-1-.13a137.76,137.76,0,0,1,4.14-18.78C145.81,7.28,214.69,0,243.25,0c19.36,0,51.43,6.43,78.11,24.56,32.37,22,49.48,56,49.48,98.22,0,53.78-25.69,85.86-47.24,103.31a141.63,141.63,0,0,1-46.87,25.12Z"/><path class="cls-8" d="M269.29,282.59h-1l.07-40.23.42-.07c.11,0,11.34-1.82,25.9-9.69,13.43-7.25,32.53-21.3,47.24-47,21-36.68,17.18-64.92,17.13-65.2C356.57,84.16,342.33,56,316.72,36.54,290,16.24,259.14,11.92,243.14,11.15c-12.5-.6-34.25,1.51-54.42,9.42-27.32,10.72-45.46,28.87-53.91,54l-.94-.32c8.54-25.39,26.87-43.75,54.49-54.58,20.31-8,42.23-10.09,54.83-9.49,16.11.78,47.16,5.13,74.13,25.59,25.86,19.61,40.23,48.05,42.73,84.53,0,.25,3.91,28.8-17.26,65.81C328,212,308.67,226.19,295.11,233.51c-13.11,7.07-23.56,9.29-25.76,9.69Z"/><polygon class="cls-8" points="269.2 331.87 229.08 331.87 229.08 330.87 268.2 330.87 268.26 299.78 269.26 299.78 269.2 331.87"/><polygon class="cls-8" points="229.08 331.87 218.32 331.87 218.32 261.19 229.58 261.19 229.58 322.98 228.58 322.98 228.58 262.19 219.32 262.19 219.32 330.87 229.08 330.87 229.08 331.87"/><path class="cls-8" d="M159.65,94.1H141.72l0-.52c.57-18.83,8.34-31.17,14.75-38.21a50.11,50.11,0,0,1,13.26-10.54l-9.53-8.21.65-.76,10.69,9.22-.71.32c-.27.12-26.77,12.67-28.1,47.7h16.49c.8-3.5,7.12-28.77,24.29-35.42l-5.61-5.86c-2.09.64-16.09,5.81-23.87,31.61l-1-.29c8.56-28.41,24.2-32.22,24.87-32.37l.27-.07,7.08,7.4-.73.25c-18.4,6.45-24.4,35.06-24.45,35.35l-.09.4Z"/><path class="cls-8" d="M189.78,51.94,167.47,31.2l.68-.73,21.63,20.11a43.9,43.9,0,0,1,9.23-6A77.67,77.67,0,0,1,228.48,37c27-1.91,46.21,3.19,54.74,8.24l7.41-12.46c-5.72-2.51-58.58-24.46-101.74.53l-.5-.86c45.92-26.59,102.6-.61,103.16-.35l.5.24L283.56,46.6l-.43-.26C275,41.28,255.76,36.06,228.55,38c-25.92,1.83-38.3,13.53-38.43,13.64Z"/><path class="cls-8" d="M259.36,318.59l-1,0,1.52-85.21h.49c28.68-.21,68.75-41.17,80.22-73.31,16-44.85,3-76.26-10.74-94.71a108.44,108.44,0,0,0-33.61-29.42L289,49.12c4.91,2.08,42.1,19.19,42.4,59.33l15.78.13v1l-16.76-.14V109c0-42.43-41.87-59-42.29-59.12l-.54-.2,8.3-15.05.43.21A108.71,108.71,0,0,1,330.63,64.7c13.89,18.65,27.06,50.39,10.9,95.67-6.46,18.11-19.86,37-36.75,51.72-15.64,13.67-32,21.95-43.92,22.25Z"/><polygon class="cls-8" points="250.96 319.08 237.32 319.08 237.33 318.57 238.91 230.57 238.88 224.7 251.19 224.7 251.19 307.98 250.19 307.98 250.19 225.7 239.88 225.7 239.91 230.58 238.34 318.08 250.96 318.08 250.96 319.08"/><path class="cls-8" d="M338,211.73c-.85-1-6.35-6.59-7.73-8h0l-.14-.14a1.74,1.74,0,0,0-.14-.14h0a.45.45,0,0,1-.13-.5l.38-.34c.11,0,.18,0,.43.17l0,0,.28.29h0c.51.47,1.47,1.44,3.37,3.38,2.51,2.56,4,4.12,4.43,4.65Z"/><rect class="cls-8" x="298.56" y="20.61" width="9.93" height="1" transform="translate(99.01 246.38) rotate(-51.74)"/><path class="cls-8" d="M303,123.28c-.81,0-1.57,0-2.25,0l0-1c1.58,0,3.64,0,5.63,0s4.07,0,5.68,0l0,1c-1.58,0-3.64,0-5.63,0Z"/><rect class="cls-8" x="147.13" y="115.39" width="1" height="11.44"/><rect class="cls-8" x="239.73" y="58.64" width="1" height="9.84"/><rect class="cls-8" x="335.53" y="178.09" width="1" height="12.51" transform="translate(32.4 418.25) rotate(-66.36)"/><rect class="cls-8" x="285.91" y="197.84" width="1" height="12.02" transform="translate(-64.93 215.77) rotate(-37.38)"/><rect class="cls-8" x="353.56" y="86.68" width="12.18" height="1" transform="translate(-10.21 99.49) rotate(-15.53)"/><polygon class="cls-8" points="277.54 418.94 208.43 418.94 208.43 366.38 209.43 366.38 209.43 417.94 276.54 417.94 276.54 355.34 208.93 355.34 208.93 354.34 277.54 354.34 277.54 418.94"/><polygon class="cls-8" points="269.26 408.06 218.32 408.06 218.32 377.08 259.36 377.08 259.36 395.57 229.08 395.57 229.08 386.66 248.92 386.66 248.92 387.66 230.08 387.66 230.08 394.57 258.36 394.57 258.36 378.08 219.32 378.08 219.32 407.06 268.26 407.06 268.26 367.26 208.93 367.26 208.93 366.26 269.26 366.26 269.26 408.06"/><rect class="cls-8" x="230.15" y="407.56" width="1" height="10.88"/><rect class="cls-8" x="268.76" y="383.6" width="8.28" height="1"/><rect class="cls-8" x="237.33" y="377.58" width="1" height="9.06"/><rect class="cls-8" x="208.93" y="392.4" width="9.89" height="1"/><polygon class="cls-7" points="159.85 108.83 156.34 109.71 154.9 111 156.82 111.48 161.08 110.27 159.85 108.83"/><path class="cls-10" d="M172.54,110.46,167.27,104h-5.4L158.45,108a1.54,1.54,0,0,0,.21.64,2.46,2.46,0,0,0-1.88.2l3.12,8.25,5.92,5.92,7.49-2.08Zm-8.17,3-2.76-1.32a7.66,7.66,0,0,0-2-3.06,1.31,1.31,0,0,0,.28,0,3.43,3.43,0,0,0,1-.36c2.37-1.19,3-1.45,3-1.45l1.51,2.77Z"/><path class="cls-11" d="M168.42,108.48c-.12.09-.93-.82-1.82-2a7.06,7.06,0,0,1-1.4-2.34,7.64,7.64,0,0,1,1.82,2A7.51,7.51,0,0,1,168.42,108.48Z"/><path class="cls-11" d="M164.37,113.49a12.65,12.65,0,0,1-3-.87l-.12,0,0-.12a7.91,7.91,0,0,0-.65-1.6,4.15,4.15,0,0,0-2.38-2.15c-.81-.15-1.34.19-1.37.09s.09-.13.32-.25a1.9,1.9,0,0,1,1.11-.2,4.07,4.07,0,0,1,2.77,2.26,7.26,7.26,0,0,1,.67,1.72l-.15-.16A12.44,12.44,0,0,1,164.37,113.49Z"/><path class="cls-7" d="M160.7,110.37,173,107.09a.89.89,0,0,0,.62-1.12h0a.88.88,0,0,0-1-.59l-13.14,3.55A5.92,5.92,0,0,1,160.7,110.37Z"/><path class="cls-10" d="M66.27,264.82l7.48-4,.29,2.77L70.26,277.7a30.47,30.47,0,0,1-2.9-6.34s-1.2-5.26-1.2-5.64a3.59,3.59,0,0,1,.11-.9"/><polygon class="cls-7" points="127.47 411.98 128.75 442.08 145 441.71 143.78 411.56 127.47 411.98"/><path class="cls-6" d="M136.73,440.76c.14,0-.12-6.59-.56-14.71s-.92-14.71-1.06-14.7.12,6.6.57,14.72S136.59,440.77,136.73,440.76Z"/><polygon class="cls-6" points="128.66 440 144.92 439.59 145 441.71 128.75 442.08 128.66 440"/><path class="cls-6" d="M144.61,432.08s-.12-.26-.44-.64a11.42,11.42,0,0,0-1.52-1.48,10.92,10.92,0,0,0-2.71-1.64,8.64,8.64,0,0,0-10,2.35,7,7,0,0,0-1.11,1.82,2.33,2.33,0,0,0-.23.74,19.8,19.8,0,0,1,1.6-2.34,8.67,8.67,0,0,1,6-2.78,9.93,9.93,0,0,1,6.28,2.12C143.84,431.28,144.55,432.14,144.61,432.08Z"/><g class="cls-12"><polygon points="127.87 424.14 128.1 426.82 144.4 426.82 144.29 424.14 127.87 424.14"/></g><path class="cls-7" d="M72.69,414.08l-.58,18.05S54,439,53.82,442.41L89.3,442l.84-28.16Z"/><path class="cls-3" d="M82.83,430.41a1.45,1.45,0,0,1,1,1.64,1.4,1.4,0,0,1-1.62,1.06,1.55,1.55,0,0,1-1.1-1.75,1.46,1.46,0,0,1,1.81-.91"/><path class="cls-6" d="M89.3,442l0-2.27L54.83,440.8a2.74,2.74,0,0,0-1.18,1.8Z"/><path class="cls-6" d="M71.79,432.26c0,.17.88.23,1.76.77s1.35,1.27,1.5,1.2-.12-1.08-1.19-1.72S71.74,432.1,71.79,432.26Z"/><path class="cls-6" d="M68.07,433.9c0,.17.72.45,1.34,1.18s.8,1.5,1,1.49.26-1-.51-1.89S68.07,433.73,68.07,433.9Z"/><path class="cls-6" d="M66,438.45c.16,0,.38-.85-.09-1.8s-1.3-1.31-1.37-1.16.45.65.82,1.43S65.86,438.43,66,438.45Z"/><path class="cls-6" d="M72,428c.08.16.88-.1,1.87-.06s1.77.34,1.85.19-.66-.76-1.83-.8S71.91,427.89,72,428Z"/><path class="cls-6" d="M71.27,424.1a3.48,3.48,0,0,0,1.8-.05,8.61,8.61,0,0,0,1.86-.62,7.55,7.55,0,0,0,1-.58,2.38,2.38,0,0,0,.53-.43.76.76,0,0,0,.06-.93,1,1,0,0,0-.78-.38,2.25,2.25,0,0,0-.67.1,6.9,6.9,0,0,0-1.11.41,6.39,6.39,0,0,0-1.62,1.13c-.82.79-1.09,1.45-1,1.48s.47-.5,1.3-1.16a7.4,7.4,0,0,1,1.58-.94,7.17,7.17,0,0,1,1-.34c.38-.11.7-.12.8,0s0,.09,0,.2a1.75,1.75,0,0,1-.4.32,9.18,9.18,0,0,1-.93.56,10,10,0,0,1-1.72.71A11.62,11.62,0,0,0,71.27,424.1Z"/><g class="cls-12"><polygon points="89.82 424.36 89.7 428.51 72.21 428.79 72.38 425.02 89.82 424.36"/></g><path class="cls-10" d="M82.46,123.43l8.61,36.39,20.46-2.72L110,145.5s7.47.12,8.11-6.91c.22-2.34-1.6-12.68-3.39-22a16.51,16.51,0,0,0-19.56-13.07h0A16.51,16.51,0,0,0,82.46,123.43Z"/><path class="cls-6" d="M101.34,102.16c1.76.65,1.32,1.52,1.69,2.31s1.91.73,3.43,1.33,5,3.39,5.93,5.12.37,2,.2,2.93,1.23,5.89,1.43,6.77c.38,1.65,1.11,6.5,1.11,6.5l-1.47.78s-.77-5.32-2.51-5.29-2.15,1.83-2.24,2.33a7.73,7.73,0,0,0-1.11,2.46c-.38,2.32-.21,5.71-.39,7.84-.27,3.29-3.87,8.16-3.87,8.16l-16,1.47s-7.24-16.4-7.72-20.67,1.17-10,3.58-13.86A18.84,18.84,0,0,1,87.63,106a32.19,32.19,0,0,1,3.63-2.16,17.51,17.51,0,0,1,8.92-1.77Z"/><path class="cls-11" d="M113.76,133.16s0,.26-.35.59a2.51,2.51,0,0,1-1.72.71,3.31,3.31,0,0,1-2.48-1.21,5.82,5.82,0,0,1-1.26-3.11,10,10,0,0,1,.9-5.9,3.49,3.49,0,0,1,1.25-1.36,1.38,1.38,0,0,1,.64-.23,4.42,4.42,0,0,0-1.56,1.76,10.61,10.61,0,0,0-.72,5.66,5.6,5.6,0,0,0,1.11,2.87,3,3,0,0,0,2.12,1.15,2.48,2.48,0,0,0,1.59-.49C113.6,133.35,113.72,133.14,113.76,133.16Z"/><path class="cls-11" d="M111.84,130.74s-.34.3-.9,0a2.33,2.33,0,0,1-.91-1.94,3.17,3.17,0,0,1,.68-2c.35-.42.68-.55.72-.5a5.07,5.07,0,0,0-.88,2.5,2.33,2.33,0,0,0,.6,1.64C111.49,130.72,111.82,130.66,111.84,130.74Z"/><path class="cls-6" d="M76.59,250.12l-7.51,31.3V427.61l22.54.66,2-86.91,11.34-53.8,10.43,55.29,10.46,83.21,20.08-.58s-3.41-35.22-2.81-45.06-3.51-40.85-3.51-40.85.64-51.78-.43-58c-1.21-7-2.24-29.72-2.24-30.62Z"/><path class="cls-7" d="M104.92,287.87a34.89,34.89,0,0,1-3.65.8c-2.25.47-5.36,1.18-8.73,2.16s-6.37,2-8.53,2.86A35.42,35.42,0,0,1,80.5,295a4.06,4.06,0,0,1,.88-.5c.58-.29,1.43-.67,2.5-1.13a78.92,78.92,0,0,1,8.52-3,77.75,77.75,0,0,1,8.8-2c1.14-.19,2.07-.32,2.72-.38A4.19,4.19,0,0,1,104.92,287.87Z"/><path class="cls-7" d="M127.45,285.11a2.61,2.61,0,0,1-.82.39c-.54.23-1.33.51-2.32.82a46,46,0,0,1-7.94,1.72,45.49,45.49,0,0,1-8.11.31c-1-.06-1.87-.13-2.45-.22a3.55,3.55,0,0,1-.89-.17c0-.08,1.29,0,3.35,0a61.09,61.09,0,0,0,8-.45,60.46,60.46,0,0,0,7.9-1.56C126.2,285.44,127.42,285,127.45,285.11Z"/><path class="cls-7" d="M125.8,309c-.1.11-4.86-4.47-10.62-10.23s-10.36-10.49-10.26-10.6,4.86,4.48,10.63,10.24S125.9,308.92,125.8,309Z"/><polygon class="cls-7" points="75.25 255.72 84.88 255.38 86.06 250.25 76.59 250.12 75.25 255.72"/><polygon class="cls-7" points="89.11 250.3 88.23 255.72 122.04 255.72 122.14 250.75 89.11 250.3"/><polygon class="cls-7" points="125.04 250.79 125.04 255.72 137.12 255.72 136.91 250.95 125.04 250.79"/><path class="cls-7" d="M83.66,363.6c-.14,0-1.88-5.35-3.89-12s-3.52-12.14-3.38-12.18,1.87,5.34,3.88,12S83.8,363.56,83.66,363.6Z"/><path class="cls-7" d="M130.49,358.64a68.69,68.69,0,0,1-4.9-7,70.56,70.56,0,0,1-4.47-7.31,71.56,71.56,0,0,1,4.9,7A71.09,71.09,0,0,1,130.49,358.64Z"/><path class="cls-8" d="M79.22,164.42s-13,5.45-14.71,11.22c-1.83,6.4-3.71,20.47-3.71,20.47V233.2S58,245.69,58.52,251s6.22,14.6,6.22,14.6L74,261.08,76.83,248l.54-39.81-1.06-19.72Z"/><path class="cls-8" d="M79.22,164.42l8.69-6.94.42-5.92,22.36-3.81,2.51,5.06,10,2.7,6.73-2,1.64,3.82L140,183l-6.31,37.61s3.74,20,3.26,30.38l-60.32-.83c-1.56-1.9-1.8-5.31-1.49-9.34l-.81-50.54Z"/><path class="cls-6" d="M129.13,161.88a3.57,3.57,0,0,1-.52.14l-1.49.31-5.5,1.1c-4.65.92-11.05,2.26-18.09,3.91s-13.36,3.31-17.93,4.55l-5.42,1.47-1.47.39a2,2,0,0,1-.53.1,1.94,1.94,0,0,1,.5-.2l1.45-.48c1.26-.41,3.09-1,5.37-1.63,4.55-1.33,10.87-3,17.91-4.7s13.47-2.94,18.14-3.77c2.33-.42,4.22-.74,5.53-.94l1.51-.21A1.7,1.7,0,0,1,129.13,161.88Z"/><path class="cls-6" d="M89.79,219.6a10.84,10.84,0,0,1,1.3-1.18l3.63-3.13c3.06-2.65,7.21-6.39,11.6-10.72s8.2-8.43,10.89-11.44l3.18-3.59a11.3,11.3,0,0,1,1.2-1.28,11,11,0,0,1-1,1.41c-.7.89-1.75,2.16-3.06,3.7-2.63,3.08-6.4,7.23-10.8,11.57S98.08,213,95,215.57c-1.56,1.29-2.84,2.32-3.74,3A11.38,11.38,0,0,1,89.79,219.6Z"/><path class="cls-6" d="M130.06,205.93s-.09.15-.3.41l-.95,1.1c-.82,1-2.06,2.3-3.62,3.93a157.42,157.42,0,0,1-12.94,12,158.7,158.7,0,0,1-14.2,10.47c-1.9,1.23-3.45,2.19-4.54,2.82l-1.27.72a2,2,0,0,1-.45.23s.13-.13.4-.31l1.21-.81c1.06-.68,2.58-1.69,4.44-3,3.73-2.53,8.78-6.18,14.08-10.56s9.82-8.66,13-11.85c1.6-1.59,2.87-2.89,3.74-3.81l1-1A2,2,0,0,1,130.06,205.93Z"/><path class="cls-6" d="M118.15,245.67a60.11,60.11,0,0,0,4.16-6.83,63.56,63.56,0,0,0,2.73-7.52,8.39,8.39,0,0,1-.35,2.34,26.7,26.7,0,0,1-1.91,5.4,27,27,0,0,1-3,4.88A7.82,7.82,0,0,1,118.15,245.67Z"/><path class="cls-8" d="M130.27,155.22l22.58-.93L163.9,149l1.22-15.44-1-10.94,9.5-2.81s7.89,20.25,7.63,27.62c-.09,2.48-.24,4.92-.4,7.07a13.13,13.13,0,0,1-7,10.68L140,183l-9.69-27.74"/><path class="cls-6" d="M76.24,198.38a20.61,20.61,0,0,1-1.31-4.48,21,21,0,0,1-.81-4.59,20.86,20.86,0,0,1,1.31,4.47A22.29,22.29,0,0,1,76.24,198.38Z"/><path class="cls-6" d="M76.05,191a2.53,2.53,0,0,1,.07.6q0,.67.09,1.74c.05,1.58.13,3.74.23,6.39.14,5.46.34,12.88.56,21.08a72.54,72.54,0,0,1-.29,11.64c-.24,1.79-.74,3.43-1,5a12.53,12.53,0,0,0-.17,2.27c-.05.73-.1,1.44-.14,2.11a22.94,22.94,0,0,0,.17,6.33,4.78,4.78,0,0,0,.63,1.58c.25.29.41.43.39.45s0,0-.13-.08a2.63,2.63,0,0,1-.34-.31,4.44,4.44,0,0,1-.75-1.59,22,22,0,0,1-.34-6.4c0-.67.07-1.38.11-2.11a13.19,13.19,0,0,1,.14-2.31c.25-1.6.74-3.22,1-5a75,75,0,0,0,.25-11.55c-.16-8.21-.31-15.63-.41-21.09,0-2.65,0-4.82-.07-6.4,0-.71,0-1.28,0-1.74A2.58,2.58,0,0,1,76.05,191Z"/><path class="cls-6" d="M137.3,174.65a13,13,0,0,1-1.06-2.48c-.59-1.56-1.36-3.73-2.14-6.15s-1.42-4.63-1.86-6.24a13.08,13.08,0,0,1-.58-2.63,15.2,15.2,0,0,1,.94,2.53c.56,1.75,1.25,3.86,2,6.18s1.42,4.44,2,6.19A14.66,14.66,0,0,1,137.3,174.65Z"/><path class="cls-6" d="M69.45,240.06a7.92,7.92,0,0,1-3.8-2.79,7.77,7.77,0,0,1-2-4.28,27,27,0,0,0,2.39,3.95A28.8,28.8,0,0,0,69.45,240.06Z"/><path class="cls-6" d="M76.58,255.41a5.65,5.65,0,0,1-1.41,1.8,13.12,13.12,0,0,1-4.69,2.9,13.28,13.28,0,0,1-5.47.74,5.81,5.81,0,0,1-2.23-.5c0-.09.87.09,2.25.13a14.74,14.74,0,0,0,5.27-.86,15.11,15.11,0,0,0,4.63-2.68C76,256,76.51,255.36,76.58,255.41Z"/><path class="cls-6" d="M175.52,125.67c0,.16-2.47.52-5.4,1.51s-5.15,2.19-5.22,2a15,15,0,0,1,5-2.54A15.31,15.31,0,0,1,175.52,125.67Z"/><path class="cls-6" d="M172.57,121.61c0,.08-.2.17-.29.47s.06.7.51.62a.44.44,0,0,0,.26-.75c-.17-.26-.41-.27-.42-.34s.3-.23.69.08a.86.86,0,0,1-.45,1.53.89.89,0,0,1-1-.45.87.87,0,0,1,0-.84C172.21,121.5,172.59,121.55,172.57,121.61Z"/><path class="cls-6" d="M113.3,152.8a4.53,4.53,0,0,1-1,.25l-2.71.52-8.94,1.63-8.93,1.69-2.71.49a3.78,3.78,0,0,1-1,.11,4.34,4.34,0,0,1,1-.31c.63-.17,1.54-.39,2.68-.66,2.27-.52,5.41-1.18,8.91-1.83s6.67-1.16,9-1.49c1.15-.16,2.08-.28,2.73-.35A3.46,3.46,0,0,1,113.3,152.8Z"/><path class="cls-6" d="M72.8,188.07s-.12-.27-.23-.77a15.36,15.36,0,0,1-.28-2.17,43.21,43.21,0,0,1,.25-7.2c.29-2.8.66-5.31.91-7.13a21.67,21.67,0,0,1,.47-2.94,14.77,14.77,0,0,1-.1,3c-.16,1.84-.47,4.36-.77,7.14a60.75,60.75,0,0,0-.39,7.13C72.69,186.94,72.88,188.05,72.8,188.07Z"/><path class="cls-6" d="M97.44,206.68c-.13-.07,3.08-6.42,7.16-14.18s7.5-14,7.63-13.93-3.08,6.41-7.17,14.17S97.56,206.74,97.44,206.68Z"/><path class="cls-6" d="M144.46,170.91a14.63,14.63,0,0,1-.86,2.2c-.56,1.34-1.3,3.21-2,5.31s-1.18,4.06-1.51,5.47a12.27,12.27,0,0,1-.6,2.29,9.7,9.7,0,0,1,.24-2.36A40.28,40.28,0,0,1,143.26,173,8.9,8.9,0,0,1,144.46,170.91Z"/><path class="cls-3" d="M71,183a10.49,10.49,0,0,1-1.28.35c-.8.19-1.89.48-3.08.83s-2.27.72-3,1a9.89,9.89,0,0,1-1.26.4,7.93,7.93,0,0,1,1.21-.54c.76-.31,1.83-.69,3-1.05s2.3-.62,3.11-.78A6.76,6.76,0,0,1,71,183Z"/><path class="cls-3" d="M108.06,185c0,.06-7.09,2.16-15.87,4.69s-15.91,4.54-15.93,4.48,7.09-2.15,15.87-4.68S108.05,185,108.06,185Z"/><path class="cls-3" d="M137,176.56c0,.06-6.33,2.41-14.18,5.25s-14.24,5.1-14.26,5,6.33-2.4,14.18-5.24S137,176.51,137,176.56Z"/><path class="cls-3" d="M134.37,166.31l-.62.19L132,167l-6.6,1.74c-5.58,1.46-13.28,3.45-21.82,5.57s-16.29,3.93-21.92,5.17L75,180.91l-1.81.37-.64.11.63-.15,1.81-.41,6.65-1.51c5.62-1.29,13.36-3.12,21.9-5.23l21.83-5.51,6.62-1.68,1.8-.45Z"/><path class="cls-3" d="M121.87,154.77s-9.49,2.46-21.22,5.38-21.26,5.23-21.28,5.17,9.49-2.46,21.23-5.38S121.85,154.71,121.87,154.77Z"/><path class="cls-3" d="M143.29,155.18s0,.06,0,.19l.06.53c.06.47.11,1.15.17,2A53.87,53.87,0,0,1,142.7,171c-.16.83-.31,1.49-.42,2-.05.18-.09.35-.14.52s0,.18-.06.18,0-.07,0-.19.07-.34.1-.53c.11-.59.22-1.23.35-2a62.51,62.51,0,0,0,.78-6.5c.16-2.56.14-4.88.08-6.55,0-.74-.07-1.4-.1-2l0-.54A.58.58,0,0,1,143.29,155.18Z"/><path class="cls-3" d="M158.76,172.48a1.9,1.9,0,0,1,0-.19l-.07-.55c-.06-.47-.16-1.16-.29-2a52.16,52.16,0,0,0-1.46-6.5,51.43,51.43,0,0,0-2.29-6.26c-.34-.78-.63-1.41-.84-1.84l-.23-.5c0-.12-.08-.18-.07-.18s0,0,.11.16l.26.48c.23.42.54,1,.91,1.82a46.35,46.35,0,0,1,2.35,6.26,45.11,45.11,0,0,1,1.41,6.54c.11.85.19,1.54.22,2,0,.19,0,.37,0,.55A.58.58,0,0,1,158.76,172.48Z"/><path class="cls-3" d="M171.6,164.8a4.88,4.88,0,0,1-.26-.65l-.66-1.79c-.58-1.51-1.44-3.57-2.53-5.77s-2.23-4.12-3.09-5.49l-1-1.61a4,4,0,0,1-.37-.6,4.13,4.13,0,0,1,.44.56c.27.36.64.9,1.08,1.57a51.71,51.71,0,0,1,3.15,5.48,53.93,53.93,0,0,1,2.48,5.8c.27.77.48,1.39.61,1.82A4.61,4.61,0,0,1,171.6,164.8Z"/><path class="cls-3" d="M180.24,144.26a3,3,0,0,1-.62-.09l-1.67-.29c-1.41-.25-3.36-.58-5.52-.87s-4.13-.51-5.56-.64l-1.69-.17a2.41,2.41,0,0,1-.61-.08h.62l1.69.1c1.43.1,3.41.29,5.57.58s4.12.65,5.53.93c.7.15,1.26.27,1.65.37A4.78,4.78,0,0,1,180.24,144.26Z"/><path class="cls-3" d="M177.84,130.61a1.78,1.78,0,0,1-.5,0H176a28.67,28.67,0,0,0-4.44.39,28.27,28.27,0,0,0-4.32,1.07l-1.28.45a1.76,1.76,0,0,1-.47.15,2.29,2.29,0,0,1,.44-.22c.29-.14.72-.32,1.26-.52a24.52,24.52,0,0,1,4.34-1.14,23.91,23.91,0,0,1,4.47-.32c.57,0,1,0,1.35.07A2.69,2.69,0,0,1,177.84,130.61Z"/><path class="cls-3" d="M98.81,201.79c0,.05-4.93,1.21-11,2.58s-11.06,2.44-11.07,2.38,4.92-1.21,11-2.58S98.79,201.73,98.81,201.79Z"/><path class="cls-3" d="M105.81,204.3a29.92,29.92,0,0,1-3.51-.12,30.38,30.38,0,0,1-3.49-.33,30,30,0,0,1,3.51.12A30.38,30.38,0,0,1,105.81,204.3Z"/><path class="cls-3" d="M138,192c0,.06-5.7,1.59-12.77,3.42s-12.82,3.26-12.83,3.21,5.7-1.59,12.77-3.42S138,191.93,138,192Z"/><path class="cls-3" d="M90.13,218.46c0,.06-2.86.62-6.42,1.25s-6.45,1.1-6.46,1,2.86-.61,6.42-1.25S90.12,218.4,90.13,218.46Z"/><path class="cls-3" d="M124.25,210.78c0,.06-6.51,1.15-14.56,2.43s-14.59,2.27-14.6,2.22,6.51-1.15,14.57-2.43S124.24,210.73,124.25,210.78Z"/><path class="cls-3" d="M135.46,211.74a1.72,1.72,0,0,1-.44.06l-1.21.11c-1,.09-2.43.23-4,.43s-3,.41-4,.57l-1.2.19a1.8,1.8,0,0,1-.44.05,1.94,1.94,0,0,1,.42-.13l1.19-.25c1-.21,2.41-.45,4-.64s3-.31,4-.36l1.22-.05A1.54,1.54,0,0,1,135.46,211.74Z"/><path class="cls-3" d="M101.22,230.93,101,231l-.71.29c-.61.26-1.5.6-2.62,1A69.55,69.55,0,0,1,79.6,236c-1.18.08-2.14.12-2.8.13H76a1.52,1.52,0,0,1-.27,0l.27,0,.76,0c.66,0,1.61-.1,2.79-.2a76.13,76.13,0,0,0,18-3.69c1.12-.37,2-.69,2.64-.92L101,231A.68.68,0,0,1,101.22,230.93Z"/><path class="cls-3" d="M135.43,225.26l-.36.14-1.06.36c-.91.31-2.24.74-3.9,1.25-3.3,1-7.9,2.32-13,3.51s-9.85,2.06-13.27,2.6c-1.71.27-3.09.47-4,.6l-1.1.13-.39,0a3.1,3.1,0,0,1,.38-.08l1.1-.18,4-.65c3.41-.58,8.1-1.47,13.24-2.66s9.74-2.47,13-3.45l3.92-1.19,1.06-.32A2.81,2.81,0,0,1,135.43,225.26Z"/><path class="cls-3" d="M120,242.2l-.44.09-1.28.21c-1.1.19-2.71.43-4.7.7-4,.54-9.5,1.13-15.62,1.47s-11.68.33-15.7.23c-2-.06-3.63-.12-4.75-.19l-1.29-.08-.45,0h.45l1.3,0c1.12,0,2.74.09,4.75.12,4,.07,9.56,0,15.68-.29s11.63-.9,15.61-1.41c2-.25,3.6-.46,4.71-.63l1.28-.17Z"/><path class="cls-3" d="M136,239.87a3.44,3.44,0,0,1-.55,0l-1.51,0c-1.26,0-3,0-5,0s-3.68.11-4.94.17l-1.5.08H122a2.44,2.44,0,0,1,.54-.08c.35,0,.87-.09,1.5-.14,1.26-.1,3-.2,4.95-.24s3.69,0,5,.06l1.5.08A2.34,2.34,0,0,1,136,239.87Z"/><path class="cls-3" d="M76.34,199.93c0,.06-3.57.75-8,1.54s-8,1.38-8,1.33,3.57-.75,8-1.54S76.32,199.88,76.34,199.93Z"/><path class="cls-3" d="M75.8,215.62c0,.06-3.33.43-7.46.83s-7.47.69-7.47.63,3.33-.43,7.45-.83S75.8,215.57,75.8,215.62Z"/><path class="cls-3" d="M77.15,228.24s-3.47.21-7.74.34-7.74.19-7.75.13,3.47-.21,7.74-.34S77.15,228.18,77.15,228.24Z"/><path class="cls-3" d="M74.21,243.77h-.56c-.37,0-.9,0-1.54-.09a32.26,32.26,0,0,1-5-.86,33.28,33.28,0,0,1-4.82-1.64c-.6-.26-1.08-.48-1.4-.65a3.9,3.9,0,0,1-.5-.28,3.07,3.07,0,0,1,.53.2c.33.15.82.35,1.42.59a37,37,0,0,0,4.82,1.57,38.94,38.94,0,0,0,5,.92c.65.08,1.17.13,1.53.16A2.66,2.66,0,0,1,74.21,243.77Z"/><path class="cls-3" d="M75,248.1a4.43,4.43,0,0,1-.51.41c-.33.26-.83.61-1.46,1a41.73,41.73,0,0,1-5.15,2.9,42.24,42.24,0,0,1-5.51,2.13c-.72.22-1.31.38-1.72.48a3,3,0,0,1-.64.13,3.53,3.53,0,0,1,.62-.21c.4-.12,1-.3,1.7-.54a49.07,49.07,0,0,0,5.46-2.18A47.42,47.42,0,0,0,73,249.41c.64-.4,1.15-.73,1.5-1A3.67,3.67,0,0,1,75,248.1Z"/><path class="cls-3" d="M85.61,251.14s0-.27,0-.8,0-1.33.08-2.28c.06-2,.15-4.9.27-8.41.2-7.1.36-16.91.29-27.75s-.38-20.65-.69-27.75c-.16-3.51-.29-6.37-.38-8.4,0-1-.09-1.72-.11-2.29s0-.8,0-.8,0,.28.07.8.09,1.33.15,2.28c.13,2,.28,4.85.45,8.4.34,7.1.67,16.91.75,27.76s-.12,20.65-.36,27.75c-.12,3.55-.23,6.43-.33,8.41l-.12,2.28C85.63,250.87,85.61,251.14,85.61,251.14Z"/><path class="cls-3" d="M103.29,195.23c-.05,0-.83-5.84-1.73-13.06S100,169.08,100,169.08s.83,5.84,1.73,13.06S103.35,195.22,103.29,195.23Z"/><path class="cls-3" d="M101.69,207.08a37.61,37.61,0,0,1-.68-3.92,36.43,36.43,0,0,1-.47-3.95,37,37,0,0,1,.68,3.92C101.53,205.3,101.74,207.07,101.69,207.08Z"/><path class="cls-3" d="M105.78,228.58c-.06,0-.15-5.05-.21-11.29s0-11.29,0-11.29.15,5.06.2,11.29S105.83,228.58,105.78,228.58Z"/><path class="cls-3" d="M105.46,250.82c-.06,0-.73-4.56-1.49-10.2s-1.35-10.23-1.29-10.24.72,4.56,1.49,10.21S105.52,250.81,105.46,250.82Z"/><path class="cls-3" d="M125.2,207.76c-.06,0-1.6-9.36-3.44-20.93s-3.28-21-3.23-21,1.6,9.36,3.44,20.93S125.25,207.75,125.2,207.76Z"/><path class="cls-3" d="M122.74,235c-.06,0-.58-4.16-1.16-9.31s-1-9.32-1-9.33.58,4.16,1.16,9.31S122.8,235,122.74,235Z"/><path class="cls-3" d="M166.93,153.7a39.68,39.68,0,0,1-4,3.18,47.36,47.36,0,0,1-4.76,2.9,52,52,0,0,1-6.24,2.78,53,53,0,0,1-6.58,1.85,47,47,0,0,1-5.52.8,38.4,38.4,0,0,1-5.13.13,1.65,1.65,0,0,1,.36,0l1,0c.88,0,2.16-.08,3.74-.23a49.79,49.79,0,0,0,5.49-.84,54.5,54.5,0,0,0,6.55-1.86,53.19,53.19,0,0,0,6.22-2.75,51.33,51.33,0,0,0,4.77-2.85c1.3-.9,2.33-1.66,3-2.22l.8-.63A1.73,1.73,0,0,1,166.93,153.7Z"/><path class="cls-3" d="M167,153.72s0-.09,0-.27,0-.47.08-.75c.08-.77.17-1.69.28-2.76.23-2.34.5-5.57.66-9.15s.19-6.82.17-9.17c0-1.08,0-2,0-2.78v-.76a1,1,0,0,1,0-.26.9.9,0,0,1,0,.26c0,.23,0,.48,0,.76,0,.65.08,1.6.1,2.78.06,2.35.06,5.59-.1,9.18s-.45,6.82-.72,9.15c-.13,1.17-.26,2.11-.35,2.76,0,.27-.08.52-.11.75A1,1,0,0,1,167,153.72Z"/><path class="cls-3" d="M175.41,127.12s.06.24.15.7.24,1.14.45,2c.41,1.74,1.13,4.22,2,7.31a33.68,33.68,0,0,1,1.34,11.11A15.36,15.36,0,0,1,172.92,160,56.79,56.79,0,0,1,167,163.9c-2,1.19-3.88,2.31-5.71,3.36-3.67,2.1-7,3.93-9.82,5.43s-5.12,2.68-6.72,3.48l-1.84.91-.65.31s.22-.13.63-.34l1.83-1c1.58-.82,3.87-2,6.68-3.54s6.14-3.36,9.79-5.47c1.83-1.05,3.74-2.18,5.71-3.36a56.88,56.88,0,0,0,5.92-3.9,15.24,15.24,0,0,0,6.32-11.61,33.78,33.78,0,0,0-1.3-11.05c-.79-3.09-1.5-5.58-1.88-7.33S175.41,127.12,175.41,127.12Z"/><path class="cls-3" d="M64.68,233.1s0-.21,0-.61.09-1.05.14-1.77l.53-6.5c.44-5.5,1-13.09,1.46-21.48s.78-16,1-21.5c.09-2.71.15-4.92.2-6.52,0-.73,0-1.32.06-1.78s0-.61,0-.61,0,.21,0,.61,0,1.05,0,1.78c0,1.61-.09,3.82-.14,6.52-.15,5.51-.43,13.12-.9,21.51s-1,16-1.52,21.48c-.25,2.69-.45,4.89-.6,6.5-.07.72-.13,1.3-.18,1.76S64.68,233.1,64.68,233.1Z"/><path class="cls-3" d="M67.3,261.82a1.78,1.78,0,0,1-.09-.24l-.22-.71c-.2-.62-.45-1.53-.73-2.65a69.4,69.4,0,0,1-1.65-8.89,72.83,72.83,0,0,1-.51-9c0-1.16.05-2.09.09-2.74,0-.27,0-.51,0-.74a.9.9,0,0,1,0-.26,1,1,0,0,1,0,.26v.74c0,.65,0,1.59,0,2.74a80.15,80.15,0,0,0,2.15,17.9c.27,1.12.5,2,.67,2.65.06.27.12.5.18.73A.94.94,0,0,1,67.3,261.82Z"/><path class="cls-3" d="M73.69,258.79s0-.24,0-.7,0-1.18,0-2c0-1.81,0-4.32.06-7.4,0-6.25.08-14.88,0-24.41s-.23-18.16-.37-24.4c-.07-3.08-.13-5.59-.17-7.4,0-.83,0-1.5,0-2s0-.7,0-.7,0,.24,0,.7.05,1.18.08,2c.06,1.8.14,4.31.24,7.39.18,6.25.35,14.88.42,24.41s0,18.17-.07,24.41c0,3.08-.1,5.59-.13,7.4,0,.83,0,1.5,0,2S73.69,258.79,73.69,258.79Z"/><path class="cls-3" d="M86.07,172c-.06,0-.25-2.81-.43-6.29s-.27-6.31-.22-6.31.25,2.82.43,6.3S86.12,172,86.07,172Z"/><path class="cls-3" d="M100.87,167.89c-.05,0-.33-2.88-.62-6.43s-.48-6.43-.42-6.44.34,2.87.63,6.43S100.93,167.88,100.87,167.89Z"/><path class="cls-3" d="M117,164.21s-.86-2.6-1.8-5.86-1.67-5.9-1.61-5.91.86,2.6,1.81,5.86S117,164.2,117,164.21Z"/><path class="cls-3" d="M111.65,149.61l-.24,0-.7.13-2.57.45c-2.17.39-5.17.94-8.47,1.63s-6.26,1.39-8.4,1.91l-2.54.61-.7.17a1,1,0,0,1-.24,0,.74.74,0,0,1,.23-.08l.69-.2,2.52-.69c2.14-.55,5.1-1.27,8.4-2s6.3-1.22,8.49-1.57l2.58-.39.71-.09A.62.62,0,0,1,111.65,149.61Z"/><path class="cls-3" d="M92,156.84A19.09,19.09,0,0,1,92,154a20.15,20.15,0,0,1,.15-2.86,18.48,18.48,0,0,1,.06,2.86A19.38,19.38,0,0,1,92,156.84Z"/><path class="cls-3" d="M106.7,154.25a34.51,34.51,0,0,1-1-5.19,18.69,18.69,0,0,1,.58,2.58A15.8,15.8,0,0,1,106.7,154.25Z"/><path class="cls-6" d="M444.63,442.09c0,.15-98.68.26-220.38.26s-220.4-.11-220.4-.26,98.65-.26,220.4-.26S444.63,442,444.63,442.09Z"/><path class="cls-6" d="M38.64,75a2,2,0,0,0-.46,0l-1.34,0a12.9,12.9,0,0,0-2.17.22c-.43.06-.89.11-1.38.21l-1.54.38a25.63,25.63,0,0,0-7.45,3.33A25.87,25.87,0,0,0,12.78,99.31a25.62,25.62,0,0,0,3.54,14.53,26,26,0,0,0,12.44,10.82,25.56,25.56,0,0,0,8.63,1.9,24.82,24.82,0,0,0,9-1.12l.27-.09h-.21l15.09,5.23.61.21-.19-.62c-1.36-4.34-2.67-8.54-3.92-12.57l-.07.31a25.78,25.78,0,0,0,6.06-22.34,25.59,25.59,0,0,0-3.89-9.3A26.91,26.91,0,0,0,51.05,78a28.68,28.68,0,0,0-3-1.37,21,21,0,0,0-2.72-.86A17.12,17.12,0,0,0,43,75.29c-.7-.09-1.32-.2-1.86-.24l-1.38,0h-.84a1.23,1.23,0,0,0-.28,0,1.33,1.33,0,0,0,.28,0l.84.07,1.36.09c.54.07,1.15.19,1.85.3a16.16,16.16,0,0,1,2.3.53,20.86,20.86,0,0,1,2.67.89,32,32,0,0,1,3,1.39,27.1,27.1,0,0,1,3.06,2,25.69,25.69,0,0,1,5.82,6.18,25.11,25.11,0,0,1,3.76,9.14,25.32,25.32,0,0,1-6,21.82l-.12.13.05.17,3.89,12.57.42-.4-15.08-5.24-.11,0-.11,0-.26.08a24.25,24.25,0,0,1-8.79,1.1A24.79,24.79,0,0,1,29,124.06a25.45,25.45,0,0,1-12.17-10.54,25.5,25.5,0,0,1,7.67-34,25.54,25.54,0,0,1,7.31-3.39l1.52-.41c.48-.11.94-.16,1.36-.24a14.58,14.58,0,0,1,2.15-.27l1.33-.1A2.66,2.66,0,0,0,38.64,75Z"/><path class="cls-5" d="M48,100.44a8.73,8.73,0,1,0-12.33,8.09c0,1,0,2.2,0,2.2l7.65-.12s0-1.23,0-2.34A8.73,8.73,0,0,0,48,100.44Z"/><path class="cls-6" d="M48,100.44a3.16,3.16,0,0,1,0,.67,8.37,8.37,0,0,1-.28,1.9,8.76,8.76,0,0,1-1.28,2.75,9,9,0,0,1-3,2.68l.11-.17c0,.74,0,1.53,0,2.35v.2h-.2l-7.65.15h-.24v-.25c0-.69,0-1.44,0-2.2l.15.23a9,9,0,0,1-5-5.91,8.87,8.87,0,0,1,.52-6,9,9,0,0,1,3.79-4.12,10.32,10.32,0,0,1,2.47-.93,9.6,9.6,0,0,1,2.49-.16,9,9,0,0,1,4.19,1.39,8.72,8.72,0,0,1,3.71,5.08,6.63,6.63,0,0,1,.25,2.31,21.34,21.34,0,0,0-.45-2.26,8.72,8.72,0,0,0-3.71-4.82,8.6,8.6,0,0,0-4-1.27,9.51,9.51,0,0,0-2.36.18,9.12,9.12,0,0,0-2.33.9,8.61,8.61,0,0,0-3.57,3.91,8.48,8.48,0,0,0,4.22,11.22l.14.06v.16c0,.77,0,1.51,0,2.21l-.25-.25,7.65-.08-.2.21c0-.82,0-1.6,0-2.34v-.11l.09-.06A8.74,8.74,0,0,0,47.57,103,14.86,14.86,0,0,0,48,100.44Z"/><path class="cls-6" d="M40.6,110.62a.87.87,0,0,1,0-.11l0-.31c0-.28.07-.69.14-1.21s.16-1.17.32-1.91a13.59,13.59,0,0,1,.75-2.44,8.35,8.35,0,0,1,.7-1.31,1.56,1.56,0,0,1,.59-.55.93.93,0,0,1,.83,0,.61.61,0,0,1,.28.35.56.56,0,0,1,0,.44,1.27,1.27,0,0,1-.67.6,2.38,2.38,0,0,1-1.81-.1,2.49,2.49,0,0,1-1.26-1.44,1.82,1.82,0,0,1-.06-1,.78.78,0,0,1,.78-.62.57.57,0,0,1,.45.3.85.85,0,0,1,.08.54,1.75,1.75,0,0,1-.6.88,2.65,2.65,0,0,1-2,.62,2.27,2.27,0,0,1-1.7-1.23,1.31,1.31,0,0,1-.08-1.06.66.66,0,0,1,.38-.39.68.68,0,0,1,.54,0,.85.85,0,0,1,.37.38,1.43,1.43,0,0,1,.14.5,2.42,2.42,0,0,1-.12,1,2.61,2.61,0,0,1-1.2,1.48,2.68,2.68,0,0,1-1.81.28,1.41,1.41,0,0,1-.79-.41.67.67,0,0,1-.06-.84.59.59,0,0,1,.39-.2.88.88,0,0,1,.42.08,1.23,1.23,0,0,1,.54.59c.23.47.41.93.59,1.36.73,1.75,1.25,3.19,1.59,4.19.18.5.31.89.39,1.16l.1.3,0,.1a.39.39,0,0,1,0-.1l-.11-.3c-.09-.26-.23-.65-.41-1.14-.35-1-.88-2.44-1.62-4.18-.18-.43-.37-.89-.59-1.35a1.19,1.19,0,0,0-.51-.55.52.52,0,0,0-.64.82,1.25,1.25,0,0,0,.74.37,2.54,2.54,0,0,0,1.74-.27,2.49,2.49,0,0,0,1.16-1.42,2.61,2.61,0,0,0,.11-1,1,1,0,0,0-.46-.8.54.54,0,0,0-.77.3,1.22,1.22,0,0,0,.07,1,2.17,2.17,0,0,0,1.63,1.17,2.52,2.52,0,0,0,1.94-.59,1.62,1.62,0,0,0,.56-.82.66.66,0,0,0-.06-.46.46.46,0,0,0-.37-.25.67.67,0,0,0-.43.14.79.79,0,0,0-.24.4,1.71,1.71,0,0,0,.06,1,2.35,2.35,0,0,0,1.2,1.38,2.29,2.29,0,0,0,1.74.1,1.22,1.22,0,0,0,.62-.54.52.52,0,0,0-.22-.68.78.78,0,0,0-.74,0,1.45,1.45,0,0,0-.56.51,8.26,8.26,0,0,0-.7,1.3,12.62,12.62,0,0,0-.76,2.43c-.16.73-.26,1.37-.34,1.89s-.12.93-.16,1.21c0,.13,0,.24,0,.31S40.6,110.62,40.6,110.62Z"/><path class="cls-6" d="M42.8,112l-6.57.1a.5.5,0,0,1-.5-.49h0a.51.51,0,0,1,.49-.5l6.56-.1a.5.5,0,0,1,.51.49h0A.51.51,0,0,1,42.8,112Z"/><path class="cls-6" d="M42.81,112.47l-6.57.1a.5.5,0,0,0-.49.5.49.49,0,0,0,.5.48H37l1,1.81a.63.63,0,0,0,.57.33l2.34,0a.63.63,0,0,0,.56-.35l.9-1.83h.49a.49.49,0,1,0,0-1Z"/><g class="cls-9"><path class="cls-4" d="M33.59,95.1a6.55,6.55,0,0,1,1.73-1.19,4.63,4.63,0,0,1,1.34-.41c.33,0,.52,0,.53.06s-.61.4-1.5,1a7.21,7.21,0,0,0-3.16,7.1c.14,1.06.4,1.72.25,1.79s-.21-.09-.4-.36a4.75,4.75,0,0,1-.59-1.27,6.44,6.44,0,0,1-.27-2.08,6.64,6.64,0,0,1,.57-2.53"/></g><g class="cls-9"><path class="cls-4" d="M39.3,93.9c-.55,0-1-.14-1.11-.43,0-.14.08-.3.28-.42a1.71,1.71,0,0,1,1.64,0c.2.12.31.27.28.42"/></g><path class="cls-7" d="M41.31,115.45s-.17-.06-.45-.13a3.59,3.59,0,0,0-1.12-.13,3.74,3.74,0,0,0-1.1.22,3.23,3.23,0,0,1-.44.17,1.54,1.54,0,0,1,.41-.24,3.43,3.43,0,0,1,1.13-.26,3.59,3.59,0,0,1,1.14.16A1.3,1.3,0,0,1,41.31,115.45Z"/><path class="cls-7" d="M42.35,113.48s-1.19.08-2.65.1-2.66,0-2.66,0,1.19-.07,2.65-.09S42.35,113.45,42.35,113.48Z"/><path class="cls-7" d="M42,114.27a4.91,4.91,0,0,1-.65.07c-.4,0-.95.07-1.56.08s-1.17,0-1.57,0a4.54,4.54,0,0,1-.65,0,3.24,3.24,0,0,1,.65,0l1.56,0,1.57,0A3.7,3.7,0,0,1,42,114.27Z"/><path class="cls-6" d="M32.45,91.91c-.11.08-.59-.33-1.06-.93s-.77-1.17-.65-1.26.59.33,1.06.93S32.57,91.82,32.45,91.91Z"/><path class="cls-6" d="M38.59,89.44a6.7,6.7,0,0,1-.5-2.56,6.77,6.77,0,0,1,0-2.6,6.64,6.64,0,0,1,.5,2.56A6.77,6.77,0,0,1,38.59,89.44Z"/><path class="cls-6" d="M45.16,88.72c.12.08-.07.57-.42,1.1s-.73.88-.85.8.07-.57.42-1.09S45,88.64,45.16,88.72Z"/><path class="cls-7" d="M342.12,113.42a6.13,6.13,0,0,0-4.75-1.4L325,111.84a9.16,9.16,0,0,1-5.46-1.49,8.77,8.77,0,0,1-3.41-4.39l-.51-1.61c-1-3.24-2.06-6.58-3.32-9.76a51.3,51.3,0,0,0-2.47-5.42c-.46-.87-1-1.71-1.5-2.55s-1.08-1.69-1.6-2.46a72.19,72.19,0,0,0-34.61-27A84,84,0,0,0,232.93,53a92.06,92.06,0,0,0-17.36,4l-4,1.43c-.83.32-1.66.67-2.48,1l-1.33.56a56.87,56.87,0,0,0-7.11,3.66,50.6,50.6,0,0,0-11.4,9.4,49.15,49.15,0,0,0-4.18,5.35c-1,1.59-2.09,3.31-3.27,5.42-1.48,2.67-2.79,5.21-4.05,7.66l-1.2,2.31-.86,1.63a51.74,51.74,0,0,1-3.78,6.49c-3.91,5.46-8.1,7.3-9.74,7.84a9.42,9.42,0,0,1-1.35.39l-.43.11-.58.09a6.76,6.76,0,0,1-.77.11l-1.15.08a.38.38,0,0,0-.34.4.37.37,0,0,0,.38.35h0s.39,0,1.15,0a8.19,8.19,0,0,0,.88-.1l.59-.09.44-.1a10.26,10.26,0,0,0,1.46-.41c1.7-.55,6.11-2.43,10.2-8.09a52,52,0,0,0,3.9-6.6c.27-.53.56-1.06.85-1.61l1.24-2.37c1.26-2.42,2.56-4.93,4-7.56,1.17-2.09,2.2-3.79,3.24-5.35a47.94,47.94,0,0,1,4.1-5.22,49.74,49.74,0,0,1,11.18-9.18,56.68,56.68,0,0,1,7-3.57l1.34-.55c.81-.34,1.62-.68,2.44-1l3.94-1.4a89.51,89.51,0,0,1,17.14-3.88,82.94,82.94,0,0,1,38.6,4.1,71,71,0,0,1,34,26.61c.49.72,1.06,1.56,1.57,2.42s1,1.65,1.46,2.49A49.73,49.73,0,0,1,311.12,95c1.24,3.14,2.23,6.32,3.28,9.68l.51,1.64a10,10,0,0,0,3.9,5,10.34,10.34,0,0,0,6.15,1.7l12.47.19a5,5,0,0,1,3.83,1.07,4.78,4.78,0,0,1,1.17,3.81l-.06,1.65c0,1-.07,2-.13,3-.05.56-.1,1.12-.14,1.69-.08,1-.16,2-.27,3a115.46,115.46,0,0,1-3.7,18.73,135.18,135.18,0,0,1-16.24,35.95,118.63,118.63,0,0,1-14.23,18.36,82.41,82.41,0,0,1-8.42,7.72,83.91,83.91,0,0,1-9.31,6.4,108,108,0,0,1-20.31,9l-1.43.47c-1.24.41-2.52.83-3.79,1.2l-2.62.79a10.17,10.17,0,0,0-2.64,1.16,9.52,9.52,0,0,0-3.7,4.36,9,9,0,0,0-.7,2.8c-.05.67-.05,1.31-.05,1.93,0,.27,0,.54,0,.81,0,20.44-.47,39.72-.93,58.37q-.28,11-.5,21.47a20.23,20.23,0,0,0,.47,4.66,7.54,7.54,0,0,0,2.27,4.21,4.55,4.55,0,0,0,4.8.44,5.69,5.69,0,0,0,1.93-1.49,7.39,7.39,0,0,0,1.14-2.07,23.69,23.69,0,0,0,1.05-7.54l0-1.09c.06-2.7,0-5.38,0-8V305c0-2.51,0-4.87,0-7.25v-.37a42.14,42.14,0,0,1,.6-7.25,4.67,4.67,0,0,1,.59-1.52,3.61,3.61,0,0,1,1.33-.93,3.35,3.35,0,0,1,3-.07,3.53,3.53,0,0,1,1.27,2.77,22,22,0,0,1,.05,2.44c0,.36,0,.72,0,1.07l-.58,46.52a14.08,14.08,0,0,0,0,3.3,5.36,5.36,0,0,0,1.16,3.06,2.57,2.57,0,0,0,1.54.81c.51.07,1,.12,1.42.14.9.05,1.77.06,2.66.07h.61c2.93,0,5.47-.08,7.53-.15l5.67-.24c1.18-.06,1.78-.11,1.78-.11a.38.38,0,0,0,.35-.39.4.4,0,0,0-.39-.36l-1.77.05-5.87.19c-2.15.05-4.82.13-7.9.09-.91,0-1.74,0-2.61-.08l-.42,0a2.52,2.52,0,0,1-1.9-.62,4.47,4.47,0,0,1-.91-2.53,13.49,13.49,0,0,1,.05-3.16l.7-46.55c0-.35,0-.7,0-1.06a22.26,22.26,0,0,0-.05-2.57,6.87,6.87,0,0,0-.44-1.92,3.44,3.44,0,0,0-1.33-1.67,3.49,3.49,0,0,0-2.09-.52,5.79,5.79,0,0,0-2,.51,4.78,4.78,0,0,0-1.74,1.25,5.47,5.47,0,0,0-.8,2,40.54,40.54,0,0,0-.64,7.37v.47c-.05,2.42,0,4.83,0,7.37v1c0,2.58,0,5.25,0,7.92l0,1a23.54,23.54,0,0,1-1,7.24,4.84,4.84,0,0,1-2.48,2.9,3.34,3.34,0,0,1-3.56-.3,6.54,6.54,0,0,1-1.86-3.56,19.44,19.44,0,0,1-.44-4.37q.23-10.22.51-21c.48-18.8,1-38.25,1-58.88,0-.27,0-.54,0-.82,0-.6,0-1.23,0-1.81a8,8,0,0,1,.61-2.42,8.35,8.35,0,0,1,3.21-3.79,9.17,9.17,0,0,1,2.34-1l2.62-.79c1.28-.37,2.57-.79,3.83-1.21l1.43-.47a109,109,0,0,0,20.56-9.09,86.19,86.19,0,0,0,9.46-6.5,83.71,83.71,0,0,0,8.54-7.84A120.79,120.79,0,0,0,323,182.85a136.53,136.53,0,0,0,16.38-36.28,117,117,0,0,0,3.73-18.95c.12-1,.2-2,.28-3.05,0-.56.09-1.11.14-1.68.06-1,.09-2,.13-3,0-.56,0-1.12.06-1.67A6.07,6.07,0,0,0,342.12,113.42Z"/></g></g></svg>